<mxfile modified="2024-03-15T08:47:43.876Z" host="app.diagrams.net" agent="Mozilla/5.0 (Windows NT 10.0; Win64; x64) AppleWebKit/537.36 (KHTML, like Gecko) Chrome/122.0.0.0 Safari/537.36" etag="LDVSz504ayUtdkGPkAOC" version="24.0.5" type="github">
  <diagram id="WI9T0HZ2pTsCkuznbFz-" name="Page-1">
    <mxGraphModel dx="1985" dy="857" grid="1" gridSize="10" guides="1" tooltips="1" connect="1" arrows="1" fold="1" page="1" pageScale="1" pageWidth="1169" pageHeight="827" math="0" shadow="0">
      <root>
        <mxCell id="0" />
        <mxCell id="1" parent="0" />
        <mxCell id="RLjyjs_sm2IHfBNOWAbh-109" value="" style="rounded=0;whiteSpace=wrap;html=1;labelBackgroundColor=#ffffff;fillColor=#f5f5f5;strokeColor=none;fontColor=#333333;" parent="1" vertex="1">
          <mxGeometry x="225" y="578" width="110" height="100" as="geometry" />
        </mxCell>
        <mxCell id="RLjyjs_sm2IHfBNOWAbh-113" value="" style="rounded=0;whiteSpace=wrap;html=1;labelBackgroundColor=#ffffff;fillColor=#f5f5f5;strokeColor=none;fontColor=#333333;" parent="1" vertex="1">
          <mxGeometry x="520.17" y="1510" width="927" height="450" as="geometry" />
        </mxCell>
        <mxCell id="RLjyjs_sm2IHfBNOWAbh-143" style="edgeStyle=elbowEdgeStyle;rounded=0;orthogonalLoop=1;jettySize=auto;html=1;strokeColor=#808080;exitX=1;exitY=0.5;exitDx=0;exitDy=0;" parent="1" edge="1">
          <mxGeometry relative="1" as="geometry">
            <mxPoint x="356.5400000000001" y="1620.32" as="sourcePoint" />
            <mxPoint x="589.87" y="1620.45" as="targetPoint" />
            <Array as="points">
              <mxPoint x="519.87" y="1461.45" />
            </Array>
          </mxGeometry>
        </mxCell>
        <mxCell id="RLjyjs_sm2IHfBNOWAbh-133" style="edgeStyle=elbowEdgeStyle;rounded=0;orthogonalLoop=1;jettySize=auto;elbow=vertical;html=1;strokeColor=#808080;exitX=1.02;exitY=0.505;exitDx=0;exitDy=0;exitPerimeter=0;" parent="1" source="RLjyjs_sm2IHfBNOWAbh-40" target="RLjyjs_sm2IHfBNOWAbh-44" edge="1">
          <mxGeometry relative="1" as="geometry" />
        </mxCell>
        <mxCell id="RLjyjs_sm2IHfBNOWAbh-134" style="edgeStyle=orthogonalEdgeStyle;rounded=0;orthogonalLoop=1;jettySize=auto;elbow=vertical;html=1;strokeColor=#808080;" parent="1" target="RLjyjs_sm2IHfBNOWAbh-44" edge="1">
          <mxGeometry relative="1" as="geometry">
            <mxPoint x="280" y="578" as="sourcePoint" />
            <Array as="points">
              <mxPoint x="280" y="568" />
              <mxPoint x="425" y="568" />
              <mxPoint x="425" y="478" />
            </Array>
          </mxGeometry>
        </mxCell>
        <mxCell id="fedirBiWEbgYZT4gXUIa-1" value="Text" style="edgeLabel;html=1;align=center;verticalAlign=middle;resizable=0;points=[];" vertex="1" connectable="0" parent="RLjyjs_sm2IHfBNOWAbh-134">
          <mxGeometry x="-0.7221" y="7" relative="1" as="geometry">
            <mxPoint x="1" as="offset" />
          </mxGeometry>
        </mxCell>
        <mxCell id="RLjyjs_sm2IHfBNOWAbh-135" style="edgeStyle=elbowEdgeStyle;rounded=0;orthogonalLoop=1;jettySize=auto;elbow=vertical;html=1;strokeColor=#808080;exitX=0.007;exitY=0.495;exitDx=0;exitDy=0;exitPerimeter=0;" parent="1" source="RLjyjs_sm2IHfBNOWAbh-42" target="RLjyjs_sm2IHfBNOWAbh-109" edge="1">
          <mxGeometry relative="1" as="geometry" />
        </mxCell>
        <mxCell id="RLjyjs_sm2IHfBNOWAbh-136" style="edgeStyle=elbowEdgeStyle;rounded=0;orthogonalLoop=1;jettySize=auto;elbow=vertical;html=1;strokeColor=#808080;exitX=1.007;exitY=0.516;exitDx=0;exitDy=0;exitPerimeter=0;" parent="1" source="RLjyjs_sm2IHfBNOWAbh-42" target="RLjyjs_sm2IHfBNOWAbh-113" edge="1">
          <mxGeometry relative="1" as="geometry" />
        </mxCell>
        <mxCell id="RLjyjs_sm2IHfBNOWAbh-141" style="edgeStyle=elbowEdgeStyle;rounded=0;orthogonalLoop=1;jettySize=auto;elbow=vertical;html=1;strokeColor=#808080;" parent="1" source="RLjyjs_sm2IHfBNOWAbh-43" target="RLjyjs_sm2IHfBNOWAbh-109" edge="1">
          <mxGeometry relative="1" as="geometry">
            <Array as="points">
              <mxPoint x="345" y="797" />
            </Array>
          </mxGeometry>
        </mxCell>
        <mxCell id="RLjyjs_sm2IHfBNOWAbh-142" style="edgeStyle=elbowEdgeStyle;rounded=0;orthogonalLoop=1;jettySize=auto;elbow=vertical;html=1;strokeColor=#808080;" parent="1" edge="1">
          <mxGeometry relative="1" as="geometry">
            <mxPoint x="983.08" y="1681.79" as="sourcePoint" />
            <mxPoint x="983" y="1760" as="targetPoint" />
            <Array as="points" />
          </mxGeometry>
        </mxCell>
        <mxCell id="RLjyjs_sm2IHfBNOWAbh-137" style="edgeStyle=elbowEdgeStyle;rounded=0;orthogonalLoop=1;jettySize=auto;elbow=vertical;html=1;strokeColor=#808080;" parent="1" source="RLjyjs_sm2IHfBNOWAbh-44" target="RLjyjs_sm2IHfBNOWAbh-47" edge="1">
          <mxGeometry relative="1" as="geometry" />
        </mxCell>
        <mxCell id="RLjyjs_sm2IHfBNOWAbh-138" style="edgeStyle=elbowEdgeStyle;rounded=0;orthogonalLoop=1;jettySize=auto;elbow=vertical;html=1;strokeColor=#808080;" parent="1" source="RLjyjs_sm2IHfBNOWAbh-44" target="RLjyjs_sm2IHfBNOWAbh-86" edge="1">
          <mxGeometry relative="1" as="geometry" />
        </mxCell>
        <mxCell id="RLjyjs_sm2IHfBNOWAbh-150" style="edgeStyle=elbowEdgeStyle;rounded=0;orthogonalLoop=1;jettySize=auto;html=1;strokeColor=#808080;entryX=0.504;entryY=0.005;entryDx=0;entryDy=0;entryPerimeter=0;" parent="1" source="RLjyjs_sm2IHfBNOWAbh-50" target="RLjyjs_sm2IHfBNOWAbh-52" edge="1">
          <mxGeometry relative="1" as="geometry" />
        </mxCell>
        <mxCell id="RLjyjs_sm2IHfBNOWAbh-151" style="edgeStyle=elbowEdgeStyle;rounded=0;orthogonalLoop=1;jettySize=auto;elbow=vertical;html=1;strokeColor=#808080;entryX=0.494;entryY=-0.002;entryDx=0;entryDy=0;entryPerimeter=0;" parent="1" source="RLjyjs_sm2IHfBNOWAbh-50" target="RLjyjs_sm2IHfBNOWAbh-51" edge="1">
          <mxGeometry relative="1" as="geometry">
            <Array as="points">
              <mxPoint x="1045" y="544" />
            </Array>
          </mxGeometry>
        </mxCell>
        <mxCell id="RLjyjs_sm2IHfBNOWAbh-152" style="edgeStyle=elbowEdgeStyle;rounded=0;orthogonalLoop=1;jettySize=auto;elbow=vertical;html=1;strokeColor=#808080;entryX=0.489;entryY=0.007;entryDx=0;entryDy=0;entryPerimeter=0;" parent="1" source="RLjyjs_sm2IHfBNOWAbh-50" target="RLjyjs_sm2IHfBNOWAbh-82" edge="1">
          <mxGeometry relative="1" as="geometry">
            <Array as="points">
              <mxPoint x="1255" y="544" />
            </Array>
          </mxGeometry>
        </mxCell>
        <mxCell id="RLjyjs_sm2IHfBNOWAbh-144" style="edgeStyle=elbowEdgeStyle;rounded=0;orthogonalLoop=1;jettySize=auto;elbow=vertical;html=1;entryX=-0.023;entryY=0.257;entryDx=0;entryDy=0;entryPerimeter=0;strokeColor=#808080;" parent="1" source="RLjyjs_sm2IHfBNOWAbh-65" target="RLjyjs_sm2IHfBNOWAbh-101" edge="1">
          <mxGeometry relative="1" as="geometry" />
        </mxCell>
        <mxCell id="RLjyjs_sm2IHfBNOWAbh-145" style="edgeStyle=elbowEdgeStyle;rounded=0;orthogonalLoop=1;jettySize=auto;elbow=vertical;html=1;entryX=0.25;entryY=0;entryDx=0;entryDy=0;strokeColor=#808080;" parent="1" source="RLjyjs_sm2IHfBNOWAbh-65" target="RLjyjs_sm2IHfBNOWAbh-66" edge="1">
          <mxGeometry relative="1" as="geometry" />
        </mxCell>
        <mxCell id="RLjyjs_sm2IHfBNOWAbh-111" style="edgeStyle=elbowEdgeStyle;rounded=0;orthogonalLoop=1;jettySize=auto;elbow=vertical;html=1;strokeColor=#808080;startArrow=classic;startFill=1;" parent="1" target="RLjyjs_sm2IHfBNOWAbh-68" edge="1">
          <mxGeometry relative="1" as="geometry">
            <mxPoint x="1347" y="1028" as="sourcePoint" />
            <Array as="points">
              <mxPoint x="1165" y="1113" />
            </Array>
          </mxGeometry>
        </mxCell>
        <mxCell id="RLjyjs_sm2IHfBNOWAbh-139" style="edgeStyle=elbowEdgeStyle;rounded=0;orthogonalLoop=1;jettySize=auto;elbow=vertical;html=1;strokeColor=#808080;endArrow=none;endFill=0;" parent="1" source="RLjyjs_sm2IHfBNOWAbh-47" target="RLjyjs_sm2IHfBNOWAbh-126" edge="1">
          <mxGeometry relative="1" as="geometry" />
        </mxCell>
        <mxCell id="RLjyjs_sm2IHfBNOWAbh-140" style="edgeStyle=elbowEdgeStyle;rounded=0;orthogonalLoop=1;jettySize=auto;elbow=vertical;html=1;strokeColor=#808080;endArrow=none;endFill=0;" parent="1" source="RLjyjs_sm2IHfBNOWAbh-86" target="RLjyjs_sm2IHfBNOWAbh-126" edge="1">
          <mxGeometry relative="1" as="geometry">
            <mxPoint x="704.9999999999998" y="668" as="targetPoint" />
          </mxGeometry>
        </mxCell>
        <mxCell id="RLjyjs_sm2IHfBNOWAbh-146" style="edgeStyle=elbowEdgeStyle;rounded=0;orthogonalLoop=1;jettySize=auto;elbow=vertical;html=1;strokeColor=#808080;endArrow=none;endFill=0;" parent="1" target="RLjyjs_sm2IHfBNOWAbh-119" edge="1">
          <mxGeometry relative="1" as="geometry">
            <mxPoint x="960" y="818" as="sourcePoint" />
            <Array as="points">
              <mxPoint x="1055" y="838" />
            </Array>
          </mxGeometry>
        </mxCell>
        <mxCell id="RLjyjs_sm2IHfBNOWAbh-147" style="edgeStyle=elbowEdgeStyle;rounded=0;orthogonalLoop=1;jettySize=auto;elbow=vertical;html=1;strokeColor=#808080;endArrow=none;endFill=0;" parent="1" target="RLjyjs_sm2IHfBNOWAbh-119" edge="1">
          <mxGeometry relative="1" as="geometry">
            <mxPoint x="1347" y="828" as="sourcePoint" />
            <Array as="points">
              <mxPoint x="1255" y="838" />
            </Array>
          </mxGeometry>
        </mxCell>
        <mxCell id="RLjyjs_sm2IHfBNOWAbh-148" style="edgeStyle=orthogonalEdgeStyle;rounded=0;orthogonalLoop=1;jettySize=auto;elbow=vertical;html=1;strokeColor=#808080;endArrow=none;endFill=0;" parent="1" target="RLjyjs_sm2IHfBNOWAbh-118" edge="1">
          <mxGeometry relative="1" as="geometry">
            <mxPoint x="959" y="638" as="sourcePoint" />
            <Array as="points">
              <mxPoint x="959" y="708" />
              <mxPoint x="1156" y="708" />
            </Array>
          </mxGeometry>
        </mxCell>
        <mxCell id="RLjyjs_sm2IHfBNOWAbh-149" style="edgeStyle=elbowEdgeStyle;rounded=0;orthogonalLoop=1;jettySize=auto;elbow=vertical;html=1;strokeColor=#808080;endArrow=none;endFill=0;" parent="1" target="RLjyjs_sm2IHfBNOWAbh-118" edge="1">
          <mxGeometry relative="1" as="geometry">
            <mxPoint x="1345" y="638" as="sourcePoint" />
            <Array as="points">
              <mxPoint x="1255" y="708" />
            </Array>
          </mxGeometry>
        </mxCell>
        <mxCell id="RLjyjs_sm2IHfBNOWAbh-153" style="edgeStyle=elbowEdgeStyle;rounded=0;orthogonalLoop=1;jettySize=auto;elbow=vertical;html=1;strokeColor=#808080;endArrow=none;endFill=0;" parent="1" target="RLjyjs_sm2IHfBNOWAbh-116" edge="1">
          <mxGeometry relative="1" as="geometry">
            <mxPoint x="583" y="828" as="sourcePoint" />
          </mxGeometry>
        </mxCell>
        <mxCell id="RLjyjs_sm2IHfBNOWAbh-154" style="edgeStyle=elbowEdgeStyle;rounded=0;orthogonalLoop=1;jettySize=auto;elbow=vertical;html=1;strokeColor=#808080;endArrow=none;endFill=0;" parent="1" target="RLjyjs_sm2IHfBNOWAbh-116" edge="1">
          <mxGeometry relative="1" as="geometry">
            <mxPoint x="694.9999999999998" y="868" as="targetPoint" />
            <mxPoint x="790" y="828" as="sourcePoint" />
          </mxGeometry>
        </mxCell>
        <mxCell id="fedirBiWEbgYZT4gXUIa-4" value="" style="edgeStyle=orthogonalEdgeStyle;rounded=0;orthogonalLoop=1;jettySize=auto;html=1;" edge="1" parent="1" source="RLjyjs_sm2IHfBNOWAbh-40" target="RLjyjs_sm2IHfBNOWAbh-41">
          <mxGeometry relative="1" as="geometry" />
        </mxCell>
        <mxCell id="RLjyjs_sm2IHfBNOWAbh-40" value="Telemetry Data&amp;nbsp;&lt;div&gt;from Event Hub&lt;/div&gt;" style="aspect=fixed;html=1;perimeter=none;align=center;shadow=0;dashed=0;image;fontSize=12;image=img/lib/mscae/PersonWithFriend.svg;labelBackgroundColor=#ffffff;fillColor=#4D9900;" parent="1" vertex="1">
          <mxGeometry x="255" y="453" width="50" height="49.5" as="geometry" />
        </mxCell>
        <mxCell id="RLjyjs_sm2IHfBNOWAbh-41" value="On-Premises&lt;br&gt;Users" style="aspect=fixed;html=1;perimeter=none;align=center;shadow=0;dashed=0;image;fontSize=12;image=img/lib/mscae/PersonWithFriend.svg;labelBackgroundColor=#ffffff;fillColor=#4D9900;" parent="1" vertex="1">
          <mxGeometry x="255" y="586.7499999999999" width="50" height="49.5" as="geometry" />
        </mxCell>
        <mxCell id="RLjyjs_sm2IHfBNOWAbh-42" value="Express&lt;br&gt;Route" style="aspect=fixed;html=1;perimeter=none;align=center;shadow=0;dashed=0;image;fontSize=12;image=img/lib/mscae/Express_Route.svg;labelBackgroundColor=#ffffff;fillColor=#4D9900;" parent="1" vertex="1">
          <mxGeometry x="405" y="596.25" width="50" height="30.5" as="geometry" />
        </mxCell>
        <mxCell id="RLjyjs_sm2IHfBNOWAbh-43" value="VPN Gateway" style="shape=image;verticalLabelPosition=bottom;labelBackgroundColor=#ffffff;verticalAlign=top;aspect=fixed;imageAspect=0;image=data:image/svg+xml,PHN2ZyB4bWxuczpjYz0iaHR0cDovL2NyZWF0aXZlY29tbW9ucy5vcmcvbnMjIiB4bWxuczpkYz0iaHR0cDovL3B1cmwub3JnL2RjL2VsZW1lbnRzLzEuMS8iIHhtbG5zOmlua3NjYXBlPSJodHRwOi8vd3d3Lmlua3NjYXBlLm9yZy9uYW1lc3BhY2VzL2lua3NjYXBlIiB4bWxuczpyZGY9Imh0dHA6Ly93d3cudzMub3JnLzE5OTkvMDIvMjItcmRmLXN5bnRheC1ucyMiIHhtbG5zOnNvZGlwb2RpPSJodHRwOi8vc29kaXBvZGkuc291cmNlZm9yZ2UubmV0L0RURC9zb2RpcG9kaS0wLmR0ZCIgeG1sbnM6c3ZnPSJodHRwOi8vd3d3LnczLm9yZy8yMDAwL3N2ZyIgeG1sbnM9Imh0dHA6Ly93d3cudzMub3JnLzIwMDAvc3ZnIiB4bWxuczp4bGluaz0iaHR0cDovL3d3dy53My5vcmcvMTk5OS94bGluayIgdmVyc2lvbj0iMS4xIiBpZD0ic3ZnMTIyNzAiIGlua3NjYXBlOnZlcnNpb249IjAuOTIuMyAoMjQwNTU0NiwgMjAxOC0wMy0xMSkiIHNvZGlwb2RpOmRvY25hbWU9InZwbl9nYXRld2F5LnN2ZyIgeD0iMHB4IiB5PSIwcHgiIHZpZXdCb3g9IjAgMCA4OS42OSAxMDAuMTEiIHN0eWxlPSJlbmFibGUtYmFja2dyb3VuZDpuZXcgMCAwIDg5LjY5IDEwMC4xMTsiIHhtbDpzcGFjZT0icHJlc2VydmUiPiYjeGE7PHNvZGlwb2RpOm5hbWVkdmlldyBib3JkZXJjb2xvcj0iIzY2NjY2NiIgYm9yZGVyb3BhY2l0eT0iMSIgZml0LW1hcmdpbi1ib3R0b209IjAiIGZpdC1tYXJnaW4tbGVmdD0iMCIgZml0LW1hcmdpbi1yaWdodD0iMCIgZml0LW1hcmdpbi10b3A9IjAiIGdyaWR0b2xlcmFuY2U9IjEwIiBndWlkZXRvbGVyYW5jZT0iMTAiIGlkPSJuYW1lZHZpZXcxMjI3MiIgaW5rc2NhcGU6Y3VycmVudC1sYXllcj0ic3ZnMTIyNzAiIGlua3NjYXBlOmN4PSI1OS43OTYiIGlua3NjYXBlOmN5PSI2Ni43NDMzMzEiIGlua3NjYXBlOnBhZ2VvcGFjaXR5PSIwIiBpbmtzY2FwZTpwYWdlc2hhZG93PSIyIiBpbmtzY2FwZTp3aW5kb3ctaGVpZ2h0PSIxMDE3IiBpbmtzY2FwZTp3aW5kb3ctbWF4aW1pemVkPSIxIiBpbmtzY2FwZTp3aW5kb3ctd2lkdGg9IjE5MjAiIGlua3NjYXBlOndpbmRvdy14PSItOCIgaW5rc2NhcGU6d2luZG93LXk9Ii04IiBpbmtzY2FwZTp6b29tPSI1LjIxOTMxOTciIG9iamVjdHRvbGVyYW5jZT0iMTAiIHBhZ2Vjb2xvcj0iI2ZmZmZmZiIgc2hvd2dyaWQ9ImZhbHNlIj4mI3hhOwk8L3NvZGlwb2RpOm5hbWVkdmlldz4mI3hhOzxnIGlkPSJnMTIyNjgiIHRyYW5zZm9ybT0idHJhbnNsYXRlKC0xMi4yNCwtMTIuMjM1NzAzKSI+JiN4YTsJPHRpdGxlIGlkPSJ0aXRsZTEyMjQzIj5QYWdlLTE8L3RpdGxlPiYjeGE7CTxnIGlkPSJncm91cDk0MzQtMSIgdHJhbnNmb3JtPSJ0cmFuc2xhdGUoMTIuMjQsLTEyLjI0KSI+JiN4YTsJCTx0aXRsZSBpZD0idGl0bGUxMjI0NSI+VlBOIEdhdGV3YXk8L3RpdGxlPiYjeGE7CQk8ZyBpZD0ic2hhcGU5NDM1LTIiIHRyYW5zZm9ybT0idHJhbnNsYXRlKDEwLjYxMTIsLTYxLjI2NDQpIj4mI3hhOwkJCTx0aXRsZSBpZD0idGl0bGUxMjI0NyI+U2hlZXQuOTQzNTwvdGl0bGU+JiN4YTsJCQk8cGF0aCBpZD0icGF0aDEyMjQ5IiBpbmtzY2FwZTpjb25uZWN0b3ItY3VydmF0dXJlPSIwIiBzdHlsZT0iZmlsbDojQTBBMUEyOyIgZD0iTTY4LjQ3LDEyMi43OHYtNC40YzAtOC44MS0zLjItMTcuMDItOC44MS0yMi44MyAgICAgYy01LjItNi0xNi44MS05LjgxLTI1LjQyLTkuODFzLTIwLjIzLDMuODEtMjUuNDMsOS44MUMzLjQsMTAxLjM2LDAsMTA5LjU3LDAsMTE4LjM4djQuNGwxNS44MiwxLjgxdi00LjAxICAgICBjMC01LjIsMS44LTExLjgxLDQuOC0xNS4yMWMzLTMuNDEsOS40MS01LjAxLDEzLjYyLTUuMjFjNC4yLDAsMTAuNjEsMS44LDEzLjYxLDUuMjFjMywzLjQsNC44MSw3LjgsNC44MSwxMi44MXY2LjQxICAgICBMNjguNDcsMTIyLjc4eiIvPiYjeGE7CQk8L2c+JiN4YTsJCTxnIGlkPSJzaGFwZTk0MzYtNCI+JiN4YTsJCQk8dGl0bGUgaWQ9InRpdGxlMTIyNTIiPlNoZWV0Ljk0MzY8L3RpdGxlPiYjeGE7CQkJPHBhdGggaWQ9InBhdGgxMjI1NCIgaW5rc2NhcGU6Y29ubmVjdG9yLWN1cnZhdHVyZT0iMCIgc3R5bGU9ImZpbGw6IzU5QjREOTsiIGQ9Ik0xMC42MSw2MS41MkMyLjgsNjEuNTIsMCw2Ni4xMiwwLDcyLjEzdjQxLjg0ICAgICBjMCw1LjIxLDMuMiwxMC42Miw5LjIxLDEwLjYyaDcxLjI3YzYuODEsMCw5LjIxLTUuNDEsOS4yMS0xMC42MlY3Mi4xM2MwLTUuNDEtMi4yLTEwLjYxLTEwLjYxLTEwLjYxTDEwLjYxLDYxLjUyeiIvPiYjeGE7CQk8L2c+JiN4YTsJCTxnIGlkPSJzaGFwZTk0MzctNiI+JiN4YTsJCQk8dGl0bGUgaWQ9InRpdGxlMTIyNTciPlNoZWV0Ljk0Mzc8L3RpdGxlPiYjeGE7CQkJPHBhdGggaWQ9InBhdGgxMjI1OSIgaW5rc2NhcGU6Y29ubmVjdG9yLWN1cnZhdHVyZT0iMCIgc3R5bGU9ImZpbGw6I0ZGRkZGRjtmaWxsLW9wYWNpdHk6MC4xNTsiIGQ9Ik02My4wNyw2MS41MkgxMC42MSAgICAgQzIuOCw2MS41MiwwLDY2LjEyLDAsNzIuMTN2NDEuODRjMCw1LjIxLDMuMiwxMC42Miw5LjIxLDEwLjYyaDEzLjQxTDYzLjA3LDYxLjUyeiIvPiYjeGE7CQk8L2c+JiN4YTsJCTxnIGlkPSJzaGFwZTk0MzgtOCIgdHJhbnNmb3JtPSJ0cmFuc2xhdGUoMTEuNDEyLC01LjYwNTg5KSI+JiN4YTsJCQk8dGl0bGUgaWQ9InRpdGxlMTIyNjIiPlNoZWV0Ljk0Mzg8L3RpdGxlPiYjeGE7CQkJPHBhdGggaWQ9InBhdGgxMjI2NCIgaW5rc2NhcGU6Y29ubmVjdG9yLWN1cnZhdHVyZT0iMCIgc3R5bGU9ImZpbGw6I0ZGRkZGRjsiIGQ9Ik0yMS40Miw4NC4zNGwxMS42MS0xMS42MWwxMS42MiwxMS42MWgtOC4yMSAgICAgdjguNDFoLTcuMDF2LTguNDFDMjkuNDMsODQuMzQsMjEuNDIsODQuMzQsMjEuNDIsODQuMzR6IE0wLDEwMS45NnYtNi44MWgxMi4wMXYtOGwxMS4yMSwxMS4yMWwtMTEuMjEsMTEuMjF2LTcuODFIMFYxMDEuOTZ6ICAgICAgTTMzLjAzLDEyNC41OWwtMTEuODEtMTEuODJoOC4yMXYtOC4yMWg3LjAxdjguMjFoOC40MUwzMy4wMywxMjQuNTl6IE02Ni4wNywxMDEuOTZINTQuMDZ2OC4wMUw0Mi42NCw5OC41NmwxMS40Mi0xMS40MXY4aDEyLjAxICAgICBWMTAxLjk2eiIvPiYjeGE7CQk8L2c+JiN4YTsJPC9nPiYjeGE7PC9nPiYjeGE7PC9zdmc+;fillColor=#4D9900;" parent="1" vertex="1">
          <mxGeometry x="395" y="770" width="54" height="60" as="geometry" />
        </mxCell>
        <mxCell id="RLjyjs_sm2IHfBNOWAbh-44" value="Load Balancer" style="shape=image;verticalLabelPosition=bottom;labelBackgroundColor=#F5F5F5;verticalAlign=top;aspect=fixed;imageAspect=0;image=data:image/svg+xml,PHN2ZyB4bWxuczpkYz0iaHR0cDovL3B1cmwub3JnL2RjL2VsZW1lbnRzLzEuMS8iIHhtbG5zOmNjPSJodHRwOi8vY3JlYXRpdmVjb21tb25zLm9yZy9ucyMiIHhtbG5zOnJkZj0iaHR0cDovL3d3dy53My5vcmcvMTk5OS8wMi8yMi1yZGYtc3ludGF4LW5zIyIgeG1sbnM6c3ZnPSJodHRwOi8vd3d3LnczLm9yZy8yMDAwL3N2ZyIgeG1sbnM9Imh0dHA6Ly93d3cudzMub3JnLzIwMDAvc3ZnIiB4bWxuczpzb2RpcG9kaT0iaHR0cDovL3NvZGlwb2RpLnNvdXJjZWZvcmdlLm5ldC9EVEQvc29kaXBvZGktMC5kdGQiIHhtbG5zOmlua3NjYXBlPSJodHRwOi8vd3d3Lmlua3NjYXBlLm9yZy9uYW1lc3BhY2VzL2lua3NjYXBlIiB2ZXJzaW9uPSIxLjEiIGlkPSJzdmc4Mjg3OSIgaW5rc2NhcGU6dmVyc2lvbj0iMC45Mi4zICgyNDA1NTQ2LCAyMDE4LTAzLTExKSIgc29kaXBvZGk6ZG9jbmFtZT0ibG9hZF9iYWxhbmNlci5zdmciIHg9IjBweCIgeT0iMHB4IiB2aWV3Qm94PSIwIDAgMTAwLjMxIDEwMC4zMSIgeG1sOnNwYWNlPSJwcmVzZXJ2ZSIgd2lkdGg9IjEwMC4zMSIgaGVpZ2h0PSIxMDAuMzEiPjxtZXRhZGF0YSBpZD0ibWV0YWRhdGEyNDEyIj48cmRmOlJERj48Y2M6V29yayByZGY6YWJvdXQ9IiI+PGRjOmZvcm1hdD5pbWFnZS9zdmcreG1sPC9kYzpmb3JtYXQ+PGRjOnR5cGUgcmRmOnJlc291cmNlPSJodHRwOi8vcHVybC5vcmcvZGMvZGNtaXR5cGUvU3RpbGxJbWFnZSIvPjxkYzp0aXRsZS8+PC9jYzpXb3JrPjwvcmRmOlJERj48L21ldGFkYXRhPjxkZWZzIGlkPSJkZWZzMjQxMCIvPiYjeGE7PGZpbHRlciBpZD0iZmlsdGVyXzIiPiYjeGE7CTxmZUdhdXNzaWFuQmx1ciBpZD0iZmVHYXVzc2lhbkJsdXI4MjgzNiIgc3RkRGV2aWF0aW9uPSIyIi8+JiN4YTs8L2ZpbHRlcj4mI3hhOzxzb2RpcG9kaTpuYW1lZHZpZXcgYm9yZGVyY29sb3I9IiM2NjY2NjYiIGJvcmRlcm9wYWNpdHk9IjEiIGZpdC1tYXJnaW4tYm90dG9tPSIwIiBmaXQtbWFyZ2luLWxlZnQ9IjAiIGZpdC1tYXJnaW4tcmlnaHQ9IjAiIGZpdC1tYXJnaW4tdG9wPSIwIiBncmlkdG9sZXJhbmNlPSIxMCIgZ3VpZGV0b2xlcmFuY2U9IjEwIiBpZD0ibmFtZWR2aWV3ODI4ODEiIGlua3NjYXBlOmN1cnJlbnQtbGF5ZXI9InN2ZzgyODc5IiBpbmtzY2FwZTpjeD0iLTM2LjI2NDEyMyIgaW5rc2NhcGU6Y3k9IjQzLjM4OTQ1NSIgaW5rc2NhcGU6cGFnZW9wYWNpdHk9IjAiIGlua3NjYXBlOnBhZ2VzaGFkb3c9IjIiIGlua3NjYXBlOndpbmRvdy1oZWlnaHQ9IjEwMTciIGlua3NjYXBlOndpbmRvdy1tYXhpbWl6ZWQ9IjEiIGlua3NjYXBlOndpbmRvdy13aWR0aD0iMTkyMCIgaW5rc2NhcGU6d2luZG93LXg9Ii04IiBpbmtzY2FwZTp3aW5kb3cteT0iLTgiIGlua3NjYXBlOnpvb209IjUuMjEwODU3NiIgb2JqZWN0dG9sZXJhbmNlPSIxMCIgcGFnZWNvbG9yPSIjZmZmZmZmIiBzaG93Z3JpZD0iZmFsc2UiPiYjeGE7CTwvc29kaXBvZGk6bmFtZWR2aWV3PiYjeGE7JiN4YTs8cGF0aCBpZD0icGF0aDgyODQ5IiBpbmtzY2FwZTpjb25uZWN0b3ItY3VydmF0dXJlPSIwIiBzdHlsZT0iZmlsbDojN2ZiYTAwIiBkPSJtIDUwLjE1LDEwMC4zMSBjIC0yLjQ3LDAgLTQuNzksLTAuOTcgLTYuNTQsLTIuNzEgTCAyLjcxLDU2LjY5IEMgMC45OSw1NC45NyAwLDUyLjU5IDAsNTAuMTUgMCw0Ny43MiAwLjk5LDQ1LjMzIDIuNzEsNDMuNjEgTCA0My42MSwyLjcxIEMgNDUuMzYsMC45NiA0Ny42OCwwIDUwLjE1LDAgYyAyLjQ3LDAgNC44LDAuOTYgNi41NSwyLjcxIGwgNDAuODksNDAuOSBjIDEuNzUsMS43NCAyLjcyLDQuMDcgMi43Miw2LjU0IDAsMi40OCAtMC45Nyw0LjggLTIuNzIsNi41NSBMIDU2LjcsOTcuNiBjIC0xLjc1LDEuNzQgLTQuMDgsMi43MSAtNi41NSwyLjcxIHoiLz4mI3hhOyYjeGE7PHBhdGggaWQ9InBhdGg4Mjg1NyIgaW5rc2NhcGU6Y29ubmVjdG9yLWN1cnZhdHVyZT0iMCIgc3R5bGU9ImZpbGw6I2ZmZmZmZiIgZD0iTSA5MS41LDQ5LjQ4IDc4LjI0LDM2LjIxIHYgOS4zNyBMIDY0LjE2LDQ1LjU3IEMgNjIuOCw0MC43MiA1OSwzNi44OCA1NC4xNiwzNS41IFYgMjIuMDcgaCA5LjI2IEwgNTAuMTUsOC44MSAzNi44OSwyMi4wNyBoIDkuMjUgdiAxMy40MiBjIC00LjgzLDEuMzkgLTguNjMsNS4yMSAtOS45OSwxMC4wNSBMIDIyLjA3LDQ1LjUzIFYgMzYuMjYgTCA4LjgsNDkuNTMgMjIuMDcsNjIuNzkgdiAtOS4zNiBsIDE0LjA4LDAuMDEgYyAxLjM3LDQuODMgNS4xNyw4LjY0IDkuOTksMTAuMDIgdiA5LjMxIGMgLTIuMDEsMS40NiAtNS4wNyw0LjUzIC01LjA3LDguMSAwLDQuOTggNC4wOCw5LjAzIDkuMDUsOS4wMyA0Ljk4LDAgOS4wNSwtNC4wNSA5LjA1LC05LjAzIDAsLTMuNTMgLTMsLTYuNTcgLTUuMDEsLTguMDUgdiAtOS4zNiBjIDQuODIsLTEuMzggOC42MSwtNS4xOCA5Ljk4LC05Ljk5IGwgMTQuMSwwLjAxIHYgOS4yNiB6Ii8+JiN4YTsmI3hhOzxwYXRoIGlkPSJwYXRoODI4NjUiIGlua3NjYXBlOmNvbm5lY3Rvci1jdXJ2YXR1cmU9IjAiIHN0eWxlPSJmaWxsOiM1OWI0ZDkiIGQ9Im0gNTAuMTUsMzguOTMgYyAtNS44MiwwIC0xMC41NSw0LjczIC0xMC41NSwxMC41NSAwLDUuODIgNC43MywxMC41NSAxMC41NSwxMC41NSA1LjgxLDAgMTAuNTUsLTQuNzMgMTAuNTUsLTEwLjU1IDAsLTUuODIgLTQuNzQsLTEwLjU1IC0xMC41NSwtMTAuNTUgeiIvPiYjeGE7JiN4YTs8cGF0aCBpZD0icGF0aDgyODczIiBpbmtzY2FwZTpjb25uZWN0b3ItY3VydmF0dXJlPSIwIiBzdHlsZT0iZmlsbDojZmZmZmZmO2ZpbGwtb3BhY2l0eTowLjE1IiBkPSJNIDU2LjcsMi43MiBDIDU0Ljk1LDAuOTcgNTIuNjMsMCA1MC4xNSwwIDQ3LjY5LDAgNDUuMzYsMC45NyA0My42MSwyLjcyIEwgMi43MSw0My42MiBDIDAuOTksNDUuMzQgMCw0Ny43MiAwLDUwLjE2IDAsNTIuNTkgMC45OSw1NC45OCAyLjcxLDU2LjcgTCAyNS44Nyw3OS44NiA2OS40MywxNS40NSBaIi8+JiN4YTs8L3N2Zz4=;fillColor=#4D9900;" parent="1" vertex="1">
          <mxGeometry x="552.5" y="447.75" width="61" height="61" as="geometry" />
        </mxCell>
        <mxCell id="RLjyjs_sm2IHfBNOWAbh-50" value="Load Balancer" style="shape=image;verticalLabelPosition=bottom;labelBackgroundColor=#F5F5F5;verticalAlign=top;aspect=fixed;imageAspect=0;image=data:image/svg+xml,PHN2ZyB4bWxuczpkYz0iaHR0cDovL3B1cmwub3JnL2RjL2VsZW1lbnRzLzEuMS8iIHhtbG5zOmNjPSJodHRwOi8vY3JlYXRpdmVjb21tb25zLm9yZy9ucyMiIHhtbG5zOnJkZj0iaHR0cDovL3d3dy53My5vcmcvMTk5OS8wMi8yMi1yZGYtc3ludGF4LW5zIyIgeG1sbnM6c3ZnPSJodHRwOi8vd3d3LnczLm9yZy8yMDAwL3N2ZyIgeG1sbnM9Imh0dHA6Ly93d3cudzMub3JnLzIwMDAvc3ZnIiB4bWxuczpzb2RpcG9kaT0iaHR0cDovL3NvZGlwb2RpLnNvdXJjZWZvcmdlLm5ldC9EVEQvc29kaXBvZGktMC5kdGQiIHhtbG5zOmlua3NjYXBlPSJodHRwOi8vd3d3Lmlua3NjYXBlLm9yZy9uYW1lc3BhY2VzL2lua3NjYXBlIiB2ZXJzaW9uPSIxLjEiIGlkPSJzdmc4Mjg3OSIgaW5rc2NhcGU6dmVyc2lvbj0iMC45Mi4zICgyNDA1NTQ2LCAyMDE4LTAzLTExKSIgc29kaXBvZGk6ZG9jbmFtZT0ibG9hZF9iYWxhbmNlci5zdmciIHg9IjBweCIgeT0iMHB4IiB2aWV3Qm94PSIwIDAgMTAwLjMxIDEwMC4zMSIgeG1sOnNwYWNlPSJwcmVzZXJ2ZSIgd2lkdGg9IjEwMC4zMSIgaGVpZ2h0PSIxMDAuMzEiPjxtZXRhZGF0YSBpZD0ibWV0YWRhdGEyNDEyIj48cmRmOlJERj48Y2M6V29yayByZGY6YWJvdXQ9IiI+PGRjOmZvcm1hdD5pbWFnZS9zdmcreG1sPC9kYzpmb3JtYXQ+PGRjOnR5cGUgcmRmOnJlc291cmNlPSJodHRwOi8vcHVybC5vcmcvZGMvZGNtaXR5cGUvU3RpbGxJbWFnZSIvPjxkYzp0aXRsZS8+PC9jYzpXb3JrPjwvcmRmOlJERj48L21ldGFkYXRhPjxkZWZzIGlkPSJkZWZzMjQxMCIvPiYjeGE7PGZpbHRlciBpZD0iZmlsdGVyXzIiPiYjeGE7CTxmZUdhdXNzaWFuQmx1ciBpZD0iZmVHYXVzc2lhbkJsdXI4MjgzNiIgc3RkRGV2aWF0aW9uPSIyIi8+JiN4YTs8L2ZpbHRlcj4mI3hhOzxzb2RpcG9kaTpuYW1lZHZpZXcgYm9yZGVyY29sb3I9IiM2NjY2NjYiIGJvcmRlcm9wYWNpdHk9IjEiIGZpdC1tYXJnaW4tYm90dG9tPSIwIiBmaXQtbWFyZ2luLWxlZnQ9IjAiIGZpdC1tYXJnaW4tcmlnaHQ9IjAiIGZpdC1tYXJnaW4tdG9wPSIwIiBncmlkdG9sZXJhbmNlPSIxMCIgZ3VpZGV0b2xlcmFuY2U9IjEwIiBpZD0ibmFtZWR2aWV3ODI4ODEiIGlua3NjYXBlOmN1cnJlbnQtbGF5ZXI9InN2ZzgyODc5IiBpbmtzY2FwZTpjeD0iLTM2LjI2NDEyMyIgaW5rc2NhcGU6Y3k9IjQzLjM4OTQ1NSIgaW5rc2NhcGU6cGFnZW9wYWNpdHk9IjAiIGlua3NjYXBlOnBhZ2VzaGFkb3c9IjIiIGlua3NjYXBlOndpbmRvdy1oZWlnaHQ9IjEwMTciIGlua3NjYXBlOndpbmRvdy1tYXhpbWl6ZWQ9IjEiIGlua3NjYXBlOndpbmRvdy13aWR0aD0iMTkyMCIgaW5rc2NhcGU6d2luZG93LXg9Ii04IiBpbmtzY2FwZTp3aW5kb3cteT0iLTgiIGlua3NjYXBlOnpvb209IjUuMjEwODU3NiIgb2JqZWN0dG9sZXJhbmNlPSIxMCIgcGFnZWNvbG9yPSIjZmZmZmZmIiBzaG93Z3JpZD0iZmFsc2UiPiYjeGE7CTwvc29kaXBvZGk6bmFtZWR2aWV3PiYjeGE7JiN4YTs8cGF0aCBpZD0icGF0aDgyODQ5IiBpbmtzY2FwZTpjb25uZWN0b3ItY3VydmF0dXJlPSIwIiBzdHlsZT0iZmlsbDojN2ZiYTAwIiBkPSJtIDUwLjE1LDEwMC4zMSBjIC0yLjQ3LDAgLTQuNzksLTAuOTcgLTYuNTQsLTIuNzEgTCAyLjcxLDU2LjY5IEMgMC45OSw1NC45NyAwLDUyLjU5IDAsNTAuMTUgMCw0Ny43MiAwLjk5LDQ1LjMzIDIuNzEsNDMuNjEgTCA0My42MSwyLjcxIEMgNDUuMzYsMC45NiA0Ny42OCwwIDUwLjE1LDAgYyAyLjQ3LDAgNC44LDAuOTYgNi41NSwyLjcxIGwgNDAuODksNDAuOSBjIDEuNzUsMS43NCAyLjcyLDQuMDcgMi43Miw2LjU0IDAsMi40OCAtMC45Nyw0LjggLTIuNzIsNi41NSBMIDU2LjcsOTcuNiBjIC0xLjc1LDEuNzQgLTQuMDgsMi43MSAtNi41NSwyLjcxIHoiLz4mI3hhOyYjeGE7PHBhdGggaWQ9InBhdGg4Mjg1NyIgaW5rc2NhcGU6Y29ubmVjdG9yLWN1cnZhdHVyZT0iMCIgc3R5bGU9ImZpbGw6I2ZmZmZmZiIgZD0iTSA5MS41LDQ5LjQ4IDc4LjI0LDM2LjIxIHYgOS4zNyBMIDY0LjE2LDQ1LjU3IEMgNjIuOCw0MC43MiA1OSwzNi44OCA1NC4xNiwzNS41IFYgMjIuMDcgaCA5LjI2IEwgNTAuMTUsOC44MSAzNi44OSwyMi4wNyBoIDkuMjUgdiAxMy40MiBjIC00LjgzLDEuMzkgLTguNjMsNS4yMSAtOS45OSwxMC4wNSBMIDIyLjA3LDQ1LjUzIFYgMzYuMjYgTCA4LjgsNDkuNTMgMjIuMDcsNjIuNzkgdiAtOS4zNiBsIDE0LjA4LDAuMDEgYyAxLjM3LDQuODMgNS4xNyw4LjY0IDkuOTksMTAuMDIgdiA5LjMxIGMgLTIuMDEsMS40NiAtNS4wNyw0LjUzIC01LjA3LDguMSAwLDQuOTggNC4wOCw5LjAzIDkuMDUsOS4wMyA0Ljk4LDAgOS4wNSwtNC4wNSA5LjA1LC05LjAzIDAsLTMuNTMgLTMsLTYuNTcgLTUuMDEsLTguMDUgdiAtOS4zNiBjIDQuODIsLTEuMzggOC42MSwtNS4xOCA5Ljk4LC05Ljk5IGwgMTQuMSwwLjAxIHYgOS4yNiB6Ii8+JiN4YTsmI3hhOzxwYXRoIGlkPSJwYXRoODI4NjUiIGlua3NjYXBlOmNvbm5lY3Rvci1jdXJ2YXR1cmU9IjAiIHN0eWxlPSJmaWxsOiM1OWI0ZDkiIGQ9Im0gNTAuMTUsMzguOTMgYyAtNS44MiwwIC0xMC41NSw0LjczIC0xMC41NSwxMC41NSAwLDUuODIgNC43MywxMC41NSAxMC41NSwxMC41NSA1LjgxLDAgMTAuNTUsLTQuNzMgMTAuNTUsLTEwLjU1IDAsLTUuODIgLTQuNzQsLTEwLjU1IC0xMC41NSwtMTAuNTUgeiIvPiYjeGE7JiN4YTs8cGF0aCBpZD0icGF0aDgyODczIiBpbmtzY2FwZTpjb25uZWN0b3ItY3VydmF0dXJlPSIwIiBzdHlsZT0iZmlsbDojZmZmZmZmO2ZpbGwtb3BhY2l0eTowLjE1IiBkPSJNIDU2LjcsMi43MiBDIDU0Ljk1LDAuOTcgNTIuNjMsMCA1MC4xNSwwIDQ3LjY5LDAgNDUuMzYsMC45NyA0My42MSwyLjcyIEwgMi43MSw0My42MiBDIDAuOTksNDUuMzQgMCw0Ny43MiAwLDUwLjE2IDAsNTIuNTkgMC45OSw1NC45OCAyLjcxLDU2LjcgTCAyNS44Nyw3OS44NiA2OS40MywxNS40NSBaIi8+JiN4YTs8L3N2Zz4=;fillColor=#4D9900;" parent="1" vertex="1">
          <mxGeometry x="1136.5000000000005" y="447.25" width="61" height="61" as="geometry" />
        </mxCell>
        <mxCell id="RLjyjs_sm2IHfBNOWAbh-58" value="Virtual Network" style="aspect=fixed;html=1;perimeter=none;align=center;shadow=0;dashed=0;image;fontSize=12;image=img/lib/mscae/Virtual_Network.svg;labelBackgroundColor=none;fillColor=#4D9900;" parent="1" vertex="1">
          <mxGeometry x="1328.9999999999995" y="463.5" width="50" height="28.499999999999996" as="geometry" />
        </mxCell>
        <mxCell id="RLjyjs_sm2IHfBNOWAbh-64" value="Office 365" style="shadow=0;dashed=0;html=1;strokeColor=none;labelPosition=center;verticalLabelPosition=bottom;verticalAlign=top;align=center;shape=mxgraph.mscae.cloud.cloud_office_365;fillColor=#DF3C01;labelBackgroundColor=#ffffff;" parent="1" vertex="1">
          <mxGeometry x="563.5" y="968" width="64" height="40" as="geometry" />
        </mxCell>
        <mxCell id="RLjyjs_sm2IHfBNOWAbh-65" value="Synchronize&lt;br&gt;Identities" style="shadow=0;dashed=0;html=1;strokeColor=none;labelPosition=center;verticalLabelPosition=bottom;verticalAlign=top;align=center;shape=mxgraph.mscae.general.continuous_cycle;fillColor=#7D7D7D;pointerEvents=1;labelBackgroundColor=#ffffff;" parent="1" vertex="1">
          <mxGeometry x="718" y="963" width="48" height="50" as="geometry" />
        </mxCell>
        <mxCell id="RLjyjs_sm2IHfBNOWAbh-66" value="Active&lt;br&gt;Directory" style="aspect=fixed;html=1;perimeter=none;align=center;shadow=0;dashed=0;image;fontSize=12;image=img/lib/mscae/Active_Directory.svg;labelBackgroundColor=#ffffff;fillColor=#4D9900;" parent="1" vertex="1">
          <mxGeometry x="717" y="1088" width="50" height="50" as="geometry" />
        </mxCell>
        <mxCell id="RLjyjs_sm2IHfBNOWAbh-68" value="Azure Access&lt;br&gt;Control Service" style="pointerEvents=1;shadow=0;dashed=0;html=1;strokeColor=none;labelPosition=center;verticalLabelPosition=bottom;verticalAlign=top;align=center;shape=mxgraph.azure.access_control;fillColor=#0078D7;labelBackgroundColor=#ffffff;" parent="1" vertex="1">
          <mxGeometry x="942.4999999999998" y="1088" width="50" height="50" as="geometry" />
        </mxCell>
        <mxCell id="RLjyjs_sm2IHfBNOWAbh-70" value="" style="group" parent="1" vertex="1" connectable="0">
          <mxGeometry x="928.9999999999999" y="580" width="77" height="63" as="geometry" />
        </mxCell>
        <mxCell id="RLjyjs_sm2IHfBNOWAbh-51" value="" style="aspect=fixed;html=1;perimeter=none;align=center;shadow=0;dashed=0;image;fontSize=12;image=img/lib/mscae/Virtual_Machine.svg;labelBackgroundColor=#ffffff;fillColor=#4D9900;part=1;" parent="RLjyjs_sm2IHfBNOWAbh-70" vertex="1">
          <mxGeometry width="60" height="55" as="geometry" />
        </mxCell>
        <mxCell id="RLjyjs_sm2IHfBNOWAbh-59" value="" style="aspect=fixed;html=1;perimeter=none;align=center;shadow=0;dashed=0;image;fontSize=12;image=img/lib/mscae/SQL_Database_generic.svg;labelBackgroundColor=#ffffff;fillColor=#4D9900;part=1;" parent="RLjyjs_sm2IHfBNOWAbh-70" vertex="1">
          <mxGeometry x="51" y="28" width="26" height="35" as="geometry" />
        </mxCell>
        <mxCell id="RLjyjs_sm2IHfBNOWAbh-71" value="" style="group" parent="1" vertex="1" connectable="0">
          <mxGeometry x="1137.0000000000005" y="582.5" width="74" height="58" as="geometry" />
        </mxCell>
        <mxCell id="RLjyjs_sm2IHfBNOWAbh-52" value="" style="aspect=fixed;html=1;perimeter=none;align=center;shadow=0;dashed=0;image;fontSize=12;image=img/lib/mscae/Virtual_Machine.svg;labelBackgroundColor=#ffffff;fillColor=#4D9900;part=1;" parent="RLjyjs_sm2IHfBNOWAbh-71" vertex="1">
          <mxGeometry width="60" height="55" as="geometry" />
        </mxCell>
        <mxCell id="RLjyjs_sm2IHfBNOWAbh-63" value="" style="shadow=0;dashed=0;strokeColor=none;html=1;labelPosition=center;verticalLabelPosition=bottom;verticalAlign=top;align=center;shape=mxgraph.mscae.other.windows;fillColor=#00188D;labelBackgroundColor=#ffffff;aspect=fixed;part=1;" parent="RLjyjs_sm2IHfBNOWAbh-71" vertex="1">
          <mxGeometry x="46" y="29" width="28" height="29" as="geometry" />
        </mxCell>
        <mxCell id="RLjyjs_sm2IHfBNOWAbh-81" value="" style="group" parent="1" vertex="1" connectable="0">
          <mxGeometry x="1315.4999999999995" y="580" width="77" height="63" as="geometry" />
        </mxCell>
        <mxCell id="RLjyjs_sm2IHfBNOWAbh-82" value="" style="aspect=fixed;html=1;perimeter=none;align=center;shadow=0;dashed=0;image;fontSize=12;image=img/lib/mscae/Virtual_Machine.svg;labelBackgroundColor=#ffffff;fillColor=#4D9900;part=1;" parent="RLjyjs_sm2IHfBNOWAbh-81" vertex="1">
          <mxGeometry width="60" height="55" as="geometry" />
        </mxCell>
        <mxCell id="RLjyjs_sm2IHfBNOWAbh-83" value="" style="aspect=fixed;html=1;perimeter=none;align=center;shadow=0;dashed=0;image;fontSize=12;image=img/lib/mscae/SQL_Database_generic.svg;labelBackgroundColor=#ffffff;fillColor=#4D9900;part=1;" parent="RLjyjs_sm2IHfBNOWAbh-81" vertex="1">
          <mxGeometry x="51" y="28" width="26" height="35" as="geometry" />
        </mxCell>
        <mxCell id="RLjyjs_sm2IHfBNOWAbh-85" value="" style="group" parent="1" vertex="1" connectable="0">
          <mxGeometry x="759.5" y="582.5" width="85" height="58" as="geometry" />
        </mxCell>
        <mxCell id="RLjyjs_sm2IHfBNOWAbh-86" value="" style="aspect=fixed;html=1;perimeter=none;align=center;shadow=0;dashed=0;image;fontSize=12;image=img/lib/mscae/Virtual_Machine.svg;labelBackgroundColor=#ffffff;fillColor=#4D9900;part=1;" parent="RLjyjs_sm2IHfBNOWAbh-85" vertex="1">
          <mxGeometry width="60" height="55" as="geometry" />
        </mxCell>
        <mxCell id="RLjyjs_sm2IHfBNOWAbh-87" value="" style="shadow=0;dashed=0;strokeColor=none;html=1;labelPosition=center;verticalLabelPosition=bottom;verticalAlign=top;align=center;shape=mxgraph.mscae.other.sharepoint;fillColor=#2471BA;labelBackgroundColor=#ffffff;aspect=fixed;part=1;" parent="RLjyjs_sm2IHfBNOWAbh-85" vertex="1">
          <mxGeometry x="54" y="28" width="31" height="30" as="geometry" />
        </mxCell>
        <mxCell id="RLjyjs_sm2IHfBNOWAbh-88" value="" style="group" parent="1" vertex="1" connectable="0">
          <mxGeometry x="553" y="771" width="85" height="58" as="geometry" />
        </mxCell>
        <mxCell id="RLjyjs_sm2IHfBNOWAbh-89" value="" style="aspect=fixed;html=1;perimeter=none;align=center;shadow=0;dashed=0;image;fontSize=12;image=img/lib/mscae/Virtual_Machine.svg;labelBackgroundColor=#ffffff;fillColor=#4D9900;part=1;" parent="RLjyjs_sm2IHfBNOWAbh-88" vertex="1">
          <mxGeometry width="60" height="55" as="geometry" />
        </mxCell>
        <mxCell id="RLjyjs_sm2IHfBNOWAbh-90" value="" style="shadow=0;dashed=0;strokeColor=none;html=1;labelPosition=center;verticalLabelPosition=bottom;verticalAlign=top;align=center;shape=mxgraph.mscae.other.sharepoint;fillColor=#2471BA;labelBackgroundColor=#ffffff;aspect=fixed;part=1;" parent="RLjyjs_sm2IHfBNOWAbh-88" vertex="1">
          <mxGeometry x="54" y="28" width="31" height="30" as="geometry" />
        </mxCell>
        <mxCell id="RLjyjs_sm2IHfBNOWAbh-91" value="" style="group" parent="1" vertex="1" connectable="0">
          <mxGeometry x="759.5000000000002" y="771" width="85" height="58" as="geometry" />
        </mxCell>
        <mxCell id="RLjyjs_sm2IHfBNOWAbh-92" value="" style="aspect=fixed;html=1;perimeter=none;align=center;shadow=0;dashed=0;image;fontSize=12;image=img/lib/mscae/Virtual_Machine.svg;labelBackgroundColor=#ffffff;fillColor=#4D9900;part=1;" parent="RLjyjs_sm2IHfBNOWAbh-91" vertex="1">
          <mxGeometry width="60" height="55" as="geometry" />
        </mxCell>
        <mxCell id="RLjyjs_sm2IHfBNOWAbh-93" value="" style="shadow=0;dashed=0;strokeColor=none;html=1;labelPosition=center;verticalLabelPosition=bottom;verticalAlign=top;align=center;shape=mxgraph.mscae.other.sharepoint;fillColor=#2471BA;labelBackgroundColor=#ffffff;aspect=fixed;part=1;" parent="RLjyjs_sm2IHfBNOWAbh-91" vertex="1">
          <mxGeometry x="54" y="28" width="31" height="30" as="geometry" />
        </mxCell>
        <mxCell id="RLjyjs_sm2IHfBNOWAbh-94" value="" style="group" parent="1" vertex="1" connectable="0">
          <mxGeometry x="930.4999999999994" y="771" width="74" height="58" as="geometry" />
        </mxCell>
        <mxCell id="RLjyjs_sm2IHfBNOWAbh-95" value="" style="aspect=fixed;html=1;perimeter=none;align=center;shadow=0;dashed=0;image;fontSize=12;image=img/lib/mscae/Virtual_Machine.svg;labelBackgroundColor=#ffffff;fillColor=#4D9900;part=1;" parent="RLjyjs_sm2IHfBNOWAbh-94" vertex="1">
          <mxGeometry width="60" height="55" as="geometry" />
        </mxCell>
        <mxCell id="RLjyjs_sm2IHfBNOWAbh-96" value="" style="shadow=0;dashed=0;strokeColor=none;html=1;labelPosition=center;verticalLabelPosition=bottom;verticalAlign=top;align=center;shape=mxgraph.mscae.other.windows;fillColor=#00188D;labelBackgroundColor=#ffffff;aspect=fixed;part=1;" parent="RLjyjs_sm2IHfBNOWAbh-94" vertex="1">
          <mxGeometry x="46" y="29" width="28" height="29" as="geometry" />
        </mxCell>
        <mxCell id="RLjyjs_sm2IHfBNOWAbh-97" value="" style="group" parent="1" vertex="1" connectable="0">
          <mxGeometry x="1316.9999999999998" y="771" width="74" height="58" as="geometry" />
        </mxCell>
        <mxCell id="RLjyjs_sm2IHfBNOWAbh-98" value="" style="aspect=fixed;html=1;perimeter=none;align=center;shadow=0;dashed=0;image;fontSize=12;image=img/lib/mscae/Virtual_Machine.svg;labelBackgroundColor=#ffffff;fillColor=#4D9900;part=1;" parent="RLjyjs_sm2IHfBNOWAbh-97" vertex="1">
          <mxGeometry width="60" height="55" as="geometry" />
        </mxCell>
        <mxCell id="RLjyjs_sm2IHfBNOWAbh-99" value="" style="shadow=0;dashed=0;strokeColor=none;html=1;labelPosition=center;verticalLabelPosition=bottom;verticalAlign=top;align=center;shape=mxgraph.mscae.other.windows;fillColor=#00188D;labelBackgroundColor=#ffffff;aspect=fixed;part=1;" parent="RLjyjs_sm2IHfBNOWAbh-97" vertex="1">
          <mxGeometry x="46" y="29" width="28" height="29" as="geometry" />
        </mxCell>
        <mxCell id="RLjyjs_sm2IHfBNOWAbh-100" value="" style="group" parent="1" vertex="1" connectable="0">
          <mxGeometry x="930.4999999999994" y="959" width="74" height="65.49999999999994" as="geometry" />
        </mxCell>
        <mxCell id="RLjyjs_sm2IHfBNOWAbh-101" value="Azure Active&lt;br&gt;Directory Connect" style="aspect=fixed;html=1;perimeter=none;align=center;shadow=0;dashed=0;image;fontSize=12;image=img/lib/mscae/Virtual_Machine.svg;labelBackgroundColor=#ffffff;fillColor=#4D9900;part=1;" parent="RLjyjs_sm2IHfBNOWAbh-100" vertex="1">
          <mxGeometry y="10.499999999999947" width="60" height="55" as="geometry" />
        </mxCell>
        <mxCell id="RLjyjs_sm2IHfBNOWAbh-102" value="" style="shadow=0;dashed=0;strokeColor=none;html=1;labelPosition=center;verticalLabelPosition=bottom;verticalAlign=top;align=center;shape=mxgraph.mscae.other.windows;fillColor=#00188D;labelBackgroundColor=#ffffff;aspect=fixed;part=1;" parent="RLjyjs_sm2IHfBNOWAbh-100" vertex="1">
          <mxGeometry x="46" y="23.49999999999984" width="28" height="29" as="geometry" />
        </mxCell>
        <mxCell id="RLjyjs_sm2IHfBNOWAbh-103" value="Active Directory" style="group;labelPosition=center;verticalLabelPosition=bottom;align=center;verticalAlign=top;" parent="1" vertex="1" connectable="0">
          <mxGeometry x="1088.5000000000005" y="959" width="74" height="70.49999999999994" as="geometry" />
        </mxCell>
        <mxCell id="RLjyjs_sm2IHfBNOWAbh-104" value="" style="aspect=fixed;html=1;perimeter=none;align=center;shadow=0;dashed=0;image;fontSize=12;image=img/lib/mscae/Virtual_Machine.svg;labelBackgroundColor=#ffffff;fillColor=#4D9900;part=1;" parent="RLjyjs_sm2IHfBNOWAbh-103" vertex="1">
          <mxGeometry y="15.499999999999947" width="60" height="55" as="geometry" />
        </mxCell>
        <mxCell id="RLjyjs_sm2IHfBNOWAbh-105" value="" style="shadow=0;dashed=0;strokeColor=none;html=1;labelPosition=center;verticalLabelPosition=bottom;verticalAlign=top;align=center;shape=mxgraph.mscae.other.windows;fillColor=#00188D;labelBackgroundColor=#ffffff;aspect=fixed;part=1;" parent="RLjyjs_sm2IHfBNOWAbh-103" vertex="1">
          <mxGeometry x="46" y="28.49999999999984" width="28" height="29" as="geometry" />
        </mxCell>
        <mxCell id="RLjyjs_sm2IHfBNOWAbh-106" value="Active Directory&#xa;with ADFS" style="group;labelPosition=center;verticalLabelPosition=bottom;align=center;verticalAlign=top;spacingTop=3;labelBackgroundColor=#ffffff;" parent="1" vertex="1" connectable="0">
          <mxGeometry x="1316.9999999999998" y="959" width="74" height="67.99999999999994" as="geometry" />
        </mxCell>
        <mxCell id="RLjyjs_sm2IHfBNOWAbh-107" value="" style="aspect=fixed;html=1;perimeter=none;align=center;shadow=0;dashed=0;image;fontSize=12;image=img/lib/mscae/Virtual_Machine.svg;labelBackgroundColor=#ffffff;fillColor=#4D9900;part=1;" parent="RLjyjs_sm2IHfBNOWAbh-106" vertex="1">
          <mxGeometry y="12.999999999999947" width="60" height="55" as="geometry" />
        </mxCell>
        <mxCell id="RLjyjs_sm2IHfBNOWAbh-108" value="" style="shadow=0;dashed=0;strokeColor=none;html=1;labelPosition=center;verticalLabelPosition=bottom;verticalAlign=top;align=center;shape=mxgraph.mscae.other.windows;fillColor=#00188D;labelBackgroundColor=#ffffff;aspect=fixed;part=1;" parent="RLjyjs_sm2IHfBNOWAbh-106" vertex="1">
          <mxGeometry x="46" y="25.99999999999984" width="28" height="29" as="geometry" />
        </mxCell>
        <mxCell id="RLjyjs_sm2IHfBNOWAbh-69" value="" style="group" parent="1" vertex="1" connectable="0">
          <mxGeometry x="553" y="582.5" width="85" height="58" as="geometry" />
        </mxCell>
        <mxCell id="RLjyjs_sm2IHfBNOWAbh-47" value="" style="aspect=fixed;html=1;perimeter=none;align=center;shadow=0;dashed=0;image;fontSize=12;image=img/lib/mscae/Virtual_Machine.svg;labelBackgroundColor=#ffffff;fillColor=#4D9900;part=1;" parent="RLjyjs_sm2IHfBNOWAbh-69" vertex="1">
          <mxGeometry width="60" height="55" as="geometry" />
        </mxCell>
        <mxCell id="RLjyjs_sm2IHfBNOWAbh-60" value="" style="shadow=0;dashed=0;strokeColor=none;html=1;labelPosition=center;verticalLabelPosition=bottom;verticalAlign=top;align=center;shape=mxgraph.mscae.other.sharepoint;fillColor=#2471BA;labelBackgroundColor=#ffffff;aspect=fixed;part=1;" parent="RLjyjs_sm2IHfBNOWAbh-69" vertex="1">
          <mxGeometry x="54" y="28" width="31" height="30" as="geometry" />
        </mxCell>
        <mxCell id="RLjyjs_sm2IHfBNOWAbh-110" style="edgeStyle=elbowEdgeStyle;rounded=0;orthogonalLoop=1;jettySize=auto;elbow=vertical;html=1;exitX=0.25;exitY=0;exitDx=0;exitDy=0;strokeColor=#808080;" parent="RLjyjs_sm2IHfBNOWAbh-69" source="RLjyjs_sm2IHfBNOWAbh-47" target="RLjyjs_sm2IHfBNOWAbh-47" edge="1">
          <mxGeometry relative="1" as="geometry" />
        </mxCell>
        <mxCell id="RLjyjs_sm2IHfBNOWAbh-114" value="Web Front End&lt;br&gt;with Distributed&lt;br&gt;Cache" style="text;html=1;resizable=0;points=[];autosize=1;align=center;verticalAlign=top;spacingTop=-4;" parent="1" vertex="1">
          <mxGeometry x="640" y="588" width="100" height="40" as="geometry" />
        </mxCell>
        <mxCell id="RLjyjs_sm2IHfBNOWAbh-115" value="Application&lt;br&gt;with Search" style="text;html=1;resizable=0;points=[];autosize=1;align=center;verticalAlign=top;spacingTop=-4;" parent="1" vertex="1">
          <mxGeometry x="650" y="779" width="80" height="30" as="geometry" />
        </mxCell>
        <mxCell id="RLjyjs_sm2IHfBNOWAbh-116" value="Availability Set" style="text;html=1;resizable=0;points=[];autosize=1;align=center;verticalAlign=top;spacingTop=-4;" parent="1" vertex="1">
          <mxGeometry x="645" y="859" width="90" height="20" as="geometry" />
        </mxCell>
        <mxCell id="RLjyjs_sm2IHfBNOWAbh-117" value="SQL-Always On with&lt;br&gt;Windows Server as Windows" style="text;html=1;resizable=0;points=[];autosize=1;align=center;verticalAlign=top;spacingTop=-4;" parent="1" vertex="1">
          <mxGeometry x="1089" y="643" width="170" height="30" as="geometry" />
        </mxCell>
        <mxCell id="RLjyjs_sm2IHfBNOWAbh-118" value="Availability Set" style="text;html=1;resizable=0;points=[];autosize=1;align=center;verticalAlign=top;spacingTop=-4;" parent="1" vertex="1">
          <mxGeometry x="1111" y="718" width="90" height="20" as="geometry" />
        </mxCell>
        <mxCell id="RLjyjs_sm2IHfBNOWAbh-119" value="Availability Set" style="text;html=1;resizable=0;points=[];autosize=1;align=center;verticalAlign=top;spacingTop=-4;" parent="1" vertex="1">
          <mxGeometry x="1111" y="859" width="90" height="20" as="geometry" />
        </mxCell>
        <mxCell id="RLjyjs_sm2IHfBNOWAbh-120" value="Active Directory" style="text;html=1;resizable=0;points=[];autosize=1;align=center;verticalAlign=top;spacingTop=-4;" parent="1" vertex="1">
          <mxGeometry x="1111" y="805" width="100" height="20" as="geometry" />
        </mxCell>
        <mxCell id="RLjyjs_sm2IHfBNOWAbh-121" value="Server-to-Server Trust" style="text;html=1;resizable=0;points=[];autosize=1;align=left;verticalAlign=top;spacingTop=-4;" parent="1" vertex="1">
          <mxGeometry x="1129" y="1088" width="130" height="20" as="geometry" />
        </mxCell>
        <mxCell id="RLjyjs_sm2IHfBNOWAbh-122" value="9" style="ellipse;whiteSpace=wrap;html=1;aspect=fixed;fillColor=#4D9900;strokeColor=none;labelBackgroundColor=none;" parent="1" vertex="1">
          <mxGeometry x="315" y="441.5" width="23" height="23" as="geometry" />
        </mxCell>
        <mxCell id="RLjyjs_sm2IHfBNOWAbh-123" value="1" style="ellipse;whiteSpace=wrap;html=1;aspect=fixed;fillColor=#4D9900;strokeColor=none;labelBackgroundColor=none;" parent="1" vertex="1">
          <mxGeometry x="626" y="436" width="23" height="23" as="geometry" />
        </mxCell>
        <mxCell id="RLjyjs_sm2IHfBNOWAbh-124" value="8" style="ellipse;whiteSpace=wrap;html=1;aspect=fixed;fillColor=#4D9900;strokeColor=none;labelBackgroundColor=none;" parent="1" vertex="1">
          <mxGeometry x="449" y="755.5" width="23" height="23" as="geometry" />
        </mxCell>
        <mxCell id="RLjyjs_sm2IHfBNOWAbh-125" value="5" style="ellipse;whiteSpace=wrap;html=1;aspect=fixed;fillColor=#4D9900;strokeColor=none;labelBackgroundColor=none;" parent="1" vertex="1">
          <mxGeometry x="679" y="698" width="23" height="23" as="geometry" />
        </mxCell>
        <mxCell id="RLjyjs_sm2IHfBNOWAbh-126" value="Availability Set" style="text;html=1;resizable=0;points=[];autosize=1;align=center;verticalAlign=top;spacingTop=-4;" parent="1" vertex="1">
          <mxGeometry x="645" y="678" width="90" height="20" as="geometry" />
        </mxCell>
        <mxCell id="RLjyjs_sm2IHfBNOWAbh-127" value="10" style="ellipse;whiteSpace=wrap;html=1;aspect=fixed;fillColor=#4D9900;strokeColor=none;labelBackgroundColor=none;" parent="1" vertex="1">
          <mxGeometry x="627.5" y="951.5" width="23" height="23" as="geometry" />
        </mxCell>
        <mxCell id="RLjyjs_sm2IHfBNOWAbh-128" value="6" style="ellipse;whiteSpace=wrap;html=1;aspect=fixed;fillColor=#4D9900;strokeColor=none;labelBackgroundColor=none;" parent="1" vertex="1">
          <mxGeometry x="1003" y="951.5" width="23" height="23" as="geometry" />
        </mxCell>
        <mxCell id="RLjyjs_sm2IHfBNOWAbh-129" value="7" style="ellipse;whiteSpace=wrap;html=1;aspect=fixed;fillColor=#4D9900;strokeColor=none;labelBackgroundColor=none;" parent="1" vertex="1">
          <mxGeometry x="1392.5" y="951.5" width="23" height="23" as="geometry" />
        </mxCell>
        <mxCell id="RLjyjs_sm2IHfBNOWAbh-130" value="3" style="ellipse;whiteSpace=wrap;html=1;aspect=fixed;fillColor=#4D9900;strokeColor=none;labelBackgroundColor=none;" parent="1" vertex="1">
          <mxGeometry x="1004.5" y="745" width="23" height="23" as="geometry" />
        </mxCell>
        <mxCell id="RLjyjs_sm2IHfBNOWAbh-131" value="4" style="ellipse;whiteSpace=wrap;html=1;aspect=fixed;fillColor=#4D9900;strokeColor=none;labelBackgroundColor=none;" parent="1" vertex="1">
          <mxGeometry x="1003" y="559.5" width="23" height="23" as="geometry" />
        </mxCell>
        <mxCell id="RLjyjs_sm2IHfBNOWAbh-132" value="2" style="ellipse;whiteSpace=wrap;html=1;aspect=fixed;fillColor=#4D9900;strokeColor=none;labelBackgroundColor=none;" parent="1" vertex="1">
          <mxGeometry x="1375.5" y="447.5" width="23" height="23" as="geometry" />
        </mxCell>
        <mxCell id="8DieQMmsyX2rE4fabxvS-1" value="" style="rounded=0;whiteSpace=wrap;html=1;fillColor=#EAEDED;fontSize=22;fontColor=#FFFFFF;strokeColor=none;labelBackgroundColor=none;" parent="1" vertex="1">
          <mxGeometry x="1573.5" y="222" width="539" height="1209" as="geometry" />
        </mxCell>
        <mxCell id="8DieQMmsyX2rE4fabxvS-2" value="&lt;span&gt;Lorem ipsum dolor sit amet, consectetur adipiscing elit, sed do eiusmod tempor incididunt ut labore et dolore magna aliqua. Ut enim ad minim veniam, quis nostrud exercitation ullamco laboris nisi ut aliquip ex ea commodo consequat. Duis aute irure dolor in reprehenderit in voluptate velit esse cillum dolore eu fugiat nulla pariatur. Excepteur sint occaecat cupidatat non proident, sunt in culpa qui officia deserunt mollit anim id est laborum.&lt;/span&gt;&lt;br&gt;" style="text;html=1;align=left;verticalAlign=top;spacingTop=-4;fontSize=14;labelBackgroundColor=none;whiteSpace=wrap;" parent="1" vertex="1">
          <mxGeometry x="1643" y="233" width="449" height="118" as="geometry" />
        </mxCell>
        <mxCell id="8DieQMmsyX2rE4fabxvS-3" value="&lt;span&gt;Lorem ipsum dolor sit amet, consectetur adipiscing elit, sed do eiusmod tempor incididunt ut labore et dolore magna aliqua. Ut enim ad minim veniam, quis nostrud exercitation ullamco laboris nisi ut aliquip ex ea commodo consequat. Duis aute irure dolor in reprehenderit in voluptate velit esse cillum dolore eu fugiat nulla pariatur. Excepteur sint occaecat cupidatat non proident, sunt in culpa qui officia deserunt mollit anim id est laborum.&lt;/span&gt;&lt;br&gt;" style="text;html=1;align=left;verticalAlign=top;spacingTop=-4;fontSize=14;labelBackgroundColor=none;whiteSpace=wrap;" parent="1" vertex="1">
          <mxGeometry x="1642" y="356" width="450" height="115" as="geometry" />
        </mxCell>
        <mxCell id="8DieQMmsyX2rE4fabxvS-4" value="&lt;span&gt;Lorem ipsum dolor sit amet, consectetur adipiscing elit, sed do eiusmod tempor incididunt ut labore et dolore magna aliqua. Ut enim ad minim veniam, quis nostrud exercitation ullamco laboris nisi ut aliquip ex ea commodo consequat. Duis aute irure dolor in reprehenderit in voluptate velit esse cillum dolore eu fugiat nulla pariatur. Excepteur sint occaecat cupidatat non proident, sunt in culpa qui officia deserunt mollit anim id est laborum.&lt;/span&gt;&lt;br&gt;" style="text;html=1;align=left;verticalAlign=top;spacingTop=-4;fontSize=14;labelBackgroundColor=none;whiteSpace=wrap;" parent="1" vertex="1">
          <mxGeometry x="1642" y="474" width="450" height="117" as="geometry" />
        </mxCell>
        <mxCell id="8DieQMmsyX2rE4fabxvS-5" value="&lt;span&gt;Lorem ipsum dolor sit amet, consectetur adipiscing elit, sed do eiusmod tempor incididunt ut labore et dolore magna aliqua. Ut enim ad minim veniam, quis nostrud exercitation ullamco laboris nisi ut aliquip ex ea commodo consequat. Duis aute irure dolor in reprehenderit in voluptate velit esse cillum dolore eu fugiat nulla pariatur. Excepteur sint occaecat cupidatat non proident, sunt in culpa qui officia deserunt mollit anim id est laborum.&lt;/span&gt;&lt;br&gt;" style="text;html=1;align=left;verticalAlign=top;spacingTop=-4;fontSize=14;labelBackgroundColor=none;whiteSpace=wrap;" parent="1" vertex="1">
          <mxGeometry x="1642" y="590" width="450" height="121" as="geometry" />
        </mxCell>
        <mxCell id="8DieQMmsyX2rE4fabxvS-6" value="&lt;span&gt;Lorem ipsum dolor sit amet, consectetur adipiscing elit, sed do eiusmod tempor incididunt ut labore et dolore magna aliqua. Ut enim ad minim veniam, quis nostrud exercitation ullamco laboris nisi ut aliquip ex ea commodo consequat. Duis aute irure dolor in reprehenderit in voluptate velit esse cillum dolore eu fugiat nulla pariatur. Excepteur sint occaecat cupidatat non proident, sunt in culpa qui officia deserunt mollit anim id est laborum.&lt;/span&gt;&lt;br&gt;" style="text;html=1;align=left;verticalAlign=top;spacingTop=-4;fontSize=14;labelBackgroundColor=none;whiteSpace=wrap;" parent="1" vertex="1">
          <mxGeometry x="1643" y="707" width="449" height="114" as="geometry" />
        </mxCell>
        <mxCell id="8DieQMmsyX2rE4fabxvS-7" value="&lt;span&gt;Lorem ipsum dolor sit amet, consectetur adipiscing elit, sed do eiusmod tempor incididunt ut labore et dolore magna aliqua. Ut enim ad minim veniam, quis nostrud exercitation ullamco laboris nisi ut aliquip ex ea commodo consequat. Duis aute irure dolor in reprehenderit in voluptate velit esse cillum dolore eu fugiat nulla pariatur. Excepteur sint occaecat cupidatat non proident, sunt in culpa qui officia deserunt mollit anim id est laborum.&lt;/span&gt;&lt;br&gt;" style="text;html=1;align=left;verticalAlign=top;spacingTop=-4;fontSize=14;labelBackgroundColor=none;whiteSpace=wrap;" parent="1" vertex="1">
          <mxGeometry x="1643" y="823" width="450" height="118" as="geometry" />
        </mxCell>
        <mxCell id="8DieQMmsyX2rE4fabxvS-8" value="&lt;span&gt;Lorem ipsum dolor sit amet, consectetur adipiscing elit, sed do eiusmod tempor incididunt ut labore et dolore magna aliqua. Ut enim ad minim veniam, quis nostrud exercitation ullamco laboris nisi ut aliquip ex ea commodo consequat. Duis aute irure dolor in reprehenderit in voluptate velit esse cillum dolore eu fugiat nulla pariatur. Excepteur sint occaecat cupidatat non proident, sunt in culpa qui officia deserunt mollit anim id est laborum.&lt;/span&gt;&lt;br&gt;" style="text;html=1;align=left;verticalAlign=top;spacingTop=-4;fontSize=14;labelBackgroundColor=none;whiteSpace=wrap;" parent="1" vertex="1">
          <mxGeometry x="1643" y="938" width="449" height="113" as="geometry" />
        </mxCell>
        <mxCell id="8DieQMmsyX2rE4fabxvS-9" value="1" style="ellipse;whiteSpace=wrap;html=1;aspect=fixed;fillColor=#4D9900;strokeColor=none;labelBackgroundColor=none;" parent="1" vertex="1">
          <mxGeometry x="1593.5" y="239.5" width="23" height="23" as="geometry" />
        </mxCell>
        <mxCell id="8DieQMmsyX2rE4fabxvS-10" value="2" style="ellipse;whiteSpace=wrap;html=1;aspect=fixed;fillColor=#4D9900;strokeColor=none;labelBackgroundColor=none;" parent="1" vertex="1">
          <mxGeometry x="1593.5" y="360.5" width="23" height="23" as="geometry" />
        </mxCell>
        <mxCell id="8DieQMmsyX2rE4fabxvS-11" value="3" style="ellipse;whiteSpace=wrap;html=1;aspect=fixed;fillColor=#4D9900;strokeColor=none;labelBackgroundColor=none;" parent="1" vertex="1">
          <mxGeometry x="1593.5" y="481.5" width="23" height="23" as="geometry" />
        </mxCell>
        <mxCell id="8DieQMmsyX2rE4fabxvS-12" value="4" style="ellipse;whiteSpace=wrap;html=1;aspect=fixed;fillColor=#4D9900;strokeColor=none;labelBackgroundColor=none;" parent="1" vertex="1">
          <mxGeometry x="1593.4999999999995" y="598.5" width="23" height="23" as="geometry" />
        </mxCell>
        <mxCell id="8DieQMmsyX2rE4fabxvS-13" value="5" style="ellipse;whiteSpace=wrap;html=1;aspect=fixed;fillColor=#4D9900;strokeColor=none;labelBackgroundColor=none;" parent="1" vertex="1">
          <mxGeometry x="1593.4999999999995" y="711" width="23" height="23" as="geometry" />
        </mxCell>
        <mxCell id="8DieQMmsyX2rE4fabxvS-14" value="6" style="ellipse;whiteSpace=wrap;html=1;aspect=fixed;fillColor=#4D9900;strokeColor=none;labelBackgroundColor=none;" parent="1" vertex="1">
          <mxGeometry x="1593.4999999999995" y="832.5" width="23" height="23" as="geometry" />
        </mxCell>
        <mxCell id="8DieQMmsyX2rE4fabxvS-15" value="7" style="ellipse;whiteSpace=wrap;html=1;aspect=fixed;fillColor=#4D9900;strokeColor=none;labelBackgroundColor=none;" parent="1" vertex="1">
          <mxGeometry x="1593.5" y="941" width="23" height="23" as="geometry" />
        </mxCell>
        <mxCell id="8DieQMmsyX2rE4fabxvS-16" value="&lt;span&gt;Lorem ipsum dolor sit amet, consectetur adipiscing elit, sed do eiusmod tempor incididunt ut labore et dolore magna aliqua. Ut enim ad minim veniam, quis nostrud exercitation ullamco laboris nisi ut aliquip ex ea commodo consequat. Duis aute irure dolor in reprehenderit in voluptate velit esse cillum dolore eu fugiat nulla pariatur. Excepteur sint occaecat cupidatat non proident, sunt in culpa qui officia deserunt mollit anim id est laborum.&lt;/span&gt;&lt;br&gt;" style="text;html=1;align=left;verticalAlign=top;spacingTop=-4;fontSize=14;labelBackgroundColor=none;whiteSpace=wrap;" parent="1" vertex="1">
          <mxGeometry x="1644" y="1056.5" width="449" height="113" as="geometry" />
        </mxCell>
        <mxCell id="8DieQMmsyX2rE4fabxvS-17" value="8" style="ellipse;whiteSpace=wrap;html=1;aspect=fixed;fillColor=#4D9900;strokeColor=none;labelBackgroundColor=none;" parent="1" vertex="1">
          <mxGeometry x="1594.5" y="1059.5" width="23" height="23" as="geometry" />
        </mxCell>
        <mxCell id="8DieQMmsyX2rE4fabxvS-18" value="&lt;span&gt;Lorem ipsum dolor sit amet, consectetur adipiscing elit, sed do eiusmod tempor incididunt ut labore et dolore magna aliqua. Ut enim ad minim veniam, quis nostrud exercitation ullamco laboris nisi ut aliquip ex ea commodo consequat. Duis aute irure dolor in reprehenderit in voluptate velit esse cillum dolore eu fugiat nulla pariatur. Excepteur sint occaecat cupidatat non proident, sunt in culpa qui officia deserunt mollit anim id est laborum.&lt;/span&gt;&lt;br&gt;" style="text;html=1;align=left;verticalAlign=top;spacingTop=-4;fontSize=14;labelBackgroundColor=none;whiteSpace=wrap;" parent="1" vertex="1">
          <mxGeometry x="1644" y="1180" width="449" height="113" as="geometry" />
        </mxCell>
        <mxCell id="8DieQMmsyX2rE4fabxvS-19" value="9" style="ellipse;whiteSpace=wrap;html=1;aspect=fixed;fillColor=#4D9900;strokeColor=none;labelBackgroundColor=none;" parent="1" vertex="1">
          <mxGeometry x="1594.5" y="1183" width="23" height="23" as="geometry" />
        </mxCell>
        <mxCell id="8DieQMmsyX2rE4fabxvS-20" value="&lt;span&gt;Lorem ipsum dolor sit amet, consectetur adipiscing elit, sed do eiusmod tempor incididunt ut labore et dolore magna aliqua. Ut enim ad minim veniam, quis nostrud exercitation ullamco laboris nisi ut aliquip ex ea commodo consequat. Duis aute irure dolor in reprehenderit in voluptate velit esse cillum dolore eu fugiat nulla pariatur. Excepteur sint occaecat cupidatat non proident, sunt in culpa qui officia deserunt mollit anim id est laborum.&lt;/span&gt;&lt;br&gt;" style="text;html=1;align=left;verticalAlign=top;spacingTop=-4;fontSize=14;labelBackgroundColor=none;whiteSpace=wrap;" parent="1" vertex="1">
          <mxGeometry x="1643" y="1307.5" width="449" height="113" as="geometry" />
        </mxCell>
        <mxCell id="8DieQMmsyX2rE4fabxvS-21" value="10" style="ellipse;whiteSpace=wrap;html=1;aspect=fixed;fillColor=#4D9900;strokeColor=none;labelBackgroundColor=none;" parent="1" vertex="1">
          <mxGeometry x="1593.5" y="1310.5" width="23" height="23" as="geometry" />
        </mxCell>
        <mxCell id="fedirBiWEbgYZT4gXUIa-3" value="" style="shape=image;verticalLabelPosition=bottom;labelBackgroundColor=#ffffff;verticalAlign=top;aspect=fixed;imageAspect=0;image=data:image/svg+xml,PHN2ZyB4bWxuczpjYz0iaHR0cDovL2NyZWF0aXZlY29tbW9ucy5vcmcvbnMjIiB4bWxuczpkYz0iaHR0cDovL3B1cmwub3JnL2RjL2VsZW1lbnRzLzEuMS8iIHhtbG5zOmlua3NjYXBlPSJodHRwOi8vd3d3Lmlua3NjYXBlLm9yZy9uYW1lc3BhY2VzL2lua3NjYXBlIiB4bWxuczpyZGY9Imh0dHA6Ly93d3cudzMub3JnLzE5OTkvMDIvMjItcmRmLXN5bnRheC1ucyMiIHhtbG5zOnNvZGlwb2RpPSJodHRwOi8vc29kaXBvZGkuc291cmNlZm9yZ2UubmV0L0RURC9zb2RpcG9kaS0wLmR0ZCIgeG1sbnM6c3ZnPSJodHRwOi8vd3d3LnczLm9yZy8yMDAwL3N2ZyIgeG1sbnM9Imh0dHA6Ly93d3cudzMub3JnLzIwMDAvc3ZnIiB4bWxuczp4bGluaz0iaHR0cDovL3d3dy53My5vcmcvMTk5OS94bGluayIgdmVyc2lvbj0iMS4xIiBpZD0ic3ZnODAxNTgiIGlua3NjYXBlOnZlcnNpb249IjAuOTIuMyAoMjQwNTU0NiwgMjAxOC0wMy0xMSkiIHNvZGlwb2RpOmRvY25hbWU9ImV2ZW50X2h1YnMuc3ZnIiB4PSIwcHgiIHk9IjBweCIgdmlld0JveD0iMCAwIDIzLjQgMjQuMDQiIHN0eWxlPSJlbmFibGUtYmFja2dyb3VuZDpuZXcgMCAwIDIzLjQgMjQuMDQ7IiB4bWw6c3BhY2U9InByZXNlcnZlIj4mI3hhOzxzb2RpcG9kaTpuYW1lZHZpZXcgYm9yZGVyY29sb3I9IiM2NjY2NjYiIGJvcmRlcm9wYWNpdHk9IjEiIGZpdC1tYXJnaW4tYm90dG9tPSIwIiBmaXQtbWFyZ2luLWxlZnQ9IjAiIGZpdC1tYXJnaW4tcmlnaHQ9IjAiIGZpdC1tYXJnaW4tdG9wPSIwIiBncmlkdG9sZXJhbmNlPSIxMCIgZ3VpZGV0b2xlcmFuY2U9IjEwIiBpZD0ibmFtZWR2aWV3ODAxNjAiIGlua3NjYXBlOmN1cnJlbnQtbGF5ZXI9InN2ZzgwMTU4IiBpbmtzY2FwZTpjeD0iMTIuMjIxNzY5IiBpbmtzY2FwZTpjeT0iMTUuMjI5NTkiIGlua3NjYXBlOnBhZ2VvcGFjaXR5PSIwIiBpbmtzY2FwZTpwYWdlc2hhZG93PSIyIiBpbmtzY2FwZTp3aW5kb3ctaGVpZ2h0PSIxMDE3IiBpbmtzY2FwZTp3aW5kb3ctbWF4aW1pemVkPSIxIiBpbmtzY2FwZTp3aW5kb3ctd2lkdGg9IjE5MjAiIGlua3NjYXBlOndpbmRvdy14PSItOCIgaW5rc2NhcGU6d2luZG93LXk9Ii04IiBpbmtzY2FwZTp6b29tPSIxNy45Njc2ODkiIG9iamVjdHRvbGVyYW5jZT0iMTAiIHBhZ2Vjb2xvcj0iI2ZmZmZmZiIgc2hvd2dyaWQ9ImZhbHNlIj4mI3hhOwk8L3NvZGlwb2RpOm5hbWVkdmlldz4mI3hhOzxnIGlkPSJnODAxNTYiIHRyYW5zZm9ybT0idHJhbnNsYXRlKC0wLjc3Mjc3NTk3LC0wLjc3NDk3MykiPiYjeGE7CTx0aXRsZSBpZD0idGl0bGU4MDExMSI+UGFnZS0xPC90aXRsZT4mI3hhOwk8ZyBpZD0iZ3JvdXA0NDYxLTEiIHRyYW5zZm9ybT0idHJhbnNsYXRlKDAuNzcyNzI3LC0wLjc3MjcyNykiPiYjeGE7CQk8dGl0bGUgaWQ9InRpdGxlODAxMTMiPkV2ZW50IGh1YnMuNDQwPC90aXRsZT4mI3hhOwkJPGcgaWQ9InNoYXBlNDQ2Mi0yIiB0cmFuc2Zvcm09InRyYW5zbGF0ZSgxMC41MTU5LC0xMi44MTk5KSI+JiN4YTsJCQk8dGl0bGUgaWQ9InRpdGxlODAxMTUiPlNoZWV0LjQ0NjI8L3RpdGxlPiYjeGE7CQkJPHBhdGggaWQ9InBhdGg4MDExNyIgaW5rc2NhcGU6Y29ubmVjdG9yLWN1cnZhdHVyZT0iMCIgc3R5bGU9ImZpbGw6I0I4RDQzMjsiIGQ9Ik0zLjk2LDI1LjE4YzAsMC4yMy0wLjE4LDAuNDEtMC40MiwwLjQxSDAuNDEgICAgIEMwLjE4LDI1LjU5LDAsMjUuNDEsMCwyNS4xOHYtMi4zMWMwLTAuMjMsMC4xOC0wLjQxLDAuNDEtMC40MWgzLjEzYzAuMjQsMCwwLjQyLDAuMTgsMC40MiwwLjQxTDMuOTYsMjUuMTh6Ii8+JiN4YTsJCTwvZz4mI3hhOwkJPGcgaWQ9InNoYXBlNDQ2My00IiB0cmFuc2Zvcm09InRyYW5zbGF0ZSgxNi4xODc0LC0xMC4zOTc3KSI+JiN4YTsJCQk8dGl0bGUgaWQ9InRpdGxlODAxMjAiPlNoZWV0LjQ0NjM8L3RpdGxlPiYjeGE7CQkJPHBhdGggaWQ9InBhdGg4MDEyMiIgaW5rc2NhcGU6Y29ubmVjdG9yLWN1cnZhdHVyZT0iMCIgc3R5bGU9ImZpbGw6I0I4RDQzMjsiIGQ9Ik0zLjksMjUuMThjMCwwLjIzLTAuMTgsMC40MS0wLjQxLDAuNDFIMC40MSAgICAgQzAuMTgsMjUuNTksMCwyNS40MSwwLDI1LjE4di0yLjMxYzAtMC4yMywwLjE4LTAuNDEsMC40MS0wLjQxaDMuMTNjMC4yNCwwLDAuNDIsMC4xOCwwLjQyLDAuNDF2Mi4zMUgzLjl6Ii8+JiN4YTsJCTwvZz4mI3hhOwkJPGcgaWQ9InNoYXBlNDQ2NC02IiB0cmFuc2Zvcm09InRyYW5zbGF0ZSgxMC41MTU5LC03Ljk3NTUzKSI+JiN4YTsJCQk8dGl0bGUgaWQ9InRpdGxlODAxMjUiPlNoZWV0LjQ0NjQ8L3RpdGxlPiYjeGE7CQkJPHBhdGggaWQ9InBhdGg4MDEyNyIgaW5rc2NhcGU6Y29ubmVjdG9yLWN1cnZhdHVyZT0iMCIgc3R5bGU9ImZpbGw6I0I4RDQzMjsiIGQ9Ik0zLjk2LDI1LjE4YzAsMC4yMy0wLjE4LDAuNDEtMC40MiwwLjQxSDAuNDEgICAgIEMwLjE4LDI1LjU5LDAsMjUuNDEsMCwyNS4xOHYtMi4zMWMwLTAuMjMsMC4xOC0wLjQxLDAuNDEtMC40MWgzLjEzYzAuMjQsMCwwLjQyLDAuMTgsMC40MiwwLjQxTDMuOTYsMjUuMTh6Ii8+JiN4YTsJCTwvZz4mI3hhOwkJPGcgaWQ9InNoYXBlNDQ2NS04IiB0cmFuc2Zvcm09InRyYW5zbGF0ZSg0Ljg0NDQsLTE1LjI0MjEpIj4mI3hhOwkJCTx0aXRsZSBpZD0idGl0bGU4MDEzMCI+U2hlZXQuNDQ2NTwvdGl0bGU+JiN4YTsJCQk8cGF0aCBpZD0icGF0aDgwMTMyIiBpbmtzY2FwZTpjb25uZWN0b3ItY3VydmF0dXJlPSIwIiBzdHlsZT0iZmlsbDojQjhENDMyOyIgZD0iTTQuMDIsMjUuMThjMCwwLjIzLTAuMTgsMC40MS0wLjQyLDAuNDFIMC40MSAgICAgQzAuMTgsMjUuNTksMCwyNS40MSwwLDI1LjE4di0yLjQzYzAtMC4yMywwLjE4LTAuNDEsMC40MS0wLjQxaDMuMTNjMC4zLDAsMC40OCwwLjE4LDAuNDgsMC40MVYyNS4xOHoiLz4mI3hhOwkJPC9nPiYjeGE7CQk8ZyBpZD0ic2hhcGU0NDY2LTEwIiB0cmFuc2Zvcm09InRyYW5zbGF0ZSgwLC0xOC40MzIzKSI+JiN4YTsJCQk8dGl0bGUgaWQ9InRpdGxlODAxMzUiPlNoZWV0LjQ0NjY8L3RpdGxlPiYjeGE7CQkJPHBhdGggaWQ9InBhdGg4MDEzNyIgaW5rc2NhcGU6Y29ubmVjdG9yLWN1cnZhdHVyZT0iMCIgc3R5bGU9ImZpbGw6IzAwNzJDNjsiIGQ9Ik0yMi45MiwxOS45OGgtMC4wNmgtMi4zSDIuODRoLTEuNkgwLjQxICAgICBDMC4xOCwxOS45OCwwLDIwLjE2LDAsMjAuMzl2NC43OWMwLDAuMjMsMC4xOCwwLjQxLDAuNDEsMC40MWgyLjQzYzAuMjMsMCwwLjQxLTAuMTgsMC40MS0wLjQxdi0yLjAxaDE2Ljg0djIuMDEgICAgIGMwLDAuMjMsMC4xNywwLjQxLDAuNDcsMC40MWgyLjNjMC4yNCwwLDAuNDItMC4xOCwwLjQyLTAuNDF2LTIuNDN2LTIuMzZDMjMuMzQsMjAuMTYsMjMuMTYsMTkuOTgsMjIuOTIsMTkuOTh6Ii8+JiN4YTsJCTwvZz4mI3hhOwkJPGcgaWQ9InNoYXBlNDQ2Ny0xMiIgdHJhbnNmb3JtPSJ0cmFuc2xhdGUoMC4xMTgxNTYpIj4mI3hhOwkJCTx0aXRsZSBpZD0idGl0bGU4MDE0MCI+U2hlZXQuNDQ2NzwvdGl0bGU+JiN4YTsJCQk8cGF0aCBpZD0icGF0aDgwMTQyIiBpbmtzY2FwZTpjb25uZWN0b3ItY3VydmF0dXJlPSIwIiBzdHlsZT0iZmlsbDojMDA3MkM2OyIgZD0iTTIyLjgsMjAuMDRoLTIuM2MtMC4yNCwwLTAuNDEsMC4xNy0wLjQxLDAuNDEgICAgIHYxLjk1SDMuMTl2LTIuMDFjMC0wLjIzLTAuMTgtMC40MS0wLjQ3LTAuNDFIMC40MUMwLjE4LDE5Ljk4LDAsMjAuMTYsMCwyMC40NXY0LjczYzAsMC4yMywwLjE4LDAuNDEsMC40MSwwLjQxaDAuODNoMS42aDE3LjcyICAgICBoMi4yNGgwLjA2YzAuMjQsMCwwLjQyLTAuMTgsMC40Mi0wLjQxdi00LjczQzIzLjIyLDIwLjIxLDIzLjA0LDIwLjA0LDIyLjgsMjAuMDR6Ii8+JiN4YTsJCTwvZz4mI3hhOwkJPGcgaWQ9InNoYXBlNDQ2OC0xNCIgdHJhbnNmb3JtPSJ0cmFuc2xhdGUoNC45MDM0NywtMTAuNDU2OCkiPiYjeGE7CQkJPHRpdGxlIGlkPSJ0aXRsZTgwMTQ1Ij5TaGVldC40NDY4PC90aXRsZT4mI3hhOwkJCTxwYXRoIGlkPSJwYXRoODAxNDciIGlua3NjYXBlOmNvbm5lY3Rvci1jdXJ2YXR1cmU9IjAiIHN0eWxlPSJmaWxsOiNCOEQ0MzI7IiBkPSJNMy45NiwyNS4xOGMwLDAuMjMtMC4xOCwwLjQxLTAuNDIsMC40MUgwLjQxICAgICBDMC4xOCwyNS41OSwwLDI1LjQxLDAsMjUuMTh2LTIuMzFjMC0wLjIzLDAuMTgtMC40MSwwLjQxLTAuNDFoMy4xM2MwLjI0LDAsMC40MiwwLjE4LDAuNDIsMC40MUwzLjk2LDI1LjE4eiIvPiYjeGE7CQk8L2c+JiN4YTsJCTxnIGlkPSJzaGFwZTQ0NjktMTYiIHRyYW5zZm9ybT0idHJhbnNsYXRlKDQuODQ0NCwtNS42MTI0MSkiPiYjeGE7CQkJPHRpdGxlIGlkPSJ0aXRsZTgwMTUwIj5TaGVldC40NDY5PC90aXRsZT4mI3hhOwkJCTxwYXRoIGlkPSJwYXRoODAxNTIiIGlua3NjYXBlOmNvbm5lY3Rvci1jdXJ2YXR1cmU9IjAiIHN0eWxlPSJmaWxsOiNCOEQ0MzI7IiBkPSJNMy45NiwyNS4xOGMwLDAuMjMtMC4xOCwwLjQxLTAuNDIsMC40MUgwLjQxICAgICBDMC4xOCwyNS41OSwwLDI1LjQxLDAsMjUuMTh2LTIuMzFjMC0wLjIzLDAuMTgtMC40MSwwLjQxLTAuNDFoMy4xM2MwLjI0LDAsMC40MiwwLjE4LDAuNDIsMC40MUwzLjk2LDI1LjE4eiIvPiYjeGE7CQk8L2c+JiN4YTsJPC9nPiYjeGE7PC9nPiYjeGE7PC9zdmc+;" vertex="1" parent="1">
          <mxGeometry x="225" y="1560.05" width="116.67" height="121.74" as="geometry" />
        </mxCell>
        <mxCell id="fedirBiWEbgYZT4gXUIa-5" value="" style="endArrow=classic;html=1;rounded=0;" edge="1" parent="1">
          <mxGeometry width="50" height="50" relative="1" as="geometry">
            <mxPoint x="176.67000000000002" y="693" as="sourcePoint" />
            <mxPoint x="226.67000000000002" y="643" as="targetPoint" />
          </mxGeometry>
        </mxCell>
        <mxCell id="fedirBiWEbgYZT4gXUIa-6" value="" style="shape=image;verticalLabelPosition=bottom;labelBackgroundColor=#ffffff;verticalAlign=top;aspect=fixed;imageAspect=0;image=data:image/svg+xml,PHN2ZyB4bWxuczpjYz0iaHR0cDovL2NyZWF0aXZlY29tbW9ucy5vcmcvbnMjIiB4bWxuczpkYz0iaHR0cDovL3B1cmwub3JnL2RjL2VsZW1lbnRzLzEuMS8iIHhtbG5zOmlua3NjYXBlPSJodHRwOi8vd3d3Lmlua3NjYXBlLm9yZy9uYW1lc3BhY2VzL2lua3NjYXBlIiB4bWxuczpyZGY9Imh0dHA6Ly93d3cudzMub3JnLzE5OTkvMDIvMjItcmRmLXN5bnRheC1ucyMiIHhtbG5zOnNvZGlwb2RpPSJodHRwOi8vc29kaXBvZGkuc291cmNlZm9yZ2UubmV0L0RURC9zb2RpcG9kaS0wLmR0ZCIgeG1sbnM6c3ZnPSJodHRwOi8vd3d3LnczLm9yZy8yMDAwL3N2ZyIgeG1sbnM9Imh0dHA6Ly93d3cudzMub3JnLzIwMDAvc3ZnIiB4bWxuczp4bGluaz0iaHR0cDovL3d3dy53My5vcmcvMTk5OS94bGluayIgdmVyc2lvbj0iMS4xIiBpZD0ic3ZnOTA4MDciIGlua3NjYXBlOnZlcnNpb249IjAuOTIuMyAoMjQwNTU0NiwgMjAxOC0wMy0xMSkiIHNvZGlwb2RpOmRvY25hbWU9InBvc3RncmVzcWwuc3ZnIiB4PSIwcHgiIHk9IjBweCIgdmlld0JveD0iMCAwIDI4LjUxIDM3LjQ1IiBzdHlsZT0iZW5hYmxlLWJhY2tncm91bmQ6bmV3IDAgMCAyOC41MSAzNy40NTsiIHhtbDpzcGFjZT0icHJlc2VydmUiPiYjeGE7PHNvZGlwb2RpOm5hbWVkdmlldyBib3JkZXJjb2xvcj0iIzY2NjY2NiIgYm9yZGVyb3BhY2l0eT0iMSIgZml0LW1hcmdpbi1ib3R0b209IjAiIGZpdC1tYXJnaW4tbGVmdD0iMCIgZml0LW1hcmdpbi1yaWdodD0iMCIgZml0LW1hcmdpbi10b3A9IjAiIGdyaWR0b2xlcmFuY2U9IjEwIiBndWlkZXRvbGVyYW5jZT0iMTAiIGlkPSJuYW1lZHZpZXc5MDgwOSIgaW5rc2NhcGU6Y3VycmVudC1sYXllcj0ic3ZnOTA4MDciIGlua3NjYXBlOmN4PSIzMy4wMjY1OTYiIGlua3NjYXBlOmN5PSIyMi4yNDk0MjciIGlua3NjYXBlOnBhZ2VvcGFjaXR5PSIwIiBpbmtzY2FwZTpwYWdlc2hhZG93PSIyIiBpbmtzY2FwZTp3aW5kb3ctaGVpZ2h0PSIxMDE3IiBpbmtzY2FwZTp3aW5kb3ctbWF4aW1pemVkPSIxIiBpbmtzY2FwZTp3aW5kb3ctd2lkdGg9IjE5MjAiIGlua3NjYXBlOndpbmRvdy14PSItOCIgaW5rc2NhcGU6d2luZG93LXk9Ii04IiBpbmtzY2FwZTp6b29tPSIxMS44MDQ2MzIiIG9iamVjdHRvbGVyYW5jZT0iMTAiIHBhZ2Vjb2xvcj0iI2ZmZmZmZiIgc2hvd2dyaWQ9ImZhbHNlIj4mI3hhOwk8L3NvZGlwb2RpOm5hbWVkdmlldz4mI3hhOzxnIGlkPSJnOTA4MDUiIHRyYW5zZm9ybT0idHJhbnNsYXRlKC0wLjc1LC0wLjc1MTkpIj4mI3hhOwk8dGl0bGUgaWQ9InRpdGxlOTA3MDUiPlBhZ2UtMTwvdGl0bGU+JiN4YTsJPGcgaWQ9Imdyb3VwNDk0Ni0xIiB0cmFuc2Zvcm09InRyYW5zbGF0ZSgwLjc1LC0wLjc1KSI+JiN4YTsJCTx0aXRsZSBpZD0idGl0bGU5MDcwNyI+UG9zdGdyZVNRTC40OTA8L3RpdGxlPiYjeGE7CQk8ZyBpZD0iZ3JvdXA0OTQ3LTIiPiYjeGE7CQkJPHRpdGxlIGlkPSJ0aXRsZTkwNzA5Ij5DSGVja21hcmtfMjwvdGl0bGU+JiN4YTsJCQk8ZyBpZD0ic2hhcGU0OTQ4LTMiPiYjeGE7CQkJCTx0aXRsZSBpZD0idGl0bGU5MDcxMSI+cGF0aDM2ODY8L3RpdGxlPiYjeGE7CQkJCTxwYXRoIGlkPSJwYXRoOTA3MTMiIGlua3NjYXBlOmNvbm5lY3Rvci1jdXJ2YXR1cmU9IjAiIHN0eWxlPSJmaWxsOiMzOTk4QzU7IiBkPSJNMCw2LjQ4djI3LjQ1YzAsMi44OCw2LjM2LDUuMDIsMTQuMTcsNS4wMiAgICAgIFY2LjQ4SDB6Ii8+JiN4YTsJCQk8L2c+JiN4YTsJCQk8ZyBpZD0ic2hhcGU0OTQ5LTUiIHRyYW5zZm9ybT0idHJhbnNsYXRlKDE0LjE3MDEpIj4mI3hhOwkJCQk8dGl0bGUgaWQ9InRpdGxlOTA3MTYiPnBhdGgzNjg4PC90aXRsZT4mI3hhOwkJCQk8cGF0aCBpZD0icGF0aDkwNzE4IiBpbmtzY2FwZTpjb25uZWN0b3ItY3VydmF0dXJlPSIwIiBzdHlsZT0iZmlsbDojNTlCM0Q4OyIgZD0iTTAsMzguOTVoMC4wOGM3Ljc1LDAsMTQuMDktMi4yNywxNC4wOS01LjE1ICAgICAgVjYuNDhIMFYzOC45NXoiLz4mI3hhOwkJCTwvZz4mI3hhOwkJCTxnIGlkPSJzaGFwZTQ5NTAtNyIgdHJhbnNmb3JtPSJ0cmFuc2xhdGUoMCwtMjcuMTE4MSkiPiYjeGE7CQkJCTx0aXRsZSBpZD0idGl0bGU5MDcyMSI+cGF0aDM2OTA8L3RpdGxlPiYjeGE7CQkJCTxwYXRoIGlkPSJwYXRoOTA3MjMiIGlua3NjYXBlOmNvbm5lY3Rvci1jdXJ2YXR1cmU9IjAiIHN0eWxlPSJmaWxsOiNGRkZGRkY7IiBkPSJNMjguNTEsMzMuNzljMCwyLjgtNi4zOSw1LjE2LTE0LjIyLDUuMTYgICAgICBDNi40NywzOC45NSwwLDM2LjU5LDAsMzMuNzlzNi4zOS01LjE3LDE0LjIyLTUuMTdTMjguNTEsMzAuOTgsMjguNTEsMzMuNzl6Ii8+JiN4YTsJCQk8L2c+JiN4YTsJCQk8ZyBpZD0ic2hhcGU0OTUxLTkiIHRyYW5zZm9ybT0idHJhbnNsYXRlKDIuODg3MTcsLTI5LjE2NjkpIj4mI3hhOwkJCQk8dGl0bGUgaWQ9InRpdGxlOTA3MjYiPnBhdGgzNjkyPC90aXRsZT4mI3hhOwkJCQk8cGF0aCBpZD0icGF0aDkwNzI4IiBpbmtzY2FwZTpjb25uZWN0b3ItY3VydmF0dXJlPSIwIiBzdHlsZT0iZmlsbDojN0ZCOTAwOyIgZD0iTTIyLjc0LDM1LjUzYzAsMS45LTUuMSwzLjQyLTExLjMzLDMuNDIgICAgICBDNS4xNywzOC45NSwwLDM3LjQ2LDAsMzUuNTNjMC0xLjkyLDUuMS0zLjQyLDExLjMzLTMuNDJDMTcuNTcsMzIuMTEsMjIuNzQsMzMuNjMsMjIuNzQsMzUuNTN6Ii8+JiN4YTsJCQk8L2c+JiN4YTsJCQk8ZyBpZD0ic2hhcGU0OTUyLTExIiB0cmFuc2Zvcm09InRyYW5zbGF0ZSgyLjg4NzE3LC0zMC41MzA3KSI+JiN4YTsJCQkJPHRpdGxlIGlkPSJ0aXRsZTkwNzMxIj5wYXRoMzY5NDwvdGl0bGU+JiN4YTsJCQkJPHBhdGggaWQ9InBhdGg5MDczMyIgaW5rc2NhcGU6Y29ubmVjdG9yLWN1cnZhdHVyZT0iMCIgc3R5bGU9ImZpbGw6I0I3RDMzMjsiIGQ9Ik0yMC4zLDM4Ljk1YzEuNTMtMC41OSwyLjM3LTEuMjksMi4zNy0yLjA1ICAgICAgYzAtMS45MS01LjEtMy40Mi0xMS4zMy0zLjQyQzUuMSwzMy40OCwwLDM0Ljk5LDAsMzYuOWMwLDAuNzYsMC45MiwxLjUyLDIuMzYsMi4wNWMyLjA2LTAuODQsNS4zMi0xLjI5LDguOTgtMS4yOSAgICAgIGMzLjA0LTAuMDcsNi4wNywwLjM3LDguOTcsMS4yOUgyMC4zeiIvPiYjeGE7CQkJCTxwYXRoIGlkPSJwYXRoOTA3MzUiIGlua3NjYXBlOmNvbm5lY3Rvci1jdXJ2YXR1cmU9IjAiIHN0eWxlPSJmaWxsOm5vbmU7IiBkPSJNMjAuMywzOC45NWMxLjUzLTAuNTksMi4zNy0xLjI5LDIuMzctMi4wNSAgICAgIGMwLTEuOTEtNS4xLTMuNDItMTEuMzMtMy40MkM1LjEsMzMuNDgsMCwzNC45OSwwLDM2LjljMCwwLjc2LDAuOTIsMS41MiwyLjM2LDIuMDVjMi4wNi0wLjg0LDUuMzItMS4yOSw4Ljk4LTEuMjkgICAgICBjMy4wNC0wLjA3LDYuMDcsMC4zNyw4Ljk3LDEuMjkiLz4mI3hhOwkJCTwvZz4mI3hhOwkJCTxnIGlkPSJncm91cDQ5NTMtMTQiIHRyYW5zZm9ybT0idHJhbnNsYXRlKDQuNjg3OTUsLTQuNjIzMDEpIj4mI3hhOwkJCQk8dGl0bGUgaWQ9InRpdGxlOTA3MzgiPkxheWVyXzM8L3RpdGxlPiYjeGE7CQkJCTxnIGlkPSJzaGFwZTQ5NTQtMTUiIHRyYW5zZm9ybT0idHJhbnNsYXRlKDAuMDM1NDI1NCkiPiYjeGE7CQkJCQk8dGl0bGUgaWQ9InRpdGxlOTA3NDAiPnBhdGgzNjk2PC90aXRsZT4mI3hhOwkJCQkJPHBhdGggaWQ9InBhdGg5MDc0MiIgaW5rc2NhcGU6Y29ubmVjdG9yLWN1cnZhdHVyZT0iMCIgc3R5bGU9ImZpbGw6IzMzNjc5MDsiIGQ9Ik0xNy41NCwzMS42OGMtMi4yNiwwLjQ3LTIuNDItMC4zLTIuNDItMC4zICAgICAgIGMyLjM2LTMuNTQsMy4zOS04LjA1LDIuNTMtOS4xNGMtMi4zNi0zLjAxLTYuNDMtMS41OS02LjUtMS41NWMtMC41LTAuMS0xLTAuMTUtMS41MS0wLjE2Yy0wLjg0LTAuMDQtMS42OCwwLjIxLTIuMzYsMC43MSAgICAgICBjMCwwLTcuMjgtMi45OC02Ljk2LDMuNzdjMC4wNywxLjQ0LDIuMDQsMTAuODcsNC40LDguMDJjMC44Ny0xLjAzLDEuNy0xLjkyLDEuNy0xLjkyYzAuNDIsMC4yOSwwLjkzLDAuNDIsMS40NCwwLjM3bDAuMDQtMC4wNCAgICAgICBjLTAuMDIsMC4xNC0wLjAyLDAuMjcsMCwwLjQxYy0wLjU5LDAuNjgtMC40MywwLjgtMS42NSwxLjA1Yy0xLjIzLDAuMjUtMC41MSwwLjcxLTAuMDQsMC44M2MxLjAzLDAuMzMsMi4xNi0wLjAzLDIuOC0wLjkxICAgICAgIGwtMC4wNCwwLjE0YzAuMjUsMC4xOSwwLjQxLDEuMjQsMC4zOCwyLjJjLTAuMDgsMC43MS0wLjAzLDEuNDMsMC4xNCwyLjEzYzAuMTksMC41MSwwLjM4LDEuNjYsMS45OSwxLjMyICAgICAgIGMxLjM0LTAuMjksMi4wMy0xLjA0LDIuMTMtMi4yOGMwLjA2LTAuODcsMC4yMi0wLjc0LDAuMjQtMS41NGwwLjEyLTAuMzdjMC4xNC0xLjE4LDAtMS41OCwwLjg1LTEuNGgwLjIgICAgICAgYzAuNjQsMC4wMywxLjI4LTAuMDgsMS44Ny0wLjMyYzEuMDEtMC40NiwxLjYtMS4yNCwwLjU5LTEuMDRMMTcuNTQsMzEuNjh6Ii8+JiN4YTsJCQkJPC9nPiYjeGE7CQkJCTxnIGlkPSJzaGFwZTQ5NTUtMTciIHRyYW5zZm9ybT0idHJhbnNsYXRlKDkuMTIyMDMsLTAuMzA3MDIpIj4mI3hhOwkJCQkJPHRpdGxlIGlkPSJ0aXRsZTkwNzQ1Ij5wYXRoMzY5ODwvdGl0bGU+JiN4YTsJCQkJCTxwYXRoIGlkPSJwYXRoOTA3NDciIGlua3NjYXBlOmNvbm5lY3Rvci1jdXJ2YXR1cmU9IjAiIHN0eWxlPSJmaWxsOm5vbmU7IiBkPSJNMC4wNiwzMi42N2MtMC4wNiwyLjIzLDAsNC40NywwLjI0LDUuMDIgICAgICAgYzAuMjMsMC45NSwxLjE5LDEuNTMsMi4xNCwxLjNjMC4wNS0wLjAxLDAuMS0wLjAzLDAuMTUtMC4wNGMxLjM0LTAuMjksMS44My0wLjg0LDIuMDQtMi4wN2MwLjE2LTAuOTEsMC40Ni0zLjQxLDAuNS0zLjkzICAgICAgIEwwLjA2LDMyLjY3eiIvPiYjeGE7CQkJCQkmI3hhOwkJCQkJCTxwYXRoIGlkPSJwYXRoOTA3NDkiIGlua3NjYXBlOmNvbm5lY3Rvci1jdXJ2YXR1cmU9IjAiIHN0eWxlPSJmaWxsOm5vbmU7c3Ryb2tlOiNGRkZGRkY7c3Ryb2tlLXdpZHRoOjAuNzY1O3N0cm9rZS1saW5lY2FwOnJvdW5kO3N0cm9rZS1saW5lam9pbjpyb3VuZDtzdHJva2UtbWl0ZXJsaW1pdDozOyIgZD0iICAgICAgIE0wLjA2LDMyLjY3Yy0wLjA2LDIuMjMsMCw0LjQ3LDAuMjQsNS4wMmMwLjIzLDAuOTUsMS4xOSwxLjUzLDIuMTQsMS4zYzAuMDUtMC4wMSwwLjEtMC4wMywwLjE1LTAuMDQgICAgICAgYzEuMzQtMC4yOSwxLjgzLTAuODQsMi4wNC0yLjA3YzAuMTYtMC45MSwwLjQ2LTMuNDEsMC41LTMuOTMiLz4mI3hhOwkJCQk8L2c+JiN4YTsJCQkJPGcgaWQ9InNoYXBlNDk1Ni0yMCIgdHJhbnNmb3JtPSJ0cmFuc2xhdGUoMCwtMy4wOTM4MSkiPiYjeGE7CQkJCQk8dGl0bGUgaWQ9InRpdGxlOTA3NTIiPnBhdGgzNzAwPC90aXRsZT4mI3hhOwkJCQkJPHBhdGggaWQ9InBhdGg5MDc1NCIgaW5rc2NhcGU6Y29ubmVjdG9yLWN1cnZhdHVyZT0iMCIgc3R5bGU9ImZpbGw6bm9uZTsiIGQ9Ik03LjI3LDI0LjI3YzAsMC03LjI3LTIuOTUtNi45MywzLjc5ICAgICAgIGMwLjA3LDEuNDYsMi4wNiwxMC44OSw0LjQyLDguMDJjMC44Ny0xLjA0LDEuNjUtMS44NiwxLjY1LTEuODZMNy4yNywyNC4yN3oiLz4mI3hhOwkJCQkJJiN4YTsJCQkJCQk8cGF0aCBpZD0icGF0aDkwNzU2IiBpbmtzY2FwZTpjb25uZWN0b3ItY3VydmF0dXJlPSIwIiBzdHlsZT0iZmlsbDpub25lO3N0cm9rZTojRkZGRkZGO3N0cm9rZS13aWR0aDowLjc2NTtzdHJva2UtbGluZWNhcDpyb3VuZDtzdHJva2UtbGluZWpvaW46cm91bmQ7c3Ryb2tlLW1pdGVybGltaXQ6MzsiIGQ9IiAgICAgICBNNy4yNywyNC4yN2MwLDAtNy4yNy0yLjk1LTYuOTMsMy43OWMwLjA3LDEuNDYsMi4wNiwxMC44OSw0LjQyLDguMDJjMC44Ny0xLjA0LDEuNjUtMS44NiwxLjY1LTEuODYiLz4mI3hhOwkJCQk8L2c+JiN4YTsJCQkJPGcgaWQ9InNoYXBlNDk1Ny0yMyIgdHJhbnNmb3JtPSJ0cmFuc2xhdGUoMTAuOTM0NiwtNy41OTg3NCkiPiYjeGE7CQkJCQk8dGl0bGUgaWQ9InRpdGxlOTA3NTkiPnBhdGgzNzAyPC90aXRsZT4mI3hhOwkJCQkJPHBhdGggaWQ9InBhdGg5MDc2MSIgaW5rc2NhcGU6Y29ubmVjdG9yLWN1cnZhdHVyZT0iMCIgc3R5bGU9ImZpbGw6bm9uZTsiIGQ9Ik0wLjI1LDI4LjI2QzAsMjguMzMsNC4yOSwyNi42OSw2Ljc1LDI5LjggICAgICAgYzAuODYsMS4xMS0wLjE0LDUuNjEtMi41Myw5LjE1TDAuMjUsMjguMjZ6Ii8+JiN4YTsJCQkJCSYjeGE7CQkJCQkJPHBhdGggaWQ9InBhdGg5MDc2MyIgaW5rc2NhcGU6Y29ubmVjdG9yLWN1cnZhdHVyZT0iMCIgc3R5bGU9ImZpbGw6bm9uZTtzdHJva2U6I0ZGRkZGRjtzdHJva2Utd2lkdGg6MC43NjU7c3Ryb2tlLWxpbmVjYXA6cm91bmQ7c3Ryb2tlLWxpbmVqb2luOnJvdW5kO3N0cm9rZS1taXRlcmxpbWl0OjM7IiBkPSIgICAgICAgTTAuMjUsMjguMjZDMCwyOC4zMyw0LjI5LDI2LjY5LDYuNzUsMjkuOGMwLjg2LDEuMTEtMC4xNCw1LjYxLTIuNTMsOS4xNSIvPiYjeGE7CQkJCTwvZz4mI3hhOwkJCQk8ZyBpZD0ic2hhcGU0OTU4LTI2IiB0cmFuc2Zvcm09InRyYW5zbGF0ZSg1LjI5MDE5LC01Ljc4MDI0KSI+JiN4YTsJCQkJCTx0aXRsZSBpZD0idGl0bGU5MDc2NiI+cGF0aDM3MDQ8L3RpdGxlPiYjeGE7CQkJCQk8cGF0aCBpZD0icGF0aDkwNzY4IiBpbmtzY2FwZTpjb25uZWN0b3ItY3VydmF0dXJlPSIwIiBzdHlsZT0iZmlsbDpub25lOyIgZD0iTTkuODUsMzcuMTNjMCwwLDAuMTYsMC43NywyLjQyLDAuMyAgICAgICBjMS0wLjIsMC40LDAuNTktMC41OSwxLjA0Yy0wLjgyLDAuMzktMi42NywwLjQ4LTIuNy0wLjA0Yy0wLjA4LTEuMzcsMC45Ny0wLjk2LDAuOS0xLjNjLTAuMDgtMC4zNC0wLjU0LTAuNTktMC44NS0xLjM2ICAgICAgIGMtMC4yNy0wLjY2LTMuNzMtNS43MSwwLjk1LTQuOTZjMC4xOC0wLjAzLTEuMjItNC40NS01LjYtNC41MkMwLDI2LjIyLDAuMTIsMzEuNjgsMC4xMiwzMS42OEw5Ljg1LDM3LjEzeiIvPiYjeGE7CQkJCQkmI3hhOwkJCQkJCTxwYXRoIGlkPSJwYXRoOTA3NzAiIGlua3NjYXBlOmNvbm5lY3Rvci1jdXJ2YXR1cmU9IjAiIHN0eWxlPSJmaWxsOm5vbmU7c3Ryb2tlOiNGRkZGRkY7c3Ryb2tlLXdpZHRoOjAuNzY1O3N0cm9rZS1saW5lY2FwOnJvdW5kO3N0cm9rZS1saW5lam9pbjpyb3VuZDtzdHJva2UtbWl0ZXJsaW1pdDozOyIgZD0iICAgICAgIE05Ljg1LDM3LjEzYzAsMCwwLjE2LDAuNzcsMi40MiwwLjNjMS0wLjIsMC40LDAuNTktMC41OSwxLjA0Yy0wLjgyLDAuMzktMi42NywwLjQ4LTIuNy0wLjA0Yy0wLjA4LTEuMzcsMC45Ny0wLjk2LDAuOS0xLjMgICAgICAgYy0wLjA4LTAuMzQtMC41NC0wLjU5LTAuODUtMS4zNmMtMC4yNy0wLjY2LTMuNzMtNS43MSwwLjk1LTQuOTZjMC4xOC0wLjAzLTEuMjItNC40NS01LjYtNC41MkMwLDI2LjIyLDAuMTIsMzEuNjgsMC4xMiwzMS42OCIvPiYjeGE7CQkJCTwvZz4mI3hhOwkJCQk8ZyBpZD0ic2hhcGU0OTU5LTI5IiB0cmFuc2Zvcm09InRyYW5zbGF0ZSg1LjA4OTQ0LC01LjI2NjU3KSI+JiN4YTsJCQkJCTx0aXRsZSBpZD0idGl0bGU5MDc3MyI+cGF0aDM3MDY8L3RpdGxlPiYjeGE7CQkJCQkmI3hhOwkJCQkJCTxwYXRoIGlkPSJwYXRoOTA3NzUiIGlua3NjYXBlOmNvbm5lY3Rvci1jdXJ2YXR1cmU9IjAiIHN0eWxlPSJmaWxsOm5vbmU7c3Ryb2tlOiNGRkZGRkY7c3Ryb2tlLXdpZHRoOjAuNzY1O3N0cm9rZS1saW5lY2FwOnJvdW5kO3N0cm9rZS1saW5lam9pbjpyb3VuZDtzdHJva2UtbWl0ZXJsaW1pdDozOyIgZD0iICAgICAgIE0yLjg4LDM3LjA3Yy0wLjYsMC42OS0wLjQ0LDAuODEtMS42NiwxLjA1QzAsMzguMzcsMC43MSwzOC44MywxLjE5LDM4Ljk1YzEuMDMsMC4zMywyLjE2LTAuMDMsMi44LTAuOTEgICAgICAgYzAuMjItMC40MSwwLjA2LTAuOTItMC4zNS0xLjEzYzAsMCwwLDAsMCwwbC0wLjAzLDBjLTAuMjUtMC4xNC0wLjU4LTAuMDctMC43NCwwLjE4TDIuODgsMzcuMDd6Ii8+JiN4YTsJCQkJPC9nPiYjeGE7CQkJCTxnIGlkPSJzaGFwZTQ5NjAtMzEiIHRyYW5zZm9ybT0idHJhbnNsYXRlKDUuMzQ5MjMsLTcuMTQ0MTEpIj4mI3hhOwkJCQkJPHRpdGxlIGlkPSJ0aXRsZTkwNzc4Ij5wYXRoMzcwODwvdGl0bGU+JiN4YTsJCQkJCTxwYXRoIGlkPSJwYXRoOTA3ODAiIGlua3NjYXBlOmNvbm5lY3Rvci1jdXJ2YXR1cmU9IjAiIHN0eWxlPSJmaWxsOm5vbmU7IiBkPSJNMi41NywzOC45NWMwLTAuNSwwLjEyLTAuOTksMC4zNC0xLjQzICAgICAgIGMwLjMxLTAuODQsMS4wMy0xLjY4LDAuNDYtNC4zNGMtMC40NC0xLjk4LTMuMzEtMC40MS0zLjMxLTAuMTRDMC4xMywzMy45MiwwLjExLDM0LjgsMCwzNS42N2MtMC4yNSwxLjM1LDAuNjQsMi42NCwxLjk5LDIuODkgICAgICAgYzAuMTgsMC4wMywwLjM3LDAuMDUsMC41NSwwLjA0TDIuNTcsMzguOTV6Ii8+JiN4YTsJCQkJCSYjeGE7CQkJCQkJPHBhdGggaWQ9InBhdGg5MDc4MiIgaW5rc2NhcGU6Y29ubmVjdG9yLWN1cnZhdHVyZT0iMCIgc3R5bGU9ImZpbGw6bm9uZTtzdHJva2U6I0ZGRkZGRjtzdHJva2Utd2lkdGg6MC43NjU7c3Ryb2tlLWxpbmVjYXA6cm91bmQ7c3Ryb2tlLWxpbmVqb2luOnJvdW5kO3N0cm9rZS1taXRlcmxpbWl0OjM7IiBkPSIgICAgICAgTTIuNTcsMzguOTVjMC0wLjUsMC4xMi0wLjk5LDAuMzQtMS40M2MwLjMxLTAuODQsMS4wMy0xLjY4LDAuNDYtNC4zNGMtMC40NC0xLjk4LTMuMzEtMC40MS0zLjMxLTAuMTQgICAgICAgQzAuMTMsMzMuOTIsMC4xMSwzNC44LDAsMzUuNjdjLTAuMjUsMS4zNSwwLjY0LDIuNjQsMS45OSwyLjg5YzAuMTgsMC4wMywwLjM3LDAuMDUsMC41NSwwLjA0Ii8+JiN4YTsJCQkJPC9nPiYjeGE7CQkJCTxnIGlkPSJzaGFwZTQ5NjEtMzQiIHRyYW5zZm9ybT0idHJhbnNsYXRlKDcuMjM4NTgsLTEyLjcyMzYpIj4mI3hhOwkJCQkJPHRpdGxlIGlkPSJ0aXRsZTkwNzg1Ij5wYXRoMzcxMDwvdGl0bGU+JiN4YTsJCQkJCSYjeGE7CQkJCQkJPHBhdGggaWQ9InBhdGg5MDc4NyIgaW5rc2NhcGU6Y29ubmVjdG9yLWN1cnZhdHVyZT0iMCIgc3R5bGU9ImZpbGw6I0ZGRkZGRjtzdHJva2U6I0ZGRkZGRjtzdHJva2Utd2lkdGg6MC40MTI1O3N0cm9rZS1saW5lY2FwOnNxdWFyZTtzdHJva2UtbWl0ZXJsaW1pdDozOyIgZD0iICAgICAgIE0wLDM4LjU4YzAsMC4wOSwwLjE3LDAuMzQsMC40LDAuMzdjMC4xOSwwLjAyLDAuMzctMC4wOCwwLjQ1LTAuMjVjMC0wLjA5LTAuMTctMC4xOS0wLjQtMC4yMlMwLjAxLDM4LjQ4LDAsMzguNTh6Ii8+JiN4YTsJCQkJPC9nPiYjeGE7CQkJCTxnIGlkPSJzaGFwZTQ5NjItMzYiIHRyYW5zZm9ybT0idHJhbnNsYXRlKDEzLjU2MiwtMTIuOTEyNSkiPiYjeGE7CQkJCQk8dGl0bGUgaWQ9InRpdGxlOTA3OTAiPnBhdGgzNzEyPC90aXRsZT4mI3hhOwkJCQkJJiN4YTsJCQkJCQk8cGF0aCBpZD0icGF0aDkwNzkyIiBpbmtzY2FwZTpjb25uZWN0b3ItY3VydmF0dXJlPSIwIiBzdHlsZT0iZmlsbDojRkZGRkZGO3N0cm9rZTojRkZGRkZGO3N0cm9rZS13aWR0aDowLjIxO3N0cm9rZS1saW5lY2FwOnNxdWFyZTtzdHJva2UtbWl0ZXJsaW1pdDozOyIgZD0iICAgICAgIE0wLjg1LDM4LjU4YzAsMC4wOS0wLjE3LDAuMzQtMC40LDAuMzdDMC4yNiwzOC45NywwLjA4LDM4Ljg3LDAsMzguN2MwLTAuMDksMC4xNy0wLjE5LDAuNC0wLjIyUzAuODQsMzguNDgsMC44NSwzOC41OHoiLz4mI3hhOwkJCQk8L2c+JiN4YTsJCQkJPGcgaWQ9InNoYXBlNDk2My0zOCIgdHJhbnNmb3JtPSJ0cmFuc2xhdGUoMTQuNzQ4OCwtOC4yNzc3MikiPiYjeGE7CQkJCQk8dGl0bGUgaWQ9InRpdGxlOTA3OTUiPnBhdGgzNzE0PC90aXRsZT4mI3hhOwkJCQkJPHBhdGggaWQ9InBhdGg5MDc5NyIgaW5rc2NhcGU6Y29ubmVjdG9yLWN1cnZhdHVyZT0iMCIgc3R5bGU9ImZpbGw6bm9uZTsiIGQ9Ik0wLjUsMzMuMzFjMC4wNCwwLjcyLTAuMTUsMS4xOC0wLjE4LDEuOTggICAgICAgQzAuMjksMzYuNDEsMC44NiwzNy42NSwwLDM4Ljk1TDAuNSwzMy4zMXoiLz4mI3hhOwkJCQkJJiN4YTsJCQkJCQk8cGF0aCBpZD0icGF0aDkwNzk5IiBpbmtzY2FwZTpjb25uZWN0b3ItY3VydmF0dXJlPSIwIiBzdHlsZT0iZmlsbDpub25lO3N0cm9rZTojRkZGRkZGO3N0cm9rZS13aWR0aDowLjc2NTtzdHJva2UtbGluZWNhcDpyb3VuZDtzdHJva2UtbGluZWpvaW46cm91bmQ7c3Ryb2tlLW1pdGVybGltaXQ6MzsiIGQ9IiAgICAgICBNMC41LDMzLjMxYzAuMDQsMC43Mi0wLjE1LDEuMTgtMC4xOCwxLjk4QzAuMjksMzYuNDEsMC44NiwzNy42NSwwLDM4Ljk1Ii8+JiN4YTsJCQkJPC9nPiYjeGE7CQkJPC9nPiYjeGE7CQk8L2c+JiN4YTsJPC9nPiYjeGE7PC9nPiYjeGE7PC9zdmc+;" vertex="1" parent="1">
          <mxGeometry x="1680" y="1759" width="100" height="127.59" as="geometry" />
        </mxCell>
        <mxCell id="fedirBiWEbgYZT4gXUIa-8" value="" style="shape=image;verticalLabelPosition=bottom;labelBackgroundColor=#ffffff;verticalAlign=top;aspect=fixed;imageAspect=0;image=data:image/svg+xml,PHN2ZyB4bWxuczpkYz0iaHR0cDovL3B1cmwub3JnL2RjL2VsZW1lbnRzLzEuMS8iIHhtbG5zOmNjPSJodHRwOi8vY3JlYXRpdmVjb21tb25zLm9yZy9ucyMiIHhtbG5zOnJkZj0iaHR0cDovL3d3dy53My5vcmcvMTk5OS8wMi8yMi1yZGYtc3ludGF4LW5zIyIgeG1sbnM6c3ZnPSJodHRwOi8vd3d3LnczLm9yZy8yMDAwL3N2ZyIgeG1sbnM9Imh0dHA6Ly93d3cudzMub3JnLzIwMDAvc3ZnIiB4bWxuczpzb2RpcG9kaT0iaHR0cDovL3NvZGlwb2RpLnNvdXJjZWZvcmdlLm5ldC9EVEQvc29kaXBvZGktMC5kdGQiIHhtbG5zOmlua3NjYXBlPSJodHRwOi8vd3d3Lmlua3NjYXBlLm9yZy9uYW1lc3BhY2VzL2lua3NjYXBlIiB2ZXJzaW9uPSIxLjEiIGlkPSJzdmcxMDEzMjkiIGlua3NjYXBlOnZlcnNpb249IjAuOTIuMyAoMjQwNTU0NiwgMjAxOC0wMy0xMSkiIHNvZGlwb2RpOmRvY25hbWU9InZpcnR1YWxfbmV0d29ya192bmV0LnN2ZyIgeD0iMHB4IiB5PSIwcHgiIHZpZXdCb3g9IjAgMCAxNDguMTExMyA4NC45MzA2NDgiIHhtbDpzcGFjZT0icHJlc2VydmUiIHdpZHRoPSIxNDguMTExMyIgaGVpZ2h0PSI4NC45MzA2NDkiPjxtZXRhZGF0YSBpZD0ibWV0YWRhdGE0MTk0Ij48cmRmOlJERj48Y2M6V29yayByZGY6YWJvdXQ9IiI+PGRjOmZvcm1hdD5pbWFnZS9zdmcreG1sPC9kYzpmb3JtYXQ+PGRjOnR5cGUgcmRmOnJlc291cmNlPSJodHRwOi8vcHVybC5vcmcvZGMvZGNtaXR5cGUvU3RpbGxJbWFnZSIvPjxkYzp0aXRsZS8+PC9jYzpXb3JrPjwvcmRmOlJERj48L21ldGFkYXRhPjxkZWZzIGlkPSJkZWZzNDE5MiI+JiN4YTsJJiN4YTsmI3hhOwkmI3hhOyYjeGE7CSYjeGE7JiN4YTsJJiN4YTsmI3hhOwkmI3hhOyYjeGE7CQkmI3hhOwkmI3hhOwkJJiN4YTsJJiN4YTsJCSYjeGE7CSYjeGE7CQkmI3hhOwkmI3hhOwkJJiN4YTsJPC9kZWZzPiYjeGE7PGZpbHRlciBpZD0iZmlsdGVyXzIiPiYjeGE7CTxmZUdhdXNzaWFuQmx1ciBpZD0iZmVHYXVzc2lhbkJsdXIxMDEyNzgiIHN0ZERldmlhdGlvbj0iMiIvPiYjeGE7PC9maWx0ZXI+JiN4YTs8c29kaXBvZGk6bmFtZWR2aWV3IGJvcmRlcmNvbG9yPSIjNjY2NjY2IiBib3JkZXJvcGFjaXR5PSIxIiBmaXQtbWFyZ2luLWJvdHRvbT0iMCIgZml0LW1hcmdpbi1sZWZ0PSIwIiBmaXQtbWFyZ2luLXJpZ2h0PSIwIiBmaXQtbWFyZ2luLXRvcD0iMCIgZ3JpZHRvbGVyYW5jZT0iMTAiIGd1aWRldG9sZXJhbmNlPSIxMCIgaWQ9Im5hbWVkdmlldzEwMTMzMSIgaW5rc2NhcGU6Y3VycmVudC1sYXllcj0ic3ZnMTAxMzI5IiBpbmtzY2FwZTpjeD0iNDAuMTgyNTg3IiBpbmtzY2FwZTpjeT0iMTguNTU3ODYzIiBpbmtzY2FwZTpwYWdlb3BhY2l0eT0iMCIgaW5rc2NhcGU6cGFnZXNoYWRvdz0iMiIgaW5rc2NhcGU6d2luZG93LWhlaWdodD0iMTAxNyIgaW5rc2NhcGU6d2luZG93LW1heGltaXplZD0iMSIgaW5rc2NhcGU6d2luZG93LXdpZHRoPSIxOTIwIiBpbmtzY2FwZTp3aW5kb3cteD0iLTgiIGlua3NjYXBlOndpbmRvdy15PSItOCIgaW5rc2NhcGU6em9vbT0iMi45NzE3MDUzIiBvYmplY3R0b2xlcmFuY2U9IjEwIiBwYWdlY29sb3I9IiNmZmZmZmYiIHNob3dncmlkPSJmYWxzZSI+JiN4YTsJPC9zb2RpcG9kaTpuYW1lZHZpZXc+JiN4YTsmI3hhOzxwYXRoIGlkPSJwYXRoMTAxMjkxIiBpbmtzY2FwZTpjb25uZWN0b3ItY3VydmF0dXJlPSIwIiBzdHlsZT0iZmlsbDojMzk5OWM2IiBkPSJtIDE0Ny4xMTA2NSw0NC41OSBjIDEuNDgsLTEuNDggMS4xOCwtMy44NCAwLC01LjMyIGwgLTcuMSwtNy4xIC0zMS45NCwtMzEuMDYgYyAtMS40OCwtMS40OCAtMy41NSwtMS40OCAtNS4wMywwIC0xLjQ4LDEuNDggLTEuNzcsMy44NSAwLDUuMzMgbCAzMy40MiwzMi44MyBjIDEuNDgsMS40OCAxLjQ4LDMuODQgMCw1LjMyIGwgLTM0LjAxLDM0LjAxIGMgLTEuNDgsMS40OCAtMS40OCwzLjg1IDAsNS4zMyAxLjQ4LDEuNDggMy44NCwxLjE4IDUuMDMsMCBsIDMxLjY0LC0zMS4zNSBjIDAsMCAwLDAgMC4zLC0wLjMgeiIvPiYjeGE7JiN4YTs8cGF0aCBpZD0icGF0aDEwMTI5OSIgaW5rc2NhcGU6Y29ubmVjdG9yLWN1cnZhdHVyZT0iMCIgc3R5bGU9ImZpbGw6IzM5OTljNiIgZD0ibSAxLjAwMDY1MjEsNDQuNTkgYyAtMS40OCwtMS40OCAtMS4xOCwtMy44NCAwLC01LjMyIGwgNy4xLC03LjEgTCA0MC4wNDA2NTIsMS4xMSBjIDEuNDgsLTEuNDggMy41NSwtMS40OCA1LjAzLDAgMS40OCwxLjQ4IDEuNzcsMy44NSAwLDUuMzMgbCAtMzIuODMsMzIuODMgYyAtMS40OCwxLjQ4IC0xLjQ4LDMuODQgMCw1LjMyIGwgMzMuNDIsMzQuMDEgYyAxLjQ4LDEuNDggMS40OCwzLjg1IDAsNS4zMyAtMS40OCwxLjQ4IC0zLjg0LDEuMTggLTUuMDMsMCBMIDguMzkwNjUyMSw1Mi44NyBjIDAsMCAwLDAgLTAuMjksLTAuMjkgeiIvPiYjeGE7JiN4YTs8cGF0aCBpZD0icGF0aDEwMTMwNyIgaW5rc2NhcGU6Y29ubmVjdG9yLWN1cnZhdHVyZT0iMCIgc3R5bGU9ImZpbGw6IzdmYmEwMCIgZD0ibSA1My45NDA2NTIsNDEuOTMgYyAwLDUuNjIgLTQuNzMsOS43NiAtOS43Niw5Ljc2IC01LjAzLDAgLTEwLjM1LC00Ljc0IC0xMC4zNSwtOS43NiAwLC01LjAzIDQuMTQsLTkuNzYgMTAuMzUsLTkuNzYgNS45MiwwIDkuNzYsNC43MyA5Ljc2LDkuNzYgeiIvPiYjeGE7JiN4YTs8cGF0aCBpZD0icGF0aDEwMTMxNSIgaW5rc2NhcGU6Y29ubmVjdG9yLWN1cnZhdHVyZT0iMCIgc3R5bGU9ImZpbGw6IzdmYmEwMCIgZD0ibSA4My44MTA2NTIsNDEuOTMgYyAwLDUuNjIgLTQuNzMsOS43NiAtOS43Niw5Ljc2IC01LjAzLDAgLTEwLjM1LC00Ljc0IC0xMC4zNSwtOS43NiAwLC01LjAzIDQuNzMsLTkuNzYgMTAuMzUsLTkuNzYgNS42MiwwIDkuNzYsNC43MyA5Ljc2LDkuNzYgeiIvPiYjeGE7JiN4YTs8Y2lyY2xlIGlkPSJlbGxpcHNlMTAxMzIzIiBzdHlsZT0iZmlsbDojN2ZiYTAwIiBjeD0iMTA0LjIyMDY1IiBjeT0iNDEuOTMiIHI9IjkuNzYwMDAwMiIvPiYjeGE7PC9zdmc+;" vertex="1" parent="1">
          <mxGeometry x="1500" y="1375.5" width="78.35" height="45" as="geometry" />
        </mxCell>
        <mxCell id="fedirBiWEbgYZT4gXUIa-9" value="" style="shape=image;verticalLabelPosition=bottom;labelBackgroundColor=#ffffff;verticalAlign=top;aspect=fixed;imageAspect=0;image=data:image/svg+xml,PHN2ZyB4bWxuczpkYz0iaHR0cDovL3B1cmwub3JnL2RjL2VsZW1lbnRzLzEuMS8iIHhtbG5zOmNjPSJodHRwOi8vY3JlYXRpdmVjb21tb25zLm9yZy9ucyMiIHhtbG5zOnJkZj0iaHR0cDovL3d3dy53My5vcmcvMTk5OS8wMi8yMi1yZGYtc3ludGF4LW5zIyIgeG1sbnM6c3ZnPSJodHRwOi8vd3d3LnczLm9yZy8yMDAwL3N2ZyIgeG1sbnM9Imh0dHA6Ly93d3cudzMub3JnLzIwMDAvc3ZnIiB4bWxuczpzb2RpcG9kaT0iaHR0cDovL3NvZGlwb2RpLnNvdXJjZWZvcmdlLm5ldC9EVEQvc29kaXBvZGktMC5kdGQiIHhtbG5zOmlua3NjYXBlPSJodHRwOi8vd3d3Lmlua3NjYXBlLm9yZy9uYW1lc3BhY2VzL2lua3NjYXBlIiB2ZXJzaW9uPSIxLjEiIGlkPSJzdmc4Mjg3OSIgaW5rc2NhcGU6dmVyc2lvbj0iMC45Mi4zICgyNDA1NTQ2LCAyMDE4LTAzLTExKSIgc29kaXBvZGk6ZG9jbmFtZT0ibG9hZF9iYWxhbmNlci5zdmciIHg9IjBweCIgeT0iMHB4IiB2aWV3Qm94PSIwIDAgMTAwLjMxIDEwMC4zMSIgeG1sOnNwYWNlPSJwcmVzZXJ2ZSIgd2lkdGg9IjEwMC4zMSIgaGVpZ2h0PSIxMDAuMzEiPjxtZXRhZGF0YSBpZD0ibWV0YWRhdGEyNDEyIj48cmRmOlJERj48Y2M6V29yayByZGY6YWJvdXQ9IiI+PGRjOmZvcm1hdD5pbWFnZS9zdmcreG1sPC9kYzpmb3JtYXQ+PGRjOnR5cGUgcmRmOnJlc291cmNlPSJodHRwOi8vcHVybC5vcmcvZGMvZGNtaXR5cGUvU3RpbGxJbWFnZSIvPjxkYzp0aXRsZS8+PC9jYzpXb3JrPjwvcmRmOlJERj48L21ldGFkYXRhPjxkZWZzIGlkPSJkZWZzMjQxMCIvPiYjeGE7PGZpbHRlciBpZD0iZmlsdGVyXzIiPiYjeGE7CTxmZUdhdXNzaWFuQmx1ciBpZD0iZmVHYXVzc2lhbkJsdXI4MjgzNiIgc3RkRGV2aWF0aW9uPSIyIi8+JiN4YTs8L2ZpbHRlcj4mI3hhOzxzb2RpcG9kaTpuYW1lZHZpZXcgYm9yZGVyY29sb3I9IiM2NjY2NjYiIGJvcmRlcm9wYWNpdHk9IjEiIGZpdC1tYXJnaW4tYm90dG9tPSIwIiBmaXQtbWFyZ2luLWxlZnQ9IjAiIGZpdC1tYXJnaW4tcmlnaHQ9IjAiIGZpdC1tYXJnaW4tdG9wPSIwIiBncmlkdG9sZXJhbmNlPSIxMCIgZ3VpZGV0b2xlcmFuY2U9IjEwIiBpZD0ibmFtZWR2aWV3ODI4ODEiIGlua3NjYXBlOmN1cnJlbnQtbGF5ZXI9InN2ZzgyODc5IiBpbmtzY2FwZTpjeD0iLTM2LjI2NDEyMyIgaW5rc2NhcGU6Y3k9IjQzLjM4OTQ1NSIgaW5rc2NhcGU6cGFnZW9wYWNpdHk9IjAiIGlua3NjYXBlOnBhZ2VzaGFkb3c9IjIiIGlua3NjYXBlOndpbmRvdy1oZWlnaHQ9IjEwMTciIGlua3NjYXBlOndpbmRvdy1tYXhpbWl6ZWQ9IjEiIGlua3NjYXBlOndpbmRvdy13aWR0aD0iMTkyMCIgaW5rc2NhcGU6d2luZG93LXg9Ii04IiBpbmtzY2FwZTp3aW5kb3cteT0iLTgiIGlua3NjYXBlOnpvb209IjUuMjEwODU3NiIgb2JqZWN0dG9sZXJhbmNlPSIxMCIgcGFnZWNvbG9yPSIjZmZmZmZmIiBzaG93Z3JpZD0iZmFsc2UiPiYjeGE7CTwvc29kaXBvZGk6bmFtZWR2aWV3PiYjeGE7JiN4YTs8cGF0aCBpZD0icGF0aDgyODQ5IiBpbmtzY2FwZTpjb25uZWN0b3ItY3VydmF0dXJlPSIwIiBzdHlsZT0iZmlsbDojN2ZiYTAwIiBkPSJtIDUwLjE1LDEwMC4zMSBjIC0yLjQ3LDAgLTQuNzksLTAuOTcgLTYuNTQsLTIuNzEgTCAyLjcxLDU2LjY5IEMgMC45OSw1NC45NyAwLDUyLjU5IDAsNTAuMTUgMCw0Ny43MiAwLjk5LDQ1LjMzIDIuNzEsNDMuNjEgTCA0My42MSwyLjcxIEMgNDUuMzYsMC45NiA0Ny42OCwwIDUwLjE1LDAgYyAyLjQ3LDAgNC44LDAuOTYgNi41NSwyLjcxIGwgNDAuODksNDAuOSBjIDEuNzUsMS43NCAyLjcyLDQuMDcgMi43Miw2LjU0IDAsMi40OCAtMC45Nyw0LjggLTIuNzIsNi41NSBMIDU2LjcsOTcuNiBjIC0xLjc1LDEuNzQgLTQuMDgsMi43MSAtNi41NSwyLjcxIHoiLz4mI3hhOyYjeGE7PHBhdGggaWQ9InBhdGg4Mjg1NyIgaW5rc2NhcGU6Y29ubmVjdG9yLWN1cnZhdHVyZT0iMCIgc3R5bGU9ImZpbGw6I2ZmZmZmZiIgZD0iTSA5MS41LDQ5LjQ4IDc4LjI0LDM2LjIxIHYgOS4zNyBMIDY0LjE2LDQ1LjU3IEMgNjIuOCw0MC43MiA1OSwzNi44OCA1NC4xNiwzNS41IFYgMjIuMDcgaCA5LjI2IEwgNTAuMTUsOC44MSAzNi44OSwyMi4wNyBoIDkuMjUgdiAxMy40MiBjIC00LjgzLDEuMzkgLTguNjMsNS4yMSAtOS45OSwxMC4wNSBMIDIyLjA3LDQ1LjUzIFYgMzYuMjYgTCA4LjgsNDkuNTMgMjIuMDcsNjIuNzkgdiAtOS4zNiBsIDE0LjA4LDAuMDEgYyAxLjM3LDQuODMgNS4xNyw4LjY0IDkuOTksMTAuMDIgdiA5LjMxIGMgLTIuMDEsMS40NiAtNS4wNyw0LjUzIC01LjA3LDguMSAwLDQuOTggNC4wOCw5LjAzIDkuMDUsOS4wMyA0Ljk4LDAgOS4wNSwtNC4wNSA5LjA1LC05LjAzIDAsLTMuNTMgLTMsLTYuNTcgLTUuMDEsLTguMDUgdiAtOS4zNiBjIDQuODIsLTEuMzggOC42MSwtNS4xOCA5Ljk4LC05Ljk5IGwgMTQuMSwwLjAxIHYgOS4yNiB6Ii8+JiN4YTsmI3hhOzxwYXRoIGlkPSJwYXRoODI4NjUiIGlua3NjYXBlOmNvbm5lY3Rvci1jdXJ2YXR1cmU9IjAiIHN0eWxlPSJmaWxsOiM1OWI0ZDkiIGQ9Im0gNTAuMTUsMzguOTMgYyAtNS44MiwwIC0xMC41NSw0LjczIC0xMC41NSwxMC41NSAwLDUuODIgNC43MywxMC41NSAxMC41NSwxMC41NSA1LjgxLDAgMTAuNTUsLTQuNzMgMTAuNTUsLTEwLjU1IDAsLTUuODIgLTQuNzQsLTEwLjU1IC0xMC41NSwtMTAuNTUgeiIvPiYjeGE7JiN4YTs8cGF0aCBpZD0icGF0aDgyODczIiBpbmtzY2FwZTpjb25uZWN0b3ItY3VydmF0dXJlPSIwIiBzdHlsZT0iZmlsbDojZmZmZmZmO2ZpbGwtb3BhY2l0eTowLjE1IiBkPSJNIDU2LjcsMi43MiBDIDU0Ljk1LDAuOTcgNTIuNjMsMCA1MC4xNSwwIDQ3LjY5LDAgNDUuMzYsMC45NyA0My42MSwyLjcyIEwgMi43MSw0My42MiBDIDAuOTksNDUuMzQgMCw0Ny43MiAwLDUwLjE2IDAsNTIuNTkgMC45OSw1NC45OCAyLjcxLDU2LjcgTCAyNS44Nyw3OS44NiA2OS40MywxNS40NSBaIi8+JiN4YTs8L3N2Zz4=;" vertex="1" parent="1">
          <mxGeometry x="589.87" y="1576.35" width="103.65" height="103.65" as="geometry" />
        </mxCell>
        <mxCell id="fedirBiWEbgYZT4gXUIa-10" value="" style="shape=image;verticalLabelPosition=bottom;labelBackgroundColor=#ffffff;verticalAlign=top;aspect=fixed;imageAspect=0;image=data:image/svg+xml,PHN2ZyB4bWxuczpjYz0iaHR0cDovL2NyZWF0aXZlY29tbW9ucy5vcmcvbnMjIiB4bWxuczpkYz0iaHR0cDovL3B1cmwub3JnL2RjL2VsZW1lbnRzLzEuMS8iIHhtbG5zOmlua3NjYXBlPSJodHRwOi8vd3d3Lmlua3NjYXBlLm9yZy9uYW1lc3BhY2VzL2lua3NjYXBlIiB4bWxuczpyZGY9Imh0dHA6Ly93d3cudzMub3JnLzE5OTkvMDIvMjItcmRmLXN5bnRheC1ucyMiIHhtbG5zOnNvZGlwb2RpPSJodHRwOi8vc29kaXBvZGkuc291cmNlZm9yZ2UubmV0L0RURC9zb2RpcG9kaS0wLmR0ZCIgeG1sbnM6c3ZnPSJodHRwOi8vd3d3LnczLm9yZy8yMDAwL3N2ZyIgeG1sbnM9Imh0dHA6Ly93d3cudzMub3JnLzIwMDAvc3ZnIiB4bWxuczp4bGluaz0iaHR0cDovL3d3dy53My5vcmcvMTk5OS94bGluayIgdmVyc2lvbj0iMS4xIiBpZD0ic3ZnOTkyNDkiIGlua3NjYXBlOnZlcnNpb249IjAuOTIuMyAoMjQwNTU0NiwgMjAxOC0wMy0xMSkiIHNvZGlwb2RpOmRvY25hbWU9InN1Ym5ldHMuc3ZnIiB4PSIwcHgiIHk9IjBweCIgdmlld0JveD0iMCAwIDM0Ljg0IDIxLjYxIiBzdHlsZT0iZW5hYmxlLWJhY2tncm91bmQ6bmV3IDAgMCAzNC44NCAyMS42MTsiIHhtbDpzcGFjZT0icHJlc2VydmUiPiYjeGE7PHNvZGlwb2RpOm5hbWVkdmlldyBib3JkZXJjb2xvcj0iIzY2NjY2NiIgYm9yZGVyb3BhY2l0eT0iMSIgZml0LW1hcmdpbi1ib3R0b209IjAiIGZpdC1tYXJnaW4tbGVmdD0iMCIgZml0LW1hcmdpbi1yaWdodD0iMCIgZml0LW1hcmdpbi10b3A9IjAiIGdyaWR0b2xlcmFuY2U9IjEwIiBndWlkZXRvbGVyYW5jZT0iMTAiIGlkPSJuYW1lZHZpZXc5OTI1MSIgaW5rc2NhcGU6Y3VycmVudC1sYXllcj0ic3ZnOTkyNDkiIGlua3NjYXBlOmN4PSI0MC45MTcxNDUiIGlua3NjYXBlOmN5PSIwLjYzNzUyNTg2IiBpbmtzY2FwZTpwYWdlb3BhY2l0eT0iMCIgaW5rc2NhcGU6cGFnZXNoYWRvdz0iMiIgaW5rc2NhcGU6d2luZG93LWhlaWdodD0iMTAxNyIgaW5rc2NhcGU6d2luZG93LW1heGltaXplZD0iMSIgaW5rc2NhcGU6d2luZG93LXdpZHRoPSIxOTIwIiBpbmtzY2FwZTp3aW5kb3cteD0iLTgiIGlua3NjYXBlOndpbmRvdy15PSItOCIgaW5rc2NhcGU6em9vbT0iMTAuNjM5NDk0IiBvYmplY3R0b2xlcmFuY2U9IjEwIiBwYWdlY29sb3I9IiNmZmZmZmYiIHNob3dncmlkPSJmYWxzZSI+JiN4YTsJPC9zb2RpcG9kaTpuYW1lZHZpZXc+JiN4YTs8ZyBpZD0iZzk5MjQ3IiB0cmFuc2Zvcm09InRyYW5zbGF0ZSgtNC4yMzMxNzQ5ZS01KSI+JiN4YTsJPHRpdGxlIGlkPSJ0aXRsZTk5MjI3Ij5QYWdlLTE8L3RpdGxlPiYjeGE7CTxnIGlkPSJncm91cDQ2NTQtMSI+JiN4YTsJCTx0aXRsZSBpZD0idGl0bGU5OTIyOSI+U3VibmV0czwvdGl0bGU+JiN4YTsJCTxnIGlkPSJzaGFwZTQ2NTUtMiIgdHJhbnNmb3JtPSJ0cmFuc2xhdGUoMjIuNjEzKSI+JiN4YTsJCQk8dGl0bGUgaWQ9InRpdGxlOTkyMzEiPlNoZWV0LjQ2NTU8L3RpdGxlPiYjeGE7CQkJPHBhdGggaWQ9InBhdGg5OTIzMyIgaW5rc2NhcGU6Y29ubmVjdG9yLWN1cnZhdHVyZT0iMCIgc3R5bGU9ImZpbGw6IzM5OTlDNjsiIGQ9Ik0xMi4yMywxMC42OEw5Ljg0LDguMjlMMS4zOSwwTDAsMS4yNmw5LjU4LDkuNDIgICAgIEwwLDIwLjM1bDEuMzksMS4yNmw4LjQ1LTguM0wxMi4yMywxMC42OHoiLz4mI3hhOwkJPC9nPiYjeGE7CQk8ZyBpZD0ic2hhcGU0NjU2LTQiPiYjeGE7CQkJPHRpdGxlIGlkPSJ0aXRsZTk5MjM2Ij5TaGVldC40NjU2PC90aXRsZT4mI3hhOwkJCTxwYXRoIGlkPSJwYXRoOTkyMzgiIGlua3NjYXBlOmNvbm5lY3Rvci1jdXJ2YXR1cmU9IjAiIHN0eWxlPSJmaWxsOiMzOTk5QzY7IiBkPSJNMCwxMC42OGwyLjM5LTIuMzlMMTAuODQsMGwxLjM5LDEuMjYgICAgIGwtOS41OCw5LjQybDkuNTgsOS42N2wtMS4zOSwxLjI2bC04LjQ1LTguM0wwLDEwLjY4eiIvPiYjeGE7CQk8L2c+JiN4YTsJCTxnIGlkPSJzaGFwZTQ2NTctNiIgdHJhbnNmb3JtPSJ0cmFuc2xhdGUoMTQuODY4NSwtOC41MzE5NykiPiYjeGE7CQkJPHRpdGxlIGlkPSJ0aXRsZTk5MjQxIj5TaGVldC40NjU3PC90aXRsZT4mI3hhOwkJCTxwYXRoIGlkPSJwYXRoOTkyNDMiIGlua3NjYXBlOmNvbm5lY3Rvci1jdXJ2YXR1cmU9IjAiIHN0eWxlPSJmaWxsOiM3RkJBMDA7IiBkPSJNNC45MSwxOS4yMWMwLDEuMzgtMS4xMywyLjQtMi4zOSwyLjQgICAgIFMwLDIwLjQ2LDAsMTkuMjFjMC0xLjI2LDEuMTMtMi4zOCwyLjUyLTIuMzhTNC45MSwxNy45NSw0LjkxLDE5LjIxeiIvPiYjeGE7CQk8L2c+JiN4YTsJPC9nPiYjeGE7PC9nPiYjeGE7PC9zdmc+;" vertex="1" parent="1">
          <mxGeometry x="1369" y="1512.3" width="70" height="44" as="geometry" />
        </mxCell>
        <mxCell id="fedirBiWEbgYZT4gXUIa-12" value="" style="shape=image;verticalLabelPosition=bottom;labelBackgroundColor=#ffffff;verticalAlign=top;aspect=fixed;imageAspect=0;image=data:image/svg+xml,PHN2ZyB4bWxuczpkYz0iaHR0cDovL3B1cmwub3JnL2RjL2VsZW1lbnRzLzEuMS8iIHhtbG5zOmNjPSJodHRwOi8vY3JlYXRpdmVjb21tb25zLm9yZy9ucyMiIHhtbG5zOnJkZj0iaHR0cDovL3d3dy53My5vcmcvMTk5OS8wMi8yMi1yZGYtc3ludGF4LW5zIyIgeG1sbnM6c3ZnPSJodHRwOi8vd3d3LnczLm9yZy8yMDAwL3N2ZyIgeG1sbnM9Imh0dHA6Ly93d3cudzMub3JnLzIwMDAvc3ZnIiB4bWxuczpzb2RpcG9kaT0iaHR0cDovL3NvZGlwb2RpLnNvdXJjZWZvcmdlLm5ldC9EVEQvc29kaXBvZGktMC5kdGQiIHhtbG5zOmlua3NjYXBlPSJodHRwOi8vd3d3Lmlua3NjYXBlLm9yZy9uYW1lc3BhY2VzL2lua3NjYXBlIiB2ZXJzaW9uPSIxLjEiIGlkPSJzdmc1NjAxOCIgaW5rc2NhcGU6dmVyc2lvbj0iMC45Mi4zICgyNDA1NTQ2LCAyMDE4LTAzLTExKSIgc29kaXBvZGk6ZG9jbmFtZT0iYXp1cmVfY29udGFpbmVyLnN2ZyIgeD0iMHB4IiB5PSIwcHgiIHZpZXdCb3g9IjAgMCA2NS41MiA0OC40OSIgeG1sOnNwYWNlPSJwcmVzZXJ2ZSIgd2lkdGg9IjY1LjUxOTk5NyIgaGVpZ2h0PSI0OC40OTAwMDIiPjxtZXRhZGF0YSBpZD0ibWV0YWRhdGE1NTM4Ij48cmRmOlJERj48Y2M6V29yayByZGY6YWJvdXQ9IiI+PGRjOmZvcm1hdD5pbWFnZS9zdmcreG1sPC9kYzpmb3JtYXQ+PGRjOnR5cGUgcmRmOnJlc291cmNlPSJodHRwOi8vcHVybC5vcmcvZGMvZGNtaXR5cGUvU3RpbGxJbWFnZSIvPjxkYzp0aXRsZS8+PC9jYzpXb3JrPjwvcmRmOlJERj48L21ldGFkYXRhPjxkZWZzIGlkPSJkZWZzNTUzNiIvPiYjeGE7PGZpbHRlciBpZD0iZmlsdGVyXzIiPiYjeGE7CTxmZUdhdXNzaWFuQmx1ciBpZD0iZmVHYXVzc2lhbkJsdXI1NTgzOSIgc3RkRGV2aWF0aW9uPSIyIi8+JiN4YTs8L2ZpbHRlcj4mI3hhOzxzb2RpcG9kaTpuYW1lZHZpZXcgYm9yZGVyY29sb3I9IiM2NjY2NjYiIGJvcmRlcm9wYWNpdHk9IjEiIGZpdC1tYXJnaW4tYm90dG9tPSIwIiBmaXQtbWFyZ2luLWxlZnQ9IjAiIGZpdC1tYXJnaW4tcmlnaHQ9IjAiIGZpdC1tYXJnaW4tdG9wPSIwIiBncmlkdG9sZXJhbmNlPSIxMCIgZ3VpZGV0b2xlcmFuY2U9IjEwIiBpZD0ibmFtZWR2aWV3NTYwMjAiIGlua3NjYXBlOmN1cnJlbnQtbGF5ZXI9InN2ZzU2MDE4IiBpbmtzY2FwZTpjeD0iLTMuNDYzNzEzOSIgaW5rc2NhcGU6Y3k9IjIwLjQ1NjkyNyIgaW5rc2NhcGU6cGFnZW9wYWNpdHk9IjAiIGlua3NjYXBlOnBhZ2VzaGFkb3c9IjIiIGlua3NjYXBlOndpbmRvdy1oZWlnaHQ9IjEwMTciIGlua3NjYXBlOndpbmRvdy1tYXhpbWl6ZWQ9IjEiIGlua3NjYXBlOndpbmRvdy13aWR0aD0iMTkyMCIgaW5rc2NhcGU6d2luZG93LXg9Ii04IiBpbmtzY2FwZTp3aW5kb3cteT0iLTgiIGlua3NjYXBlOnpvb209IjguOTExNjU1NyIgb2JqZWN0dG9sZXJhbmNlPSIxMCIgcGFnZWNvbG9yPSIjZmZmZmZmIiBzaG93Z3JpZD0iZmFsc2UiPiYjeGE7CTwvc29kaXBvZGk6bmFtZWR2aWV3PiYjeGE7JiN4YTs8cGF0aCBpZD0icGF0aDU1ODUyIiBpbmtzY2FwZTpjb25uZWN0b3ItY3VydmF0dXJlPSIwIiBzdHlsZT0iZmlsbDojODA0OTk4IiBkPSJNIDMwLjAxLDEyLjMyIDE5LjkyLDE2LjI1IFYgMCBsIDEwLjA5LDMuNTQgeiIvPiYjeGE7JiN4YTs8cGF0aCBpZD0icGF0aDU1ODYwIiBpbmtzY2FwZTpjb25uZWN0b3ItY3VydmF0dXJlPSIwIiBzdHlsZT0iZmlsbDojODA0OTk4IiBkPSJtIDEwLjg4LDIuNzUgdiAxMC42MSBsIDcuNDcsMi44OSBWIDAuMTMgWiBtIDAuNzksOS44MyAtMC40LC0wLjEzIFYgMy42NyBsIDAuNCwtMC4xMyAwLjM5LC0wLjE0IDAuMzksLTAuMTMgdiA5LjU3IGwgLTAuMzksLTAuMTMgeiBtIDEuOTYsMC41MiAtMC41MiwtMC4xMyBWIDMuMTQgbCAwLjUyLC0wLjEzIDAuNTMsLTAuMTMgMC41MiwtMC4xMyB2IDEwLjc0IGwgLTAuNTIsLTAuMTMgeiBtIDIuMzYsMC43OSAtMC42NSwtMC4yNiBWIDIuNDkgbCAwLjY1LC0wLjEzIDAuNjYsLTAuMjcgMC43OCwtMC4yNiB2IDEyLjQ1IGwgLTAuNzgsLTAuMjYgeiIvPiYjeGE7JiN4YTs8cGF0aCBpZD0icGF0aDU1ODY4IiBpbmtzY2FwZTpjb25uZWN0b3ItY3VydmF0dXJlPSIwIiBzdHlsZT0iZmlsbDojODA0OTk4IiBkPSJNIDUzLjQ3LDEyLjMyIDQzLjM4LDE2LjI1IFYgMCBsIDEwLjA5LDMuNTQgeiIvPiYjeGE7JiN4YTs8cGF0aCBpZD0icGF0aDU1ODc2IiBpbmtzY2FwZTpjb25uZWN0b3ItY3VydmF0dXJlPSIwIiBzdHlsZT0iZmlsbDojODA0OTk4IiBkPSJtIDM0LjMzLDIuNzUgdiAxMC42MSBsIDcuNDcsMi44OSBWIDAuMTMgWiBtIDAuNzksOS44MyAtMC40LC0wLjEzIFYgMy42NyBMIDM1LjEyLDMuNTQgMzUuNTEsMy40IDM1LjksMy4yNyB2IDkuNTcgbCAtMC4zOSwtMC4xMyB6IG0gMS45NiwwLjUyIC0wLjUyLC0wLjEzIFYgMy4xNCBsIDAuNTIsLTAuMTMgMC41MywtMC4xMyAwLjUyLC0wLjEzIHYgMTAuNzQgbCAtMC41MiwtMC4xMyB6IG0gMi4zNiwwLjc5IC0wLjY1LC0wLjI2IFYgMi40OSBMIDM5LjQ0LDIuMzYgNDAuMSwyLjA5IDQwLjg4LDEuODMgViAxNC4yOCBMIDQwLjEsMTQuMDIgWiIvPiYjeGE7JiN4YTs8cGF0aCBpZD0icGF0aDU1ODg0IiBpbmtzY2FwZTpjb25uZWN0b3ItY3VydmF0dXJlPSIwIiBzdHlsZT0iZmlsbDojODA0OTk4IiBkPSJNIDMwLjAxLDQ0LjU2IDE5LjkyLDQ4LjQ5IFYgMzIuMjQgbCAxMC4wOSwzLjU0IHoiLz4mI3hhOyYjeGE7PHBhdGggaWQ9InBhdGg1NTg5MiIgaW5rc2NhcGU6Y29ubmVjdG9yLWN1cnZhdHVyZT0iMCIgc3R5bGU9ImZpbGw6IzgwNDk5OCIgZD0iTSAxMC44OCwzNC45OSBWIDQ1LjYgbCA3LjQ3LDIuODkgViAzMi4zNyBaIG0gMC43OSw5LjgzIC0wLjQsLTAuMTMgdiAtOC43OCBsIDAuNCwtMC4xMyAwLjM5LC0wLjE0IDAuMzksLTAuMTMgdiA5LjU3IGwgLTAuMzksLTAuMTMgeiBtIDEuOTYsMC41MiAtMC41MiwtMC4xMyB2IC05LjgzIGwgMC41MiwtMC4xMyAwLjUzLC0wLjEzIDAuNTIsLTAuMTMgViA0NS43MyBMIDE0LjE2LDQ1LjYgWiBtIDIuMzYsMC43OSAtMC42NSwtMC4yNiBWIDM0LjczIGwgMC42NSwtMC4xMyAwLjY2LC0wLjI3IDAuNzgsLTAuMjYgdiAxMi40NSBsIC0wLjc4LC0wLjI2IHoiLz4mI3hhOyYjeGE7PHBhdGggaWQ9InBhdGg1NTkwMCIgaW5rc2NhcGU6Y29ubmVjdG9yLWN1cnZhdHVyZT0iMCIgc3R5bGU9ImZpbGw6IzgwNDk5OCIgZD0iTSA1My40Nyw0NC41NiA0My4zOCw0OC40OSBWIDMyLjI0IGwgMTAuMDksMy41NCB6Ii8+JiN4YTsmI3hhOzxwYXRoIGlkPSJwYXRoNTU5MDgiIGlua3NjYXBlOmNvbm5lY3Rvci1jdXJ2YXR1cmU9IjAiIHN0eWxlPSJmaWxsOiM4MDQ5OTgiIGQ9Ik0gMzQuMzMsMzQuOTkgViA0NS42IGwgNy40NywyLjg5IFYgMzIuMzcgWiBtIDAuNzksOS44MyAtMC40LC0wLjEzIHYgLTguNzggbCAwLjQsLTAuMTMgMC4zOSwtMC4xNCAwLjM5LC0wLjEzIHYgOS41NyBsIC0wLjM5LC0wLjEzIHogbSAxLjk2LDAuNTIgLTAuNTIsLTAuMTMgdiAtOS44MyBsIDAuNTIsLTAuMTMgMC41MywtMC4xMyAwLjUyLC0wLjEzIFYgNDUuNzMgTCAzNy42MSw0NS42IFogbSAyLjM2LDAuNzkgLTAuNjUsLTAuMjYgViAzNC43MyBsIDAuNjUsLTAuMTMgMC42NiwtMC4yNyAwLjc4LC0wLjI2IFYgNDYuNTIgTCA0MC4xLDQ2LjI2IFoiLz4mI3hhOyYjeGE7PHBhdGggaWQ9InBhdGg1NTkxNiIgaW5rc2NhcGU6Y29ubmVjdG9yLWN1cnZhdHVyZT0iMCIgc3R5bGU9ImZpbGw6IzgwNDk5OCIgZD0ibSA0Mi40NiwyOC40NCAtOS45NiwzLjggViAxNi4xMiBsIDkuOTYsMy41NCB6Ii8+JiN4YTsmI3hhOzxwYXRoIGlkPSJwYXRoNTU5MjQiIGlua3NjYXBlOmNvbm5lY3Rvci1jdXJ2YXR1cmU9IjAiIHN0eWxlPSJmaWxsOiM4MDQ5OTgiIGQ9Im0gMjMuMzMsMTguNzQgdiAxMC42MSBsIDcuNDcsMi44OSBWIDE2LjEyIFogbSAwLjc5LDkuODMgLTAuNCwtMC4xMyB2IC04Ljc4IGwgMC40LC0wLjEzIDAuMzksLTAuMTQgMC4zOSwtMC4xMyB2IDkuNTcgTCAyNC41MSwyOC43IFogbSAxLjk2LDAuNjUgLTAuNTIsLTAuMTMgdiAtOS44MyBsIDAuNTIsLTAuMTMgMC41MywtMC4xMyAwLjUyLC0wLjEzIHYgMTAuNzUgbCAtMC41MiwtMC4xNCB6IG0gMi4zNiwwLjc5IC0wLjY1LC0wLjI2IFYgMTguNjEgbCAwLjY1LC0wLjEzIDAuNjYsLTAuMjcgMC43OCwtMC4yNiBWIDMwLjQgTCAyOS4xLDMwLjE0IFoiLz4mI3hhOyYjeGE7PHBhdGggaWQ9InBhdGg1NTkzMiIgaW5rc2NhcGU6Y29ubmVjdG9yLWN1cnZhdHVyZT0iMCIgc3R5bGU9ImZpbGw6IzgwNDk5OCIgZD0ibSAxOS4xMywyOC40NCAtOS45NiwzLjggViAxNi4xMiBsIDkuOTYsMy41NCB6Ii8+JiN4YTsmI3hhOzxwYXRoIGlkPSJwYXRoNTU5NDAiIGlua3NjYXBlOmNvbm5lY3Rvci1jdXJ2YXR1cmU9IjAiIHN0eWxlPSJmaWxsOiM4MDQ5OTgiIGQ9Im0gMCwxOC43NCB2IDEwLjYxIGwgNy40NywyLjg5IFYgMTYuMTIgWiBtIDAuNzksOS44MyAtMC40LC0wLjEzIHYgLTguNzggbCAwLjQsLTAuMTMgMC4zOSwtMC4xNCAwLjM5LC0wLjEzIHYgOS41NyBMIDEuMTgsMjguNyBaIE0gMi43NSwyOS4yMiAyLjIzLDI5LjA5IFYgMTkuMjYgTCAyLjc1LDE5LjEzIDMuMjgsMTkgMy44LDE4Ljg3IFYgMjkuNjIgTCAzLjI4LDI5LjQ4IFogTSA1LjExLDMwLjAxIDQuNDYsMjkuNzUgViAxOC42MSBMIDUuMTEsMTguNDggNS43NywxOC4yMSA2LjU1LDE3Ljk1IFYgMzAuNCBMIDUuNzcsMzAuMTQgWiIvPiYjeGE7JiN4YTs8cGF0aCBpZD0icGF0aDU1OTQ4IiBpbmtzY2FwZTpjb25uZWN0b3ItY3VydmF0dXJlPSIwIiBzdHlsZT0iZmlsbDojODA0OTk4IiBkPSJtIDY1LjUyLDI4LjQ0IC05Ljk2LDMuOCBWIDE2LjEyIGwgOS45NiwzLjU0IHoiLz4mI3hhOyYjeGE7JiN4YTsmI3hhOyYjeGE7JiN4YTsmI3hhOyYjeGE7JiN4YTsmI3hhOyYjeGE7JiN4YTsmI3hhOyYjeGE7JiN4YTsmI3hhOzxwYXRoIGlkPSJwYXRoNTYwMTIiIGlua3NjYXBlOmNvbm5lY3Rvci1jdXJ2YXR1cmU9IjAiIHN0eWxlPSJmaWxsOiM4MDQ5OTgiIGQ9Im0gNDYuMzksMTguNzQgdiAxMC42MSBsIDcuNDcsMi44OSBWIDE2LjEyIFogbSAwLjc5LDkuODMgLTAuNCwtMC4xMyB2IC04Ljc4IGwgMC40LC0wLjEzIDAuMzksLTAuMTQgMC4zOSwtMC4xMyB2IDkuNTcgTCA0Ny41NywyOC43IFogbSAxLjk2LDAuNjUgLTAuNTIsLTAuMTMgdiAtOS44MyBsIDAuNTIsLTAuMTMgMC41MywtMC4xMyAwLjUyLC0wLjEzIHYgMTAuNzUgbCAtMC41MiwtMC4xNCB6IG0gMi4zNiwwLjc5IC0wLjY1LC0wLjI2IFYgMTguNjEgbCAwLjY1LC0wLjEzIDAuNjYsLTAuMjcgMC43OCwtMC4yNiBWIDMwLjQgbCAtMC43OCwtMC4yNiB6Ii8+JiN4YTs8L3N2Zz4=;" vertex="1" parent="1">
          <mxGeometry x="913.67" y="1579.97" width="140" height="101.82" as="geometry" />
        </mxCell>
        <mxCell id="fedirBiWEbgYZT4gXUIa-13" style="edgeStyle=elbowEdgeStyle;rounded=0;orthogonalLoop=1;jettySize=auto;html=1;strokeColor=#808080;exitX=1;exitY=0.5;exitDx=0;exitDy=0;" edge="1" parent="1">
          <mxGeometry relative="1" as="geometry">
            <mxPoint x="693.5200000000001" y="1627.59" as="sourcePoint" />
            <mxPoint x="900" y="1628" as="targetPoint" />
            <Array as="points">
              <mxPoint x="856.85" y="1468.72" />
            </Array>
          </mxGeometry>
        </mxCell>
        <mxCell id="fedirBiWEbgYZT4gXUIa-15" value="" style="aspect=fixed;sketch=0;html=1;dashed=0;whitespace=wrap;fillColor=#2875E2;strokeColor=#ffffff;points=[[0.005,0.63,0],[0.1,0.2,0],[0.9,0.2,0],[0.5,0,0],[0.995,0.63,0],[0.72,0.99,0],[0.5,1,0],[0.28,0.99,0]];shape=mxgraph.kubernetes.icon2;prIcon=pod" vertex="1" parent="1">
          <mxGeometry x="930.5" y="1770" width="110" height="105.6" as="geometry" />
        </mxCell>
        <mxCell id="fedirBiWEbgYZT4gXUIa-16" style="edgeStyle=elbowEdgeStyle;rounded=0;orthogonalLoop=1;jettySize=auto;html=1;strokeColor=#808080;exitX=1;exitY=0.5;exitDx=0;exitDy=0;" edge="1" parent="1">
          <mxGeometry relative="1" as="geometry">
            <mxPoint x="1057.7600000000002" y="1830" as="sourcePoint" />
            <mxPoint x="1660" y="1830" as="targetPoint" />
            <Array as="points">
              <mxPoint x="1221.0900000000001" y="1671.13" />
            </Array>
          </mxGeometry>
        </mxCell>
        <mxCell id="fedirBiWEbgYZT4gXUIa-17" value="" style="rounded=0;whiteSpace=wrap;html=1;labelBackgroundColor=#ffffff;fillColor=#f5f5f5;strokeColor=none;fontColor=#333333;" vertex="1" parent="1">
          <mxGeometry x="520.17" y="2000" width="927" height="450" as="geometry" />
        </mxCell>
        <mxCell id="fedirBiWEbgYZT4gXUIa-18" style="edgeStyle=elbowEdgeStyle;rounded=0;orthogonalLoop=1;jettySize=auto;html=1;strokeColor=#808080;exitX=1;exitY=0.5;exitDx=0;exitDy=0;" edge="1" parent="1">
          <mxGeometry relative="1" as="geometry">
            <mxPoint x="356.5400000000001" y="2110.3199999999997" as="sourcePoint" />
            <mxPoint x="589.87" y="2110.45" as="targetPoint" />
            <Array as="points">
              <mxPoint x="519.87" y="1951.45" />
            </Array>
          </mxGeometry>
        </mxCell>
        <mxCell id="fedirBiWEbgYZT4gXUIa-19" style="edgeStyle=elbowEdgeStyle;rounded=0;orthogonalLoop=1;jettySize=auto;elbow=vertical;html=1;strokeColor=#808080;" edge="1" parent="1">
          <mxGeometry relative="1" as="geometry">
            <mxPoint x="983.08" y="2171.79" as="sourcePoint" />
            <mxPoint x="983" y="2250" as="targetPoint" />
            <Array as="points" />
          </mxGeometry>
        </mxCell>
        <mxCell id="fedirBiWEbgYZT4gXUIa-20" value="" style="shape=image;verticalLabelPosition=bottom;labelBackgroundColor=#ffffff;verticalAlign=top;aspect=fixed;imageAspect=0;image=data:image/svg+xml,PHN2ZyB4bWxuczpjYz0iaHR0cDovL2NyZWF0aXZlY29tbW9ucy5vcmcvbnMjIiB4bWxuczpkYz0iaHR0cDovL3B1cmwub3JnL2RjL2VsZW1lbnRzLzEuMS8iIHhtbG5zOmlua3NjYXBlPSJodHRwOi8vd3d3Lmlua3NjYXBlLm9yZy9uYW1lc3BhY2VzL2lua3NjYXBlIiB4bWxuczpyZGY9Imh0dHA6Ly93d3cudzMub3JnLzE5OTkvMDIvMjItcmRmLXN5bnRheC1ucyMiIHhtbG5zOnNvZGlwb2RpPSJodHRwOi8vc29kaXBvZGkuc291cmNlZm9yZ2UubmV0L0RURC9zb2RpcG9kaS0wLmR0ZCIgeG1sbnM6c3ZnPSJodHRwOi8vd3d3LnczLm9yZy8yMDAwL3N2ZyIgeG1sbnM9Imh0dHA6Ly93d3cudzMub3JnLzIwMDAvc3ZnIiB4bWxuczp4bGluaz0iaHR0cDovL3d3dy53My5vcmcvMTk5OS94bGluayIgdmVyc2lvbj0iMS4xIiBpZD0ic3ZnODAxNTgiIGlua3NjYXBlOnZlcnNpb249IjAuOTIuMyAoMjQwNTU0NiwgMjAxOC0wMy0xMSkiIHNvZGlwb2RpOmRvY25hbWU9ImV2ZW50X2h1YnMuc3ZnIiB4PSIwcHgiIHk9IjBweCIgdmlld0JveD0iMCAwIDIzLjQgMjQuMDQiIHN0eWxlPSJlbmFibGUtYmFja2dyb3VuZDpuZXcgMCAwIDIzLjQgMjQuMDQ7IiB4bWw6c3BhY2U9InByZXNlcnZlIj4mI3hhOzxzb2RpcG9kaTpuYW1lZHZpZXcgYm9yZGVyY29sb3I9IiM2NjY2NjYiIGJvcmRlcm9wYWNpdHk9IjEiIGZpdC1tYXJnaW4tYm90dG9tPSIwIiBmaXQtbWFyZ2luLWxlZnQ9IjAiIGZpdC1tYXJnaW4tcmlnaHQ9IjAiIGZpdC1tYXJnaW4tdG9wPSIwIiBncmlkdG9sZXJhbmNlPSIxMCIgZ3VpZGV0b2xlcmFuY2U9IjEwIiBpZD0ibmFtZWR2aWV3ODAxNjAiIGlua3NjYXBlOmN1cnJlbnQtbGF5ZXI9InN2ZzgwMTU4IiBpbmtzY2FwZTpjeD0iMTIuMjIxNzY5IiBpbmtzY2FwZTpjeT0iMTUuMjI5NTkiIGlua3NjYXBlOnBhZ2VvcGFjaXR5PSIwIiBpbmtzY2FwZTpwYWdlc2hhZG93PSIyIiBpbmtzY2FwZTp3aW5kb3ctaGVpZ2h0PSIxMDE3IiBpbmtzY2FwZTp3aW5kb3ctbWF4aW1pemVkPSIxIiBpbmtzY2FwZTp3aW5kb3ctd2lkdGg9IjE5MjAiIGlua3NjYXBlOndpbmRvdy14PSItOCIgaW5rc2NhcGU6d2luZG93LXk9Ii04IiBpbmtzY2FwZTp6b29tPSIxNy45Njc2ODkiIG9iamVjdHRvbGVyYW5jZT0iMTAiIHBhZ2Vjb2xvcj0iI2ZmZmZmZiIgc2hvd2dyaWQ9ImZhbHNlIj4mI3hhOwk8L3NvZGlwb2RpOm5hbWVkdmlldz4mI3hhOzxnIGlkPSJnODAxNTYiIHRyYW5zZm9ybT0idHJhbnNsYXRlKC0wLjc3Mjc3NTk3LC0wLjc3NDk3MykiPiYjeGE7CTx0aXRsZSBpZD0idGl0bGU4MDExMSI+UGFnZS0xPC90aXRsZT4mI3hhOwk8ZyBpZD0iZ3JvdXA0NDYxLTEiIHRyYW5zZm9ybT0idHJhbnNsYXRlKDAuNzcyNzI3LC0wLjc3MjcyNykiPiYjeGE7CQk8dGl0bGUgaWQ9InRpdGxlODAxMTMiPkV2ZW50IGh1YnMuNDQwPC90aXRsZT4mI3hhOwkJPGcgaWQ9InNoYXBlNDQ2Mi0yIiB0cmFuc2Zvcm09InRyYW5zbGF0ZSgxMC41MTU5LC0xMi44MTk5KSI+JiN4YTsJCQk8dGl0bGUgaWQ9InRpdGxlODAxMTUiPlNoZWV0LjQ0NjI8L3RpdGxlPiYjeGE7CQkJPHBhdGggaWQ9InBhdGg4MDExNyIgaW5rc2NhcGU6Y29ubmVjdG9yLWN1cnZhdHVyZT0iMCIgc3R5bGU9ImZpbGw6I0I4RDQzMjsiIGQ9Ik0zLjk2LDI1LjE4YzAsMC4yMy0wLjE4LDAuNDEtMC40MiwwLjQxSDAuNDEgICAgIEMwLjE4LDI1LjU5LDAsMjUuNDEsMCwyNS4xOHYtMi4zMWMwLTAuMjMsMC4xOC0wLjQxLDAuNDEtMC40MWgzLjEzYzAuMjQsMCwwLjQyLDAuMTgsMC40MiwwLjQxTDMuOTYsMjUuMTh6Ii8+JiN4YTsJCTwvZz4mI3hhOwkJPGcgaWQ9InNoYXBlNDQ2My00IiB0cmFuc2Zvcm09InRyYW5zbGF0ZSgxNi4xODc0LC0xMC4zOTc3KSI+JiN4YTsJCQk8dGl0bGUgaWQ9InRpdGxlODAxMjAiPlNoZWV0LjQ0NjM8L3RpdGxlPiYjeGE7CQkJPHBhdGggaWQ9InBhdGg4MDEyMiIgaW5rc2NhcGU6Y29ubmVjdG9yLWN1cnZhdHVyZT0iMCIgc3R5bGU9ImZpbGw6I0I4RDQzMjsiIGQ9Ik0zLjksMjUuMThjMCwwLjIzLTAuMTgsMC40MS0wLjQxLDAuNDFIMC40MSAgICAgQzAuMTgsMjUuNTksMCwyNS40MSwwLDI1LjE4di0yLjMxYzAtMC4yMywwLjE4LTAuNDEsMC40MS0wLjQxaDMuMTNjMC4yNCwwLDAuNDIsMC4xOCwwLjQyLDAuNDF2Mi4zMUgzLjl6Ii8+JiN4YTsJCTwvZz4mI3hhOwkJPGcgaWQ9InNoYXBlNDQ2NC02IiB0cmFuc2Zvcm09InRyYW5zbGF0ZSgxMC41MTU5LC03Ljk3NTUzKSI+JiN4YTsJCQk8dGl0bGUgaWQ9InRpdGxlODAxMjUiPlNoZWV0LjQ0NjQ8L3RpdGxlPiYjeGE7CQkJPHBhdGggaWQ9InBhdGg4MDEyNyIgaW5rc2NhcGU6Y29ubmVjdG9yLWN1cnZhdHVyZT0iMCIgc3R5bGU9ImZpbGw6I0I4RDQzMjsiIGQ9Ik0zLjk2LDI1LjE4YzAsMC4yMy0wLjE4LDAuNDEtMC40MiwwLjQxSDAuNDEgICAgIEMwLjE4LDI1LjU5LDAsMjUuNDEsMCwyNS4xOHYtMi4zMWMwLTAuMjMsMC4xOC0wLjQxLDAuNDEtMC40MWgzLjEzYzAuMjQsMCwwLjQyLDAuMTgsMC40MiwwLjQxTDMuOTYsMjUuMTh6Ii8+JiN4YTsJCTwvZz4mI3hhOwkJPGcgaWQ9InNoYXBlNDQ2NS04IiB0cmFuc2Zvcm09InRyYW5zbGF0ZSg0Ljg0NDQsLTE1LjI0MjEpIj4mI3hhOwkJCTx0aXRsZSBpZD0idGl0bGU4MDEzMCI+U2hlZXQuNDQ2NTwvdGl0bGU+JiN4YTsJCQk8cGF0aCBpZD0icGF0aDgwMTMyIiBpbmtzY2FwZTpjb25uZWN0b3ItY3VydmF0dXJlPSIwIiBzdHlsZT0iZmlsbDojQjhENDMyOyIgZD0iTTQuMDIsMjUuMThjMCwwLjIzLTAuMTgsMC40MS0wLjQyLDAuNDFIMC40MSAgICAgQzAuMTgsMjUuNTksMCwyNS40MSwwLDI1LjE4di0yLjQzYzAtMC4yMywwLjE4LTAuNDEsMC40MS0wLjQxaDMuMTNjMC4zLDAsMC40OCwwLjE4LDAuNDgsMC40MVYyNS4xOHoiLz4mI3hhOwkJPC9nPiYjeGE7CQk8ZyBpZD0ic2hhcGU0NDY2LTEwIiB0cmFuc2Zvcm09InRyYW5zbGF0ZSgwLC0xOC40MzIzKSI+JiN4YTsJCQk8dGl0bGUgaWQ9InRpdGxlODAxMzUiPlNoZWV0LjQ0NjY8L3RpdGxlPiYjeGE7CQkJPHBhdGggaWQ9InBhdGg4MDEzNyIgaW5rc2NhcGU6Y29ubmVjdG9yLWN1cnZhdHVyZT0iMCIgc3R5bGU9ImZpbGw6IzAwNzJDNjsiIGQ9Ik0yMi45MiwxOS45OGgtMC4wNmgtMi4zSDIuODRoLTEuNkgwLjQxICAgICBDMC4xOCwxOS45OCwwLDIwLjE2LDAsMjAuMzl2NC43OWMwLDAuMjMsMC4xOCwwLjQxLDAuNDEsMC40MWgyLjQzYzAuMjMsMCwwLjQxLTAuMTgsMC40MS0wLjQxdi0yLjAxaDE2Ljg0djIuMDEgICAgIGMwLDAuMjMsMC4xNywwLjQxLDAuNDcsMC40MWgyLjNjMC4yNCwwLDAuNDItMC4xOCwwLjQyLTAuNDF2LTIuNDN2LTIuMzZDMjMuMzQsMjAuMTYsMjMuMTYsMTkuOTgsMjIuOTIsMTkuOTh6Ii8+JiN4YTsJCTwvZz4mI3hhOwkJPGcgaWQ9InNoYXBlNDQ2Ny0xMiIgdHJhbnNmb3JtPSJ0cmFuc2xhdGUoMC4xMTgxNTYpIj4mI3hhOwkJCTx0aXRsZSBpZD0idGl0bGU4MDE0MCI+U2hlZXQuNDQ2NzwvdGl0bGU+JiN4YTsJCQk8cGF0aCBpZD0icGF0aDgwMTQyIiBpbmtzY2FwZTpjb25uZWN0b3ItY3VydmF0dXJlPSIwIiBzdHlsZT0iZmlsbDojMDA3MkM2OyIgZD0iTTIyLjgsMjAuMDRoLTIuM2MtMC4yNCwwLTAuNDEsMC4xNy0wLjQxLDAuNDEgICAgIHYxLjk1SDMuMTl2LTIuMDFjMC0wLjIzLTAuMTgtMC40MS0wLjQ3LTAuNDFIMC40MUMwLjE4LDE5Ljk4LDAsMjAuMTYsMCwyMC40NXY0LjczYzAsMC4yMywwLjE4LDAuNDEsMC40MSwwLjQxaDAuODNoMS42aDE3LjcyICAgICBoMi4yNGgwLjA2YzAuMjQsMCwwLjQyLTAuMTgsMC40Mi0wLjQxdi00LjczQzIzLjIyLDIwLjIxLDIzLjA0LDIwLjA0LDIyLjgsMjAuMDR6Ii8+JiN4YTsJCTwvZz4mI3hhOwkJPGcgaWQ9InNoYXBlNDQ2OC0xNCIgdHJhbnNmb3JtPSJ0cmFuc2xhdGUoNC45MDM0NywtMTAuNDU2OCkiPiYjeGE7CQkJPHRpdGxlIGlkPSJ0aXRsZTgwMTQ1Ij5TaGVldC40NDY4PC90aXRsZT4mI3hhOwkJCTxwYXRoIGlkPSJwYXRoODAxNDciIGlua3NjYXBlOmNvbm5lY3Rvci1jdXJ2YXR1cmU9IjAiIHN0eWxlPSJmaWxsOiNCOEQ0MzI7IiBkPSJNMy45NiwyNS4xOGMwLDAuMjMtMC4xOCwwLjQxLTAuNDIsMC40MUgwLjQxICAgICBDMC4xOCwyNS41OSwwLDI1LjQxLDAsMjUuMTh2LTIuMzFjMC0wLjIzLDAuMTgtMC40MSwwLjQxLTAuNDFoMy4xM2MwLjI0LDAsMC40MiwwLjE4LDAuNDIsMC40MUwzLjk2LDI1LjE4eiIvPiYjeGE7CQk8L2c+JiN4YTsJCTxnIGlkPSJzaGFwZTQ0NjktMTYiIHRyYW5zZm9ybT0idHJhbnNsYXRlKDQuODQ0NCwtNS42MTI0MSkiPiYjeGE7CQkJPHRpdGxlIGlkPSJ0aXRsZTgwMTUwIj5TaGVldC40NDY5PC90aXRsZT4mI3hhOwkJCTxwYXRoIGlkPSJwYXRoODAxNTIiIGlua3NjYXBlOmNvbm5lY3Rvci1jdXJ2YXR1cmU9IjAiIHN0eWxlPSJmaWxsOiNCOEQ0MzI7IiBkPSJNMy45NiwyNS4xOGMwLDAuMjMtMC4xOCwwLjQxLTAuNDIsMC40MUgwLjQxICAgICBDMC4xOCwyNS41OSwwLDI1LjQxLDAsMjUuMTh2LTIuMzFjMC0wLjIzLDAuMTgtMC40MSwwLjQxLTAuNDFoMy4xM2MwLjI0LDAsMC40MiwwLjE4LDAuNDIsMC40MUwzLjk2LDI1LjE4eiIvPiYjeGE7CQk8L2c+JiN4YTsJPC9nPiYjeGE7PC9nPiYjeGE7PC9zdmc+;" vertex="1" parent="1">
          <mxGeometry x="225" y="2050.05" width="116.67" height="121.74" as="geometry" />
        </mxCell>
        <mxCell id="fedirBiWEbgYZT4gXUIa-21" value="" style="shape=image;verticalLabelPosition=bottom;labelBackgroundColor=#ffffff;verticalAlign=top;aspect=fixed;imageAspect=0;image=data:image/svg+xml,PHN2ZyB4bWxuczpjYz0iaHR0cDovL2NyZWF0aXZlY29tbW9ucy5vcmcvbnMjIiB4bWxuczpkYz0iaHR0cDovL3B1cmwub3JnL2RjL2VsZW1lbnRzLzEuMS8iIHhtbG5zOmlua3NjYXBlPSJodHRwOi8vd3d3Lmlua3NjYXBlLm9yZy9uYW1lc3BhY2VzL2lua3NjYXBlIiB4bWxuczpyZGY9Imh0dHA6Ly93d3cudzMub3JnLzE5OTkvMDIvMjItcmRmLXN5bnRheC1ucyMiIHhtbG5zOnNvZGlwb2RpPSJodHRwOi8vc29kaXBvZGkuc291cmNlZm9yZ2UubmV0L0RURC9zb2RpcG9kaS0wLmR0ZCIgeG1sbnM6c3ZnPSJodHRwOi8vd3d3LnczLm9yZy8yMDAwL3N2ZyIgeG1sbnM9Imh0dHA6Ly93d3cudzMub3JnLzIwMDAvc3ZnIiB4bWxuczp4bGluaz0iaHR0cDovL3d3dy53My5vcmcvMTk5OS94bGluayIgdmVyc2lvbj0iMS4xIiBpZD0ic3ZnOTA4MDciIGlua3NjYXBlOnZlcnNpb249IjAuOTIuMyAoMjQwNTU0NiwgMjAxOC0wMy0xMSkiIHNvZGlwb2RpOmRvY25hbWU9InBvc3RncmVzcWwuc3ZnIiB4PSIwcHgiIHk9IjBweCIgdmlld0JveD0iMCAwIDI4LjUxIDM3LjQ1IiBzdHlsZT0iZW5hYmxlLWJhY2tncm91bmQ6bmV3IDAgMCAyOC41MSAzNy40NTsiIHhtbDpzcGFjZT0icHJlc2VydmUiPiYjeGE7PHNvZGlwb2RpOm5hbWVkdmlldyBib3JkZXJjb2xvcj0iIzY2NjY2NiIgYm9yZGVyb3BhY2l0eT0iMSIgZml0LW1hcmdpbi1ib3R0b209IjAiIGZpdC1tYXJnaW4tbGVmdD0iMCIgZml0LW1hcmdpbi1yaWdodD0iMCIgZml0LW1hcmdpbi10b3A9IjAiIGdyaWR0b2xlcmFuY2U9IjEwIiBndWlkZXRvbGVyYW5jZT0iMTAiIGlkPSJuYW1lZHZpZXc5MDgwOSIgaW5rc2NhcGU6Y3VycmVudC1sYXllcj0ic3ZnOTA4MDciIGlua3NjYXBlOmN4PSIzMy4wMjY1OTYiIGlua3NjYXBlOmN5PSIyMi4yNDk0MjciIGlua3NjYXBlOnBhZ2VvcGFjaXR5PSIwIiBpbmtzY2FwZTpwYWdlc2hhZG93PSIyIiBpbmtzY2FwZTp3aW5kb3ctaGVpZ2h0PSIxMDE3IiBpbmtzY2FwZTp3aW5kb3ctbWF4aW1pemVkPSIxIiBpbmtzY2FwZTp3aW5kb3ctd2lkdGg9IjE5MjAiIGlua3NjYXBlOndpbmRvdy14PSItOCIgaW5rc2NhcGU6d2luZG93LXk9Ii04IiBpbmtzY2FwZTp6b29tPSIxMS44MDQ2MzIiIG9iamVjdHRvbGVyYW5jZT0iMTAiIHBhZ2Vjb2xvcj0iI2ZmZmZmZiIgc2hvd2dyaWQ9ImZhbHNlIj4mI3hhOwk8L3NvZGlwb2RpOm5hbWVkdmlldz4mI3hhOzxnIGlkPSJnOTA4MDUiIHRyYW5zZm9ybT0idHJhbnNsYXRlKC0wLjc1LC0wLjc1MTkpIj4mI3hhOwk8dGl0bGUgaWQ9InRpdGxlOTA3MDUiPlBhZ2UtMTwvdGl0bGU+JiN4YTsJPGcgaWQ9Imdyb3VwNDk0Ni0xIiB0cmFuc2Zvcm09InRyYW5zbGF0ZSgwLjc1LC0wLjc1KSI+JiN4YTsJCTx0aXRsZSBpZD0idGl0bGU5MDcwNyI+UG9zdGdyZVNRTC40OTA8L3RpdGxlPiYjeGE7CQk8ZyBpZD0iZ3JvdXA0OTQ3LTIiPiYjeGE7CQkJPHRpdGxlIGlkPSJ0aXRsZTkwNzA5Ij5DSGVja21hcmtfMjwvdGl0bGU+JiN4YTsJCQk8ZyBpZD0ic2hhcGU0OTQ4LTMiPiYjeGE7CQkJCTx0aXRsZSBpZD0idGl0bGU5MDcxMSI+cGF0aDM2ODY8L3RpdGxlPiYjeGE7CQkJCTxwYXRoIGlkPSJwYXRoOTA3MTMiIGlua3NjYXBlOmNvbm5lY3Rvci1jdXJ2YXR1cmU9IjAiIHN0eWxlPSJmaWxsOiMzOTk4QzU7IiBkPSJNMCw2LjQ4djI3LjQ1YzAsMi44OCw2LjM2LDUuMDIsMTQuMTcsNS4wMiAgICAgIFY2LjQ4SDB6Ii8+JiN4YTsJCQk8L2c+JiN4YTsJCQk8ZyBpZD0ic2hhcGU0OTQ5LTUiIHRyYW5zZm9ybT0idHJhbnNsYXRlKDE0LjE3MDEpIj4mI3hhOwkJCQk8dGl0bGUgaWQ9InRpdGxlOTA3MTYiPnBhdGgzNjg4PC90aXRsZT4mI3hhOwkJCQk8cGF0aCBpZD0icGF0aDkwNzE4IiBpbmtzY2FwZTpjb25uZWN0b3ItY3VydmF0dXJlPSIwIiBzdHlsZT0iZmlsbDojNTlCM0Q4OyIgZD0iTTAsMzguOTVoMC4wOGM3Ljc1LDAsMTQuMDktMi4yNywxNC4wOS01LjE1ICAgICAgVjYuNDhIMFYzOC45NXoiLz4mI3hhOwkJCTwvZz4mI3hhOwkJCTxnIGlkPSJzaGFwZTQ5NTAtNyIgdHJhbnNmb3JtPSJ0cmFuc2xhdGUoMCwtMjcuMTE4MSkiPiYjeGE7CQkJCTx0aXRsZSBpZD0idGl0bGU5MDcyMSI+cGF0aDM2OTA8L3RpdGxlPiYjeGE7CQkJCTxwYXRoIGlkPSJwYXRoOTA3MjMiIGlua3NjYXBlOmNvbm5lY3Rvci1jdXJ2YXR1cmU9IjAiIHN0eWxlPSJmaWxsOiNGRkZGRkY7IiBkPSJNMjguNTEsMzMuNzljMCwyLjgtNi4zOSw1LjE2LTE0LjIyLDUuMTYgICAgICBDNi40NywzOC45NSwwLDM2LjU5LDAsMzMuNzlzNi4zOS01LjE3LDE0LjIyLTUuMTdTMjguNTEsMzAuOTgsMjguNTEsMzMuNzl6Ii8+JiN4YTsJCQk8L2c+JiN4YTsJCQk8ZyBpZD0ic2hhcGU0OTUxLTkiIHRyYW5zZm9ybT0idHJhbnNsYXRlKDIuODg3MTcsLTI5LjE2NjkpIj4mI3hhOwkJCQk8dGl0bGUgaWQ9InRpdGxlOTA3MjYiPnBhdGgzNjkyPC90aXRsZT4mI3hhOwkJCQk8cGF0aCBpZD0icGF0aDkwNzI4IiBpbmtzY2FwZTpjb25uZWN0b3ItY3VydmF0dXJlPSIwIiBzdHlsZT0iZmlsbDojN0ZCOTAwOyIgZD0iTTIyLjc0LDM1LjUzYzAsMS45LTUuMSwzLjQyLTExLjMzLDMuNDIgICAgICBDNS4xNywzOC45NSwwLDM3LjQ2LDAsMzUuNTNjMC0xLjkyLDUuMS0zLjQyLDExLjMzLTMuNDJDMTcuNTcsMzIuMTEsMjIuNzQsMzMuNjMsMjIuNzQsMzUuNTN6Ii8+JiN4YTsJCQk8L2c+JiN4YTsJCQk8ZyBpZD0ic2hhcGU0OTUyLTExIiB0cmFuc2Zvcm09InRyYW5zbGF0ZSgyLjg4NzE3LC0zMC41MzA3KSI+JiN4YTsJCQkJPHRpdGxlIGlkPSJ0aXRsZTkwNzMxIj5wYXRoMzY5NDwvdGl0bGU+JiN4YTsJCQkJPHBhdGggaWQ9InBhdGg5MDczMyIgaW5rc2NhcGU6Y29ubmVjdG9yLWN1cnZhdHVyZT0iMCIgc3R5bGU9ImZpbGw6I0I3RDMzMjsiIGQ9Ik0yMC4zLDM4Ljk1YzEuNTMtMC41OSwyLjM3LTEuMjksMi4zNy0yLjA1ICAgICAgYzAtMS45MS01LjEtMy40Mi0xMS4zMy0zLjQyQzUuMSwzMy40OCwwLDM0Ljk5LDAsMzYuOWMwLDAuNzYsMC45MiwxLjUyLDIuMzYsMi4wNWMyLjA2LTAuODQsNS4zMi0xLjI5LDguOTgtMS4yOSAgICAgIGMzLjA0LTAuMDcsNi4wNywwLjM3LDguOTcsMS4yOUgyMC4zeiIvPiYjeGE7CQkJCTxwYXRoIGlkPSJwYXRoOTA3MzUiIGlua3NjYXBlOmNvbm5lY3Rvci1jdXJ2YXR1cmU9IjAiIHN0eWxlPSJmaWxsOm5vbmU7IiBkPSJNMjAuMywzOC45NWMxLjUzLTAuNTksMi4zNy0xLjI5LDIuMzctMi4wNSAgICAgIGMwLTEuOTEtNS4xLTMuNDItMTEuMzMtMy40MkM1LjEsMzMuNDgsMCwzNC45OSwwLDM2LjljMCwwLjc2LDAuOTIsMS41MiwyLjM2LDIuMDVjMi4wNi0wLjg0LDUuMzItMS4yOSw4Ljk4LTEuMjkgICAgICBjMy4wNC0wLjA3LDYuMDcsMC4zNyw4Ljk3LDEuMjkiLz4mI3hhOwkJCTwvZz4mI3hhOwkJCTxnIGlkPSJncm91cDQ5NTMtMTQiIHRyYW5zZm9ybT0idHJhbnNsYXRlKDQuNjg3OTUsLTQuNjIzMDEpIj4mI3hhOwkJCQk8dGl0bGUgaWQ9InRpdGxlOTA3MzgiPkxheWVyXzM8L3RpdGxlPiYjeGE7CQkJCTxnIGlkPSJzaGFwZTQ5NTQtMTUiIHRyYW5zZm9ybT0idHJhbnNsYXRlKDAuMDM1NDI1NCkiPiYjeGE7CQkJCQk8dGl0bGUgaWQ9InRpdGxlOTA3NDAiPnBhdGgzNjk2PC90aXRsZT4mI3hhOwkJCQkJPHBhdGggaWQ9InBhdGg5MDc0MiIgaW5rc2NhcGU6Y29ubmVjdG9yLWN1cnZhdHVyZT0iMCIgc3R5bGU9ImZpbGw6IzMzNjc5MDsiIGQ9Ik0xNy41NCwzMS42OGMtMi4yNiwwLjQ3LTIuNDItMC4zLTIuNDItMC4zICAgICAgIGMyLjM2LTMuNTQsMy4zOS04LjA1LDIuNTMtOS4xNGMtMi4zNi0zLjAxLTYuNDMtMS41OS02LjUtMS41NWMtMC41LTAuMS0xLTAuMTUtMS41MS0wLjE2Yy0wLjg0LTAuMDQtMS42OCwwLjIxLTIuMzYsMC43MSAgICAgICBjMCwwLTcuMjgtMi45OC02Ljk2LDMuNzdjMC4wNywxLjQ0LDIuMDQsMTAuODcsNC40LDguMDJjMC44Ny0xLjAzLDEuNy0xLjkyLDEuNy0xLjkyYzAuNDIsMC4yOSwwLjkzLDAuNDIsMS40NCwwLjM3bDAuMDQtMC4wNCAgICAgICBjLTAuMDIsMC4xNC0wLjAyLDAuMjcsMCwwLjQxYy0wLjU5LDAuNjgtMC40MywwLjgtMS42NSwxLjA1Yy0xLjIzLDAuMjUtMC41MSwwLjcxLTAuMDQsMC44M2MxLjAzLDAuMzMsMi4xNi0wLjAzLDIuOC0wLjkxICAgICAgIGwtMC4wNCwwLjE0YzAuMjUsMC4xOSwwLjQxLDEuMjQsMC4zOCwyLjJjLTAuMDgsMC43MS0wLjAzLDEuNDMsMC4xNCwyLjEzYzAuMTksMC41MSwwLjM4LDEuNjYsMS45OSwxLjMyICAgICAgIGMxLjM0LTAuMjksMi4wMy0xLjA0LDIuMTMtMi4yOGMwLjA2LTAuODcsMC4yMi0wLjc0LDAuMjQtMS41NGwwLjEyLTAuMzdjMC4xNC0xLjE4LDAtMS41OCwwLjg1LTEuNGgwLjIgICAgICAgYzAuNjQsMC4wMywxLjI4LTAuMDgsMS44Ny0wLjMyYzEuMDEtMC40NiwxLjYtMS4yNCwwLjU5LTEuMDRMMTcuNTQsMzEuNjh6Ii8+JiN4YTsJCQkJPC9nPiYjeGE7CQkJCTxnIGlkPSJzaGFwZTQ5NTUtMTciIHRyYW5zZm9ybT0idHJhbnNsYXRlKDkuMTIyMDMsLTAuMzA3MDIpIj4mI3hhOwkJCQkJPHRpdGxlIGlkPSJ0aXRsZTkwNzQ1Ij5wYXRoMzY5ODwvdGl0bGU+JiN4YTsJCQkJCTxwYXRoIGlkPSJwYXRoOTA3NDciIGlua3NjYXBlOmNvbm5lY3Rvci1jdXJ2YXR1cmU9IjAiIHN0eWxlPSJmaWxsOm5vbmU7IiBkPSJNMC4wNiwzMi42N2MtMC4wNiwyLjIzLDAsNC40NywwLjI0LDUuMDIgICAgICAgYzAuMjMsMC45NSwxLjE5LDEuNTMsMi4xNCwxLjNjMC4wNS0wLjAxLDAuMS0wLjAzLDAuMTUtMC4wNGMxLjM0LTAuMjksMS44My0wLjg0LDIuMDQtMi4wN2MwLjE2LTAuOTEsMC40Ni0zLjQxLDAuNS0zLjkzICAgICAgIEwwLjA2LDMyLjY3eiIvPiYjeGE7CQkJCQkmI3hhOwkJCQkJCTxwYXRoIGlkPSJwYXRoOTA3NDkiIGlua3NjYXBlOmNvbm5lY3Rvci1jdXJ2YXR1cmU9IjAiIHN0eWxlPSJmaWxsOm5vbmU7c3Ryb2tlOiNGRkZGRkY7c3Ryb2tlLXdpZHRoOjAuNzY1O3N0cm9rZS1saW5lY2FwOnJvdW5kO3N0cm9rZS1saW5lam9pbjpyb3VuZDtzdHJva2UtbWl0ZXJsaW1pdDozOyIgZD0iICAgICAgIE0wLjA2LDMyLjY3Yy0wLjA2LDIuMjMsMCw0LjQ3LDAuMjQsNS4wMmMwLjIzLDAuOTUsMS4xOSwxLjUzLDIuMTQsMS4zYzAuMDUtMC4wMSwwLjEtMC4wMywwLjE1LTAuMDQgICAgICAgYzEuMzQtMC4yOSwxLjgzLTAuODQsMi4wNC0yLjA3YzAuMTYtMC45MSwwLjQ2LTMuNDEsMC41LTMuOTMiLz4mI3hhOwkJCQk8L2c+JiN4YTsJCQkJPGcgaWQ9InNoYXBlNDk1Ni0yMCIgdHJhbnNmb3JtPSJ0cmFuc2xhdGUoMCwtMy4wOTM4MSkiPiYjeGE7CQkJCQk8dGl0bGUgaWQ9InRpdGxlOTA3NTIiPnBhdGgzNzAwPC90aXRsZT4mI3hhOwkJCQkJPHBhdGggaWQ9InBhdGg5MDc1NCIgaW5rc2NhcGU6Y29ubmVjdG9yLWN1cnZhdHVyZT0iMCIgc3R5bGU9ImZpbGw6bm9uZTsiIGQ9Ik03LjI3LDI0LjI3YzAsMC03LjI3LTIuOTUtNi45MywzLjc5ICAgICAgIGMwLjA3LDEuNDYsMi4wNiwxMC44OSw0LjQyLDguMDJjMC44Ny0xLjA0LDEuNjUtMS44NiwxLjY1LTEuODZMNy4yNywyNC4yN3oiLz4mI3hhOwkJCQkJJiN4YTsJCQkJCQk8cGF0aCBpZD0icGF0aDkwNzU2IiBpbmtzY2FwZTpjb25uZWN0b3ItY3VydmF0dXJlPSIwIiBzdHlsZT0iZmlsbDpub25lO3N0cm9rZTojRkZGRkZGO3N0cm9rZS13aWR0aDowLjc2NTtzdHJva2UtbGluZWNhcDpyb3VuZDtzdHJva2UtbGluZWpvaW46cm91bmQ7c3Ryb2tlLW1pdGVybGltaXQ6MzsiIGQ9IiAgICAgICBNNy4yNywyNC4yN2MwLDAtNy4yNy0yLjk1LTYuOTMsMy43OWMwLjA3LDEuNDYsMi4wNiwxMC44OSw0LjQyLDguMDJjMC44Ny0xLjA0LDEuNjUtMS44NiwxLjY1LTEuODYiLz4mI3hhOwkJCQk8L2c+JiN4YTsJCQkJPGcgaWQ9InNoYXBlNDk1Ny0yMyIgdHJhbnNmb3JtPSJ0cmFuc2xhdGUoMTAuOTM0NiwtNy41OTg3NCkiPiYjeGE7CQkJCQk8dGl0bGUgaWQ9InRpdGxlOTA3NTkiPnBhdGgzNzAyPC90aXRsZT4mI3hhOwkJCQkJPHBhdGggaWQ9InBhdGg5MDc2MSIgaW5rc2NhcGU6Y29ubmVjdG9yLWN1cnZhdHVyZT0iMCIgc3R5bGU9ImZpbGw6bm9uZTsiIGQ9Ik0wLjI1LDI4LjI2QzAsMjguMzMsNC4yOSwyNi42OSw2Ljc1LDI5LjggICAgICAgYzAuODYsMS4xMS0wLjE0LDUuNjEtMi41Myw5LjE1TDAuMjUsMjguMjZ6Ii8+JiN4YTsJCQkJCSYjeGE7CQkJCQkJPHBhdGggaWQ9InBhdGg5MDc2MyIgaW5rc2NhcGU6Y29ubmVjdG9yLWN1cnZhdHVyZT0iMCIgc3R5bGU9ImZpbGw6bm9uZTtzdHJva2U6I0ZGRkZGRjtzdHJva2Utd2lkdGg6MC43NjU7c3Ryb2tlLWxpbmVjYXA6cm91bmQ7c3Ryb2tlLWxpbmVqb2luOnJvdW5kO3N0cm9rZS1taXRlcmxpbWl0OjM7IiBkPSIgICAgICAgTTAuMjUsMjguMjZDMCwyOC4zMyw0LjI5LDI2LjY5LDYuNzUsMjkuOGMwLjg2LDEuMTEtMC4xNCw1LjYxLTIuNTMsOS4xNSIvPiYjeGE7CQkJCTwvZz4mI3hhOwkJCQk8ZyBpZD0ic2hhcGU0OTU4LTI2IiB0cmFuc2Zvcm09InRyYW5zbGF0ZSg1LjI5MDE5LC01Ljc4MDI0KSI+JiN4YTsJCQkJCTx0aXRsZSBpZD0idGl0bGU5MDc2NiI+cGF0aDM3MDQ8L3RpdGxlPiYjeGE7CQkJCQk8cGF0aCBpZD0icGF0aDkwNzY4IiBpbmtzY2FwZTpjb25uZWN0b3ItY3VydmF0dXJlPSIwIiBzdHlsZT0iZmlsbDpub25lOyIgZD0iTTkuODUsMzcuMTNjMCwwLDAuMTYsMC43NywyLjQyLDAuMyAgICAgICBjMS0wLjIsMC40LDAuNTktMC41OSwxLjA0Yy0wLjgyLDAuMzktMi42NywwLjQ4LTIuNy0wLjA0Yy0wLjA4LTEuMzcsMC45Ny0wLjk2LDAuOS0xLjNjLTAuMDgtMC4zNC0wLjU0LTAuNTktMC44NS0xLjM2ICAgICAgIGMtMC4yNy0wLjY2LTMuNzMtNS43MSwwLjk1LTQuOTZjMC4xOC0wLjAzLTEuMjItNC40NS01LjYtNC41MkMwLDI2LjIyLDAuMTIsMzEuNjgsMC4xMiwzMS42OEw5Ljg1LDM3LjEzeiIvPiYjeGE7CQkJCQkmI3hhOwkJCQkJCTxwYXRoIGlkPSJwYXRoOTA3NzAiIGlua3NjYXBlOmNvbm5lY3Rvci1jdXJ2YXR1cmU9IjAiIHN0eWxlPSJmaWxsOm5vbmU7c3Ryb2tlOiNGRkZGRkY7c3Ryb2tlLXdpZHRoOjAuNzY1O3N0cm9rZS1saW5lY2FwOnJvdW5kO3N0cm9rZS1saW5lam9pbjpyb3VuZDtzdHJva2UtbWl0ZXJsaW1pdDozOyIgZD0iICAgICAgIE05Ljg1LDM3LjEzYzAsMCwwLjE2LDAuNzcsMi40MiwwLjNjMS0wLjIsMC40LDAuNTktMC41OSwxLjA0Yy0wLjgyLDAuMzktMi42NywwLjQ4LTIuNy0wLjA0Yy0wLjA4LTEuMzcsMC45Ny0wLjk2LDAuOS0xLjMgICAgICAgYy0wLjA4LTAuMzQtMC41NC0wLjU5LTAuODUtMS4zNmMtMC4yNy0wLjY2LTMuNzMtNS43MSwwLjk1LTQuOTZjMC4xOC0wLjAzLTEuMjItNC40NS01LjYtNC41MkMwLDI2LjIyLDAuMTIsMzEuNjgsMC4xMiwzMS42OCIvPiYjeGE7CQkJCTwvZz4mI3hhOwkJCQk8ZyBpZD0ic2hhcGU0OTU5LTI5IiB0cmFuc2Zvcm09InRyYW5zbGF0ZSg1LjA4OTQ0LC01LjI2NjU3KSI+JiN4YTsJCQkJCTx0aXRsZSBpZD0idGl0bGU5MDc3MyI+cGF0aDM3MDY8L3RpdGxlPiYjeGE7CQkJCQkmI3hhOwkJCQkJCTxwYXRoIGlkPSJwYXRoOTA3NzUiIGlua3NjYXBlOmNvbm5lY3Rvci1jdXJ2YXR1cmU9IjAiIHN0eWxlPSJmaWxsOm5vbmU7c3Ryb2tlOiNGRkZGRkY7c3Ryb2tlLXdpZHRoOjAuNzY1O3N0cm9rZS1saW5lY2FwOnJvdW5kO3N0cm9rZS1saW5lam9pbjpyb3VuZDtzdHJva2UtbWl0ZXJsaW1pdDozOyIgZD0iICAgICAgIE0yLjg4LDM3LjA3Yy0wLjYsMC42OS0wLjQ0LDAuODEtMS42NiwxLjA1QzAsMzguMzcsMC43MSwzOC44MywxLjE5LDM4Ljk1YzEuMDMsMC4zMywyLjE2LTAuMDMsMi44LTAuOTEgICAgICAgYzAuMjItMC40MSwwLjA2LTAuOTItMC4zNS0xLjEzYzAsMCwwLDAsMCwwbC0wLjAzLDBjLTAuMjUtMC4xNC0wLjU4LTAuMDctMC43NCwwLjE4TDIuODgsMzcuMDd6Ii8+JiN4YTsJCQkJPC9nPiYjeGE7CQkJCTxnIGlkPSJzaGFwZTQ5NjAtMzEiIHRyYW5zZm9ybT0idHJhbnNsYXRlKDUuMzQ5MjMsLTcuMTQ0MTEpIj4mI3hhOwkJCQkJPHRpdGxlIGlkPSJ0aXRsZTkwNzc4Ij5wYXRoMzcwODwvdGl0bGU+JiN4YTsJCQkJCTxwYXRoIGlkPSJwYXRoOTA3ODAiIGlua3NjYXBlOmNvbm5lY3Rvci1jdXJ2YXR1cmU9IjAiIHN0eWxlPSJmaWxsOm5vbmU7IiBkPSJNMi41NywzOC45NWMwLTAuNSwwLjEyLTAuOTksMC4zNC0xLjQzICAgICAgIGMwLjMxLTAuODQsMS4wMy0xLjY4LDAuNDYtNC4zNGMtMC40NC0xLjk4LTMuMzEtMC40MS0zLjMxLTAuMTRDMC4xMywzMy45MiwwLjExLDM0LjgsMCwzNS42N2MtMC4yNSwxLjM1LDAuNjQsMi42NCwxLjk5LDIuODkgICAgICAgYzAuMTgsMC4wMywwLjM3LDAuMDUsMC41NSwwLjA0TDIuNTcsMzguOTV6Ii8+JiN4YTsJCQkJCSYjeGE7CQkJCQkJPHBhdGggaWQ9InBhdGg5MDc4MiIgaW5rc2NhcGU6Y29ubmVjdG9yLWN1cnZhdHVyZT0iMCIgc3R5bGU9ImZpbGw6bm9uZTtzdHJva2U6I0ZGRkZGRjtzdHJva2Utd2lkdGg6MC43NjU7c3Ryb2tlLWxpbmVjYXA6cm91bmQ7c3Ryb2tlLWxpbmVqb2luOnJvdW5kO3N0cm9rZS1taXRlcmxpbWl0OjM7IiBkPSIgICAgICAgTTIuNTcsMzguOTVjMC0wLjUsMC4xMi0wLjk5LDAuMzQtMS40M2MwLjMxLTAuODQsMS4wMy0xLjY4LDAuNDYtNC4zNGMtMC40NC0xLjk4LTMuMzEtMC40MS0zLjMxLTAuMTQgICAgICAgQzAuMTMsMzMuOTIsMC4xMSwzNC44LDAsMzUuNjdjLTAuMjUsMS4zNSwwLjY0LDIuNjQsMS45OSwyLjg5YzAuMTgsMC4wMywwLjM3LDAuMDUsMC41NSwwLjA0Ii8+JiN4YTsJCQkJPC9nPiYjeGE7CQkJCTxnIGlkPSJzaGFwZTQ5NjEtMzQiIHRyYW5zZm9ybT0idHJhbnNsYXRlKDcuMjM4NTgsLTEyLjcyMzYpIj4mI3hhOwkJCQkJPHRpdGxlIGlkPSJ0aXRsZTkwNzg1Ij5wYXRoMzcxMDwvdGl0bGU+JiN4YTsJCQkJCSYjeGE7CQkJCQkJPHBhdGggaWQ9InBhdGg5MDc4NyIgaW5rc2NhcGU6Y29ubmVjdG9yLWN1cnZhdHVyZT0iMCIgc3R5bGU9ImZpbGw6I0ZGRkZGRjtzdHJva2U6I0ZGRkZGRjtzdHJva2Utd2lkdGg6MC40MTI1O3N0cm9rZS1saW5lY2FwOnNxdWFyZTtzdHJva2UtbWl0ZXJsaW1pdDozOyIgZD0iICAgICAgIE0wLDM4LjU4YzAsMC4wOSwwLjE3LDAuMzQsMC40LDAuMzdjMC4xOSwwLjAyLDAuMzctMC4wOCwwLjQ1LTAuMjVjMC0wLjA5LTAuMTctMC4xOS0wLjQtMC4yMlMwLjAxLDM4LjQ4LDAsMzguNTh6Ii8+JiN4YTsJCQkJPC9nPiYjeGE7CQkJCTxnIGlkPSJzaGFwZTQ5NjItMzYiIHRyYW5zZm9ybT0idHJhbnNsYXRlKDEzLjU2MiwtMTIuOTEyNSkiPiYjeGE7CQkJCQk8dGl0bGUgaWQ9InRpdGxlOTA3OTAiPnBhdGgzNzEyPC90aXRsZT4mI3hhOwkJCQkJJiN4YTsJCQkJCQk8cGF0aCBpZD0icGF0aDkwNzkyIiBpbmtzY2FwZTpjb25uZWN0b3ItY3VydmF0dXJlPSIwIiBzdHlsZT0iZmlsbDojRkZGRkZGO3N0cm9rZTojRkZGRkZGO3N0cm9rZS13aWR0aDowLjIxO3N0cm9rZS1saW5lY2FwOnNxdWFyZTtzdHJva2UtbWl0ZXJsaW1pdDozOyIgZD0iICAgICAgIE0wLjg1LDM4LjU4YzAsMC4wOS0wLjE3LDAuMzQtMC40LDAuMzdDMC4yNiwzOC45NywwLjA4LDM4Ljg3LDAsMzguN2MwLTAuMDksMC4xNy0wLjE5LDAuNC0wLjIyUzAuODQsMzguNDgsMC44NSwzOC41OHoiLz4mI3hhOwkJCQk8L2c+JiN4YTsJCQkJPGcgaWQ9InNoYXBlNDk2My0zOCIgdHJhbnNmb3JtPSJ0cmFuc2xhdGUoMTQuNzQ4OCwtOC4yNzc3MikiPiYjeGE7CQkJCQk8dGl0bGUgaWQ9InRpdGxlOTA3OTUiPnBhdGgzNzE0PC90aXRsZT4mI3hhOwkJCQkJPHBhdGggaWQ9InBhdGg5MDc5NyIgaW5rc2NhcGU6Y29ubmVjdG9yLWN1cnZhdHVyZT0iMCIgc3R5bGU9ImZpbGw6bm9uZTsiIGQ9Ik0wLjUsMzMuMzFjMC4wNCwwLjcyLTAuMTUsMS4xOC0wLjE4LDEuOTggICAgICAgQzAuMjksMzYuNDEsMC44NiwzNy42NSwwLDM4Ljk1TDAuNSwzMy4zMXoiLz4mI3hhOwkJCQkJJiN4YTsJCQkJCQk8cGF0aCBpZD0icGF0aDkwNzk5IiBpbmtzY2FwZTpjb25uZWN0b3ItY3VydmF0dXJlPSIwIiBzdHlsZT0iZmlsbDpub25lO3N0cm9rZTojRkZGRkZGO3N0cm9rZS13aWR0aDowLjc2NTtzdHJva2UtbGluZWNhcDpyb3VuZDtzdHJva2UtbGluZWpvaW46cm91bmQ7c3Ryb2tlLW1pdGVybGltaXQ6MzsiIGQ9IiAgICAgICBNMC41LDMzLjMxYzAuMDQsMC43Mi0wLjE1LDEuMTgtMC4xOCwxLjk4QzAuMjksMzYuNDEsMC44NiwzNy42NSwwLDM4Ljk1Ii8+JiN4YTsJCQkJPC9nPiYjeGE7CQkJPC9nPiYjeGE7CQk8L2c+JiN4YTsJPC9nPiYjeGE7PC9nPiYjeGE7PC9zdmc+;" vertex="1" parent="1">
          <mxGeometry x="1680" y="2249" width="100" height="127.59" as="geometry" />
        </mxCell>
        <mxCell id="fedirBiWEbgYZT4gXUIa-22" value="" style="shape=image;verticalLabelPosition=bottom;labelBackgroundColor=#ffffff;verticalAlign=top;aspect=fixed;imageAspect=0;image=data:image/svg+xml,PHN2ZyB4bWxuczpkYz0iaHR0cDovL3B1cmwub3JnL2RjL2VsZW1lbnRzLzEuMS8iIHhtbG5zOmNjPSJodHRwOi8vY3JlYXRpdmVjb21tb25zLm9yZy9ucyMiIHhtbG5zOnJkZj0iaHR0cDovL3d3dy53My5vcmcvMTk5OS8wMi8yMi1yZGYtc3ludGF4LW5zIyIgeG1sbnM6c3ZnPSJodHRwOi8vd3d3LnczLm9yZy8yMDAwL3N2ZyIgeG1sbnM9Imh0dHA6Ly93d3cudzMub3JnLzIwMDAvc3ZnIiB4bWxuczpzb2RpcG9kaT0iaHR0cDovL3NvZGlwb2RpLnNvdXJjZWZvcmdlLm5ldC9EVEQvc29kaXBvZGktMC5kdGQiIHhtbG5zOmlua3NjYXBlPSJodHRwOi8vd3d3Lmlua3NjYXBlLm9yZy9uYW1lc3BhY2VzL2lua3NjYXBlIiB2ZXJzaW9uPSIxLjEiIGlkPSJzdmc4Mjg3OSIgaW5rc2NhcGU6dmVyc2lvbj0iMC45Mi4zICgyNDA1NTQ2LCAyMDE4LTAzLTExKSIgc29kaXBvZGk6ZG9jbmFtZT0ibG9hZF9iYWxhbmNlci5zdmciIHg9IjBweCIgeT0iMHB4IiB2aWV3Qm94PSIwIDAgMTAwLjMxIDEwMC4zMSIgeG1sOnNwYWNlPSJwcmVzZXJ2ZSIgd2lkdGg9IjEwMC4zMSIgaGVpZ2h0PSIxMDAuMzEiPjxtZXRhZGF0YSBpZD0ibWV0YWRhdGEyNDEyIj48cmRmOlJERj48Y2M6V29yayByZGY6YWJvdXQ9IiI+PGRjOmZvcm1hdD5pbWFnZS9zdmcreG1sPC9kYzpmb3JtYXQ+PGRjOnR5cGUgcmRmOnJlc291cmNlPSJodHRwOi8vcHVybC5vcmcvZGMvZGNtaXR5cGUvU3RpbGxJbWFnZSIvPjxkYzp0aXRsZS8+PC9jYzpXb3JrPjwvcmRmOlJERj48L21ldGFkYXRhPjxkZWZzIGlkPSJkZWZzMjQxMCIvPiYjeGE7PGZpbHRlciBpZD0iZmlsdGVyXzIiPiYjeGE7CTxmZUdhdXNzaWFuQmx1ciBpZD0iZmVHYXVzc2lhbkJsdXI4MjgzNiIgc3RkRGV2aWF0aW9uPSIyIi8+JiN4YTs8L2ZpbHRlcj4mI3hhOzxzb2RpcG9kaTpuYW1lZHZpZXcgYm9yZGVyY29sb3I9IiM2NjY2NjYiIGJvcmRlcm9wYWNpdHk9IjEiIGZpdC1tYXJnaW4tYm90dG9tPSIwIiBmaXQtbWFyZ2luLWxlZnQ9IjAiIGZpdC1tYXJnaW4tcmlnaHQ9IjAiIGZpdC1tYXJnaW4tdG9wPSIwIiBncmlkdG9sZXJhbmNlPSIxMCIgZ3VpZGV0b2xlcmFuY2U9IjEwIiBpZD0ibmFtZWR2aWV3ODI4ODEiIGlua3NjYXBlOmN1cnJlbnQtbGF5ZXI9InN2ZzgyODc5IiBpbmtzY2FwZTpjeD0iLTM2LjI2NDEyMyIgaW5rc2NhcGU6Y3k9IjQzLjM4OTQ1NSIgaW5rc2NhcGU6cGFnZW9wYWNpdHk9IjAiIGlua3NjYXBlOnBhZ2VzaGFkb3c9IjIiIGlua3NjYXBlOndpbmRvdy1oZWlnaHQ9IjEwMTciIGlua3NjYXBlOndpbmRvdy1tYXhpbWl6ZWQ9IjEiIGlua3NjYXBlOndpbmRvdy13aWR0aD0iMTkyMCIgaW5rc2NhcGU6d2luZG93LXg9Ii04IiBpbmtzY2FwZTp3aW5kb3cteT0iLTgiIGlua3NjYXBlOnpvb209IjUuMjEwODU3NiIgb2JqZWN0dG9sZXJhbmNlPSIxMCIgcGFnZWNvbG9yPSIjZmZmZmZmIiBzaG93Z3JpZD0iZmFsc2UiPiYjeGE7CTwvc29kaXBvZGk6bmFtZWR2aWV3PiYjeGE7JiN4YTs8cGF0aCBpZD0icGF0aDgyODQ5IiBpbmtzY2FwZTpjb25uZWN0b3ItY3VydmF0dXJlPSIwIiBzdHlsZT0iZmlsbDojN2ZiYTAwIiBkPSJtIDUwLjE1LDEwMC4zMSBjIC0yLjQ3LDAgLTQuNzksLTAuOTcgLTYuNTQsLTIuNzEgTCAyLjcxLDU2LjY5IEMgMC45OSw1NC45NyAwLDUyLjU5IDAsNTAuMTUgMCw0Ny43MiAwLjk5LDQ1LjMzIDIuNzEsNDMuNjEgTCA0My42MSwyLjcxIEMgNDUuMzYsMC45NiA0Ny42OCwwIDUwLjE1LDAgYyAyLjQ3LDAgNC44LDAuOTYgNi41NSwyLjcxIGwgNDAuODksNDAuOSBjIDEuNzUsMS43NCAyLjcyLDQuMDcgMi43Miw2LjU0IDAsMi40OCAtMC45Nyw0LjggLTIuNzIsNi41NSBMIDU2LjcsOTcuNiBjIC0xLjc1LDEuNzQgLTQuMDgsMi43MSAtNi41NSwyLjcxIHoiLz4mI3hhOyYjeGE7PHBhdGggaWQ9InBhdGg4Mjg1NyIgaW5rc2NhcGU6Y29ubmVjdG9yLWN1cnZhdHVyZT0iMCIgc3R5bGU9ImZpbGw6I2ZmZmZmZiIgZD0iTSA5MS41LDQ5LjQ4IDc4LjI0LDM2LjIxIHYgOS4zNyBMIDY0LjE2LDQ1LjU3IEMgNjIuOCw0MC43MiA1OSwzNi44OCA1NC4xNiwzNS41IFYgMjIuMDcgaCA5LjI2IEwgNTAuMTUsOC44MSAzNi44OSwyMi4wNyBoIDkuMjUgdiAxMy40MiBjIC00LjgzLDEuMzkgLTguNjMsNS4yMSAtOS45OSwxMC4wNSBMIDIyLjA3LDQ1LjUzIFYgMzYuMjYgTCA4LjgsNDkuNTMgMjIuMDcsNjIuNzkgdiAtOS4zNiBsIDE0LjA4LDAuMDEgYyAxLjM3LDQuODMgNS4xNyw4LjY0IDkuOTksMTAuMDIgdiA5LjMxIGMgLTIuMDEsMS40NiAtNS4wNyw0LjUzIC01LjA3LDguMSAwLDQuOTggNC4wOCw5LjAzIDkuMDUsOS4wMyA0Ljk4LDAgOS4wNSwtNC4wNSA5LjA1LC05LjAzIDAsLTMuNTMgLTMsLTYuNTcgLTUuMDEsLTguMDUgdiAtOS4zNiBjIDQuODIsLTEuMzggOC42MSwtNS4xOCA5Ljk4LC05Ljk5IGwgMTQuMSwwLjAxIHYgOS4yNiB6Ii8+JiN4YTsmI3hhOzxwYXRoIGlkPSJwYXRoODI4NjUiIGlua3NjYXBlOmNvbm5lY3Rvci1jdXJ2YXR1cmU9IjAiIHN0eWxlPSJmaWxsOiM1OWI0ZDkiIGQ9Im0gNTAuMTUsMzguOTMgYyAtNS44MiwwIC0xMC41NSw0LjczIC0xMC41NSwxMC41NSAwLDUuODIgNC43MywxMC41NSAxMC41NSwxMC41NSA1LjgxLDAgMTAuNTUsLTQuNzMgMTAuNTUsLTEwLjU1IDAsLTUuODIgLTQuNzQsLTEwLjU1IC0xMC41NSwtMTAuNTUgeiIvPiYjeGE7JiN4YTs8cGF0aCBpZD0icGF0aDgyODczIiBpbmtzY2FwZTpjb25uZWN0b3ItY3VydmF0dXJlPSIwIiBzdHlsZT0iZmlsbDojZmZmZmZmO2ZpbGwtb3BhY2l0eTowLjE1IiBkPSJNIDU2LjcsMi43MiBDIDU0Ljk1LDAuOTcgNTIuNjMsMCA1MC4xNSwwIDQ3LjY5LDAgNDUuMzYsMC45NyA0My42MSwyLjcyIEwgMi43MSw0My42MiBDIDAuOTksNDUuMzQgMCw0Ny43MiAwLDUwLjE2IDAsNTIuNTkgMC45OSw1NC45OCAyLjcxLDU2LjcgTCAyNS44Nyw3OS44NiA2OS40MywxNS40NSBaIi8+JiN4YTs8L3N2Zz4=;" vertex="1" parent="1">
          <mxGeometry x="589.87" y="2066.35" width="103.65" height="103.65" as="geometry" />
        </mxCell>
        <mxCell id="fedirBiWEbgYZT4gXUIa-23" value="" style="shape=image;verticalLabelPosition=bottom;labelBackgroundColor=#ffffff;verticalAlign=top;aspect=fixed;imageAspect=0;image=data:image/svg+xml,PHN2ZyB4bWxuczpjYz0iaHR0cDovL2NyZWF0aXZlY29tbW9ucy5vcmcvbnMjIiB4bWxuczpkYz0iaHR0cDovL3B1cmwub3JnL2RjL2VsZW1lbnRzLzEuMS8iIHhtbG5zOmlua3NjYXBlPSJodHRwOi8vd3d3Lmlua3NjYXBlLm9yZy9uYW1lc3BhY2VzL2lua3NjYXBlIiB4bWxuczpyZGY9Imh0dHA6Ly93d3cudzMub3JnLzE5OTkvMDIvMjItcmRmLXN5bnRheC1ucyMiIHhtbG5zOnNvZGlwb2RpPSJodHRwOi8vc29kaXBvZGkuc291cmNlZm9yZ2UubmV0L0RURC9zb2RpcG9kaS0wLmR0ZCIgeG1sbnM6c3ZnPSJodHRwOi8vd3d3LnczLm9yZy8yMDAwL3N2ZyIgeG1sbnM9Imh0dHA6Ly93d3cudzMub3JnLzIwMDAvc3ZnIiB4bWxuczp4bGluaz0iaHR0cDovL3d3dy53My5vcmcvMTk5OS94bGluayIgdmVyc2lvbj0iMS4xIiBpZD0ic3ZnOTkyNDkiIGlua3NjYXBlOnZlcnNpb249IjAuOTIuMyAoMjQwNTU0NiwgMjAxOC0wMy0xMSkiIHNvZGlwb2RpOmRvY25hbWU9InN1Ym5ldHMuc3ZnIiB4PSIwcHgiIHk9IjBweCIgdmlld0JveD0iMCAwIDM0Ljg0IDIxLjYxIiBzdHlsZT0iZW5hYmxlLWJhY2tncm91bmQ6bmV3IDAgMCAzNC44NCAyMS42MTsiIHhtbDpzcGFjZT0icHJlc2VydmUiPiYjeGE7PHNvZGlwb2RpOm5hbWVkdmlldyBib3JkZXJjb2xvcj0iIzY2NjY2NiIgYm9yZGVyb3BhY2l0eT0iMSIgZml0LW1hcmdpbi1ib3R0b209IjAiIGZpdC1tYXJnaW4tbGVmdD0iMCIgZml0LW1hcmdpbi1yaWdodD0iMCIgZml0LW1hcmdpbi10b3A9IjAiIGdyaWR0b2xlcmFuY2U9IjEwIiBndWlkZXRvbGVyYW5jZT0iMTAiIGlkPSJuYW1lZHZpZXc5OTI1MSIgaW5rc2NhcGU6Y3VycmVudC1sYXllcj0ic3ZnOTkyNDkiIGlua3NjYXBlOmN4PSI0MC45MTcxNDUiIGlua3NjYXBlOmN5PSIwLjYzNzUyNTg2IiBpbmtzY2FwZTpwYWdlb3BhY2l0eT0iMCIgaW5rc2NhcGU6cGFnZXNoYWRvdz0iMiIgaW5rc2NhcGU6d2luZG93LWhlaWdodD0iMTAxNyIgaW5rc2NhcGU6d2luZG93LW1heGltaXplZD0iMSIgaW5rc2NhcGU6d2luZG93LXdpZHRoPSIxOTIwIiBpbmtzY2FwZTp3aW5kb3cteD0iLTgiIGlua3NjYXBlOndpbmRvdy15PSItOCIgaW5rc2NhcGU6em9vbT0iMTAuNjM5NDk0IiBvYmplY3R0b2xlcmFuY2U9IjEwIiBwYWdlY29sb3I9IiNmZmZmZmYiIHNob3dncmlkPSJmYWxzZSI+JiN4YTsJPC9zb2RpcG9kaTpuYW1lZHZpZXc+JiN4YTs8ZyBpZD0iZzk5MjQ3IiB0cmFuc2Zvcm09InRyYW5zbGF0ZSgtNC4yMzMxNzQ5ZS01KSI+JiN4YTsJPHRpdGxlIGlkPSJ0aXRsZTk5MjI3Ij5QYWdlLTE8L3RpdGxlPiYjeGE7CTxnIGlkPSJncm91cDQ2NTQtMSI+JiN4YTsJCTx0aXRsZSBpZD0idGl0bGU5OTIyOSI+U3VibmV0czwvdGl0bGU+JiN4YTsJCTxnIGlkPSJzaGFwZTQ2NTUtMiIgdHJhbnNmb3JtPSJ0cmFuc2xhdGUoMjIuNjEzKSI+JiN4YTsJCQk8dGl0bGUgaWQ9InRpdGxlOTkyMzEiPlNoZWV0LjQ2NTU8L3RpdGxlPiYjeGE7CQkJPHBhdGggaWQ9InBhdGg5OTIzMyIgaW5rc2NhcGU6Y29ubmVjdG9yLWN1cnZhdHVyZT0iMCIgc3R5bGU9ImZpbGw6IzM5OTlDNjsiIGQ9Ik0xMi4yMywxMC42OEw5Ljg0LDguMjlMMS4zOSwwTDAsMS4yNmw5LjU4LDkuNDIgICAgIEwwLDIwLjM1bDEuMzksMS4yNmw4LjQ1LTguM0wxMi4yMywxMC42OHoiLz4mI3hhOwkJPC9nPiYjeGE7CQk8ZyBpZD0ic2hhcGU0NjU2LTQiPiYjeGE7CQkJPHRpdGxlIGlkPSJ0aXRsZTk5MjM2Ij5TaGVldC40NjU2PC90aXRsZT4mI3hhOwkJCTxwYXRoIGlkPSJwYXRoOTkyMzgiIGlua3NjYXBlOmNvbm5lY3Rvci1jdXJ2YXR1cmU9IjAiIHN0eWxlPSJmaWxsOiMzOTk5QzY7IiBkPSJNMCwxMC42OGwyLjM5LTIuMzlMMTAuODQsMGwxLjM5LDEuMjYgICAgIGwtOS41OCw5LjQybDkuNTgsOS42N2wtMS4zOSwxLjI2bC04LjQ1LTguM0wwLDEwLjY4eiIvPiYjeGE7CQk8L2c+JiN4YTsJCTxnIGlkPSJzaGFwZTQ2NTctNiIgdHJhbnNmb3JtPSJ0cmFuc2xhdGUoMTQuODY4NSwtOC41MzE5NykiPiYjeGE7CQkJPHRpdGxlIGlkPSJ0aXRsZTk5MjQxIj5TaGVldC40NjU3PC90aXRsZT4mI3hhOwkJCTxwYXRoIGlkPSJwYXRoOTkyNDMiIGlua3NjYXBlOmNvbm5lY3Rvci1jdXJ2YXR1cmU9IjAiIHN0eWxlPSJmaWxsOiM3RkJBMDA7IiBkPSJNNC45MSwxOS4yMWMwLDEuMzgtMS4xMywyLjQtMi4zOSwyLjQgICAgIFMwLDIwLjQ2LDAsMTkuMjFjMC0xLjI2LDEuMTMtMi4zOCwyLjUyLTIuMzhTNC45MSwxNy45NSw0LjkxLDE5LjIxeiIvPiYjeGE7CQk8L2c+JiN4YTsJPC9nPiYjeGE7PC9nPiYjeGE7PC9zdmc+;" vertex="1" parent="1">
          <mxGeometry x="1369" y="2002.3" width="70" height="44" as="geometry" />
        </mxCell>
        <mxCell id="fedirBiWEbgYZT4gXUIa-24" value="" style="shape=image;verticalLabelPosition=bottom;labelBackgroundColor=#ffffff;verticalAlign=top;aspect=fixed;imageAspect=0;image=data:image/svg+xml,PHN2ZyB4bWxuczpkYz0iaHR0cDovL3B1cmwub3JnL2RjL2VsZW1lbnRzLzEuMS8iIHhtbG5zOmNjPSJodHRwOi8vY3JlYXRpdmVjb21tb25zLm9yZy9ucyMiIHhtbG5zOnJkZj0iaHR0cDovL3d3dy53My5vcmcvMTk5OS8wMi8yMi1yZGYtc3ludGF4LW5zIyIgeG1sbnM6c3ZnPSJodHRwOi8vd3d3LnczLm9yZy8yMDAwL3N2ZyIgeG1sbnM9Imh0dHA6Ly93d3cudzMub3JnLzIwMDAvc3ZnIiB4bWxuczpzb2RpcG9kaT0iaHR0cDovL3NvZGlwb2RpLnNvdXJjZWZvcmdlLm5ldC9EVEQvc29kaXBvZGktMC5kdGQiIHhtbG5zOmlua3NjYXBlPSJodHRwOi8vd3d3Lmlua3NjYXBlLm9yZy9uYW1lc3BhY2VzL2lua3NjYXBlIiB2ZXJzaW9uPSIxLjEiIGlkPSJzdmc1NjAxOCIgaW5rc2NhcGU6dmVyc2lvbj0iMC45Mi4zICgyNDA1NTQ2LCAyMDE4LTAzLTExKSIgc29kaXBvZGk6ZG9jbmFtZT0iYXp1cmVfY29udGFpbmVyLnN2ZyIgeD0iMHB4IiB5PSIwcHgiIHZpZXdCb3g9IjAgMCA2NS41MiA0OC40OSIgeG1sOnNwYWNlPSJwcmVzZXJ2ZSIgd2lkdGg9IjY1LjUxOTk5NyIgaGVpZ2h0PSI0OC40OTAwMDIiPjxtZXRhZGF0YSBpZD0ibWV0YWRhdGE1NTM4Ij48cmRmOlJERj48Y2M6V29yayByZGY6YWJvdXQ9IiI+PGRjOmZvcm1hdD5pbWFnZS9zdmcreG1sPC9kYzpmb3JtYXQ+PGRjOnR5cGUgcmRmOnJlc291cmNlPSJodHRwOi8vcHVybC5vcmcvZGMvZGNtaXR5cGUvU3RpbGxJbWFnZSIvPjxkYzp0aXRsZS8+PC9jYzpXb3JrPjwvcmRmOlJERj48L21ldGFkYXRhPjxkZWZzIGlkPSJkZWZzNTUzNiIvPiYjeGE7PGZpbHRlciBpZD0iZmlsdGVyXzIiPiYjeGE7CTxmZUdhdXNzaWFuQmx1ciBpZD0iZmVHYXVzc2lhbkJsdXI1NTgzOSIgc3RkRGV2aWF0aW9uPSIyIi8+JiN4YTs8L2ZpbHRlcj4mI3hhOzxzb2RpcG9kaTpuYW1lZHZpZXcgYm9yZGVyY29sb3I9IiM2NjY2NjYiIGJvcmRlcm9wYWNpdHk9IjEiIGZpdC1tYXJnaW4tYm90dG9tPSIwIiBmaXQtbWFyZ2luLWxlZnQ9IjAiIGZpdC1tYXJnaW4tcmlnaHQ9IjAiIGZpdC1tYXJnaW4tdG9wPSIwIiBncmlkdG9sZXJhbmNlPSIxMCIgZ3VpZGV0b2xlcmFuY2U9IjEwIiBpZD0ibmFtZWR2aWV3NTYwMjAiIGlua3NjYXBlOmN1cnJlbnQtbGF5ZXI9InN2ZzU2MDE4IiBpbmtzY2FwZTpjeD0iLTMuNDYzNzEzOSIgaW5rc2NhcGU6Y3k9IjIwLjQ1NjkyNyIgaW5rc2NhcGU6cGFnZW9wYWNpdHk9IjAiIGlua3NjYXBlOnBhZ2VzaGFkb3c9IjIiIGlua3NjYXBlOndpbmRvdy1oZWlnaHQ9IjEwMTciIGlua3NjYXBlOndpbmRvdy1tYXhpbWl6ZWQ9IjEiIGlua3NjYXBlOndpbmRvdy13aWR0aD0iMTkyMCIgaW5rc2NhcGU6d2luZG93LXg9Ii04IiBpbmtzY2FwZTp3aW5kb3cteT0iLTgiIGlua3NjYXBlOnpvb209IjguOTExNjU1NyIgb2JqZWN0dG9sZXJhbmNlPSIxMCIgcGFnZWNvbG9yPSIjZmZmZmZmIiBzaG93Z3JpZD0iZmFsc2UiPiYjeGE7CTwvc29kaXBvZGk6bmFtZWR2aWV3PiYjeGE7JiN4YTs8cGF0aCBpZD0icGF0aDU1ODUyIiBpbmtzY2FwZTpjb25uZWN0b3ItY3VydmF0dXJlPSIwIiBzdHlsZT0iZmlsbDojODA0OTk4IiBkPSJNIDMwLjAxLDEyLjMyIDE5LjkyLDE2LjI1IFYgMCBsIDEwLjA5LDMuNTQgeiIvPiYjeGE7JiN4YTs8cGF0aCBpZD0icGF0aDU1ODYwIiBpbmtzY2FwZTpjb25uZWN0b3ItY3VydmF0dXJlPSIwIiBzdHlsZT0iZmlsbDojODA0OTk4IiBkPSJtIDEwLjg4LDIuNzUgdiAxMC42MSBsIDcuNDcsMi44OSBWIDAuMTMgWiBtIDAuNzksOS44MyAtMC40LC0wLjEzIFYgMy42NyBsIDAuNCwtMC4xMyAwLjM5LC0wLjE0IDAuMzksLTAuMTMgdiA5LjU3IGwgLTAuMzksLTAuMTMgeiBtIDEuOTYsMC41MiAtMC41MiwtMC4xMyBWIDMuMTQgbCAwLjUyLC0wLjEzIDAuNTMsLTAuMTMgMC41MiwtMC4xMyB2IDEwLjc0IGwgLTAuNTIsLTAuMTMgeiBtIDIuMzYsMC43OSAtMC42NSwtMC4yNiBWIDIuNDkgbCAwLjY1LC0wLjEzIDAuNjYsLTAuMjcgMC43OCwtMC4yNiB2IDEyLjQ1IGwgLTAuNzgsLTAuMjYgeiIvPiYjeGE7JiN4YTs8cGF0aCBpZD0icGF0aDU1ODY4IiBpbmtzY2FwZTpjb25uZWN0b3ItY3VydmF0dXJlPSIwIiBzdHlsZT0iZmlsbDojODA0OTk4IiBkPSJNIDUzLjQ3LDEyLjMyIDQzLjM4LDE2LjI1IFYgMCBsIDEwLjA5LDMuNTQgeiIvPiYjeGE7JiN4YTs8cGF0aCBpZD0icGF0aDU1ODc2IiBpbmtzY2FwZTpjb25uZWN0b3ItY3VydmF0dXJlPSIwIiBzdHlsZT0iZmlsbDojODA0OTk4IiBkPSJtIDM0LjMzLDIuNzUgdiAxMC42MSBsIDcuNDcsMi44OSBWIDAuMTMgWiBtIDAuNzksOS44MyAtMC40LC0wLjEzIFYgMy42NyBMIDM1LjEyLDMuNTQgMzUuNTEsMy40IDM1LjksMy4yNyB2IDkuNTcgbCAtMC4zOSwtMC4xMyB6IG0gMS45NiwwLjUyIC0wLjUyLC0wLjEzIFYgMy4xNCBsIDAuNTIsLTAuMTMgMC41MywtMC4xMyAwLjUyLC0wLjEzIHYgMTAuNzQgbCAtMC41MiwtMC4xMyB6IG0gMi4zNiwwLjc5IC0wLjY1LC0wLjI2IFYgMi40OSBMIDM5LjQ0LDIuMzYgNDAuMSwyLjA5IDQwLjg4LDEuODMgViAxNC4yOCBMIDQwLjEsMTQuMDIgWiIvPiYjeGE7JiN4YTs8cGF0aCBpZD0icGF0aDU1ODg0IiBpbmtzY2FwZTpjb25uZWN0b3ItY3VydmF0dXJlPSIwIiBzdHlsZT0iZmlsbDojODA0OTk4IiBkPSJNIDMwLjAxLDQ0LjU2IDE5LjkyLDQ4LjQ5IFYgMzIuMjQgbCAxMC4wOSwzLjU0IHoiLz4mI3hhOyYjeGE7PHBhdGggaWQ9InBhdGg1NTg5MiIgaW5rc2NhcGU6Y29ubmVjdG9yLWN1cnZhdHVyZT0iMCIgc3R5bGU9ImZpbGw6IzgwNDk5OCIgZD0iTSAxMC44OCwzNC45OSBWIDQ1LjYgbCA3LjQ3LDIuODkgViAzMi4zNyBaIG0gMC43OSw5LjgzIC0wLjQsLTAuMTMgdiAtOC43OCBsIDAuNCwtMC4xMyAwLjM5LC0wLjE0IDAuMzksLTAuMTMgdiA5LjU3IGwgLTAuMzksLTAuMTMgeiBtIDEuOTYsMC41MiAtMC41MiwtMC4xMyB2IC05LjgzIGwgMC41MiwtMC4xMyAwLjUzLC0wLjEzIDAuNTIsLTAuMTMgViA0NS43MyBMIDE0LjE2LDQ1LjYgWiBtIDIuMzYsMC43OSAtMC42NSwtMC4yNiBWIDM0LjczIGwgMC42NSwtMC4xMyAwLjY2LC0wLjI3IDAuNzgsLTAuMjYgdiAxMi40NSBsIC0wLjc4LC0wLjI2IHoiLz4mI3hhOyYjeGE7PHBhdGggaWQ9InBhdGg1NTkwMCIgaW5rc2NhcGU6Y29ubmVjdG9yLWN1cnZhdHVyZT0iMCIgc3R5bGU9ImZpbGw6IzgwNDk5OCIgZD0iTSA1My40Nyw0NC41NiA0My4zOCw0OC40OSBWIDMyLjI0IGwgMTAuMDksMy41NCB6Ii8+JiN4YTsmI3hhOzxwYXRoIGlkPSJwYXRoNTU5MDgiIGlua3NjYXBlOmNvbm5lY3Rvci1jdXJ2YXR1cmU9IjAiIHN0eWxlPSJmaWxsOiM4MDQ5OTgiIGQ9Ik0gMzQuMzMsMzQuOTkgViA0NS42IGwgNy40NywyLjg5IFYgMzIuMzcgWiBtIDAuNzksOS44MyAtMC40LC0wLjEzIHYgLTguNzggbCAwLjQsLTAuMTMgMC4zOSwtMC4xNCAwLjM5LC0wLjEzIHYgOS41NyBsIC0wLjM5LC0wLjEzIHogbSAxLjk2LDAuNTIgLTAuNTIsLTAuMTMgdiAtOS44MyBsIDAuNTIsLTAuMTMgMC41MywtMC4xMyAwLjUyLC0wLjEzIFYgNDUuNzMgTCAzNy42MSw0NS42IFogbSAyLjM2LDAuNzkgLTAuNjUsLTAuMjYgViAzNC43MyBsIDAuNjUsLTAuMTMgMC42NiwtMC4yNyAwLjc4LC0wLjI2IFYgNDYuNTIgTCA0MC4xLDQ2LjI2IFoiLz4mI3hhOyYjeGE7PHBhdGggaWQ9InBhdGg1NTkxNiIgaW5rc2NhcGU6Y29ubmVjdG9yLWN1cnZhdHVyZT0iMCIgc3R5bGU9ImZpbGw6IzgwNDk5OCIgZD0ibSA0Mi40NiwyOC40NCAtOS45NiwzLjggViAxNi4xMiBsIDkuOTYsMy41NCB6Ii8+JiN4YTsmI3hhOzxwYXRoIGlkPSJwYXRoNTU5MjQiIGlua3NjYXBlOmNvbm5lY3Rvci1jdXJ2YXR1cmU9IjAiIHN0eWxlPSJmaWxsOiM4MDQ5OTgiIGQ9Im0gMjMuMzMsMTguNzQgdiAxMC42MSBsIDcuNDcsMi44OSBWIDE2LjEyIFogbSAwLjc5LDkuODMgLTAuNCwtMC4xMyB2IC04Ljc4IGwgMC40LC0wLjEzIDAuMzksLTAuMTQgMC4zOSwtMC4xMyB2IDkuNTcgTCAyNC41MSwyOC43IFogbSAxLjk2LDAuNjUgLTAuNTIsLTAuMTMgdiAtOS44MyBsIDAuNTIsLTAuMTMgMC41MywtMC4xMyAwLjUyLC0wLjEzIHYgMTAuNzUgbCAtMC41MiwtMC4xNCB6IG0gMi4zNiwwLjc5IC0wLjY1LC0wLjI2IFYgMTguNjEgbCAwLjY1LC0wLjEzIDAuNjYsLTAuMjcgMC43OCwtMC4yNiBWIDMwLjQgTCAyOS4xLDMwLjE0IFoiLz4mI3hhOyYjeGE7PHBhdGggaWQ9InBhdGg1NTkzMiIgaW5rc2NhcGU6Y29ubmVjdG9yLWN1cnZhdHVyZT0iMCIgc3R5bGU9ImZpbGw6IzgwNDk5OCIgZD0ibSAxOS4xMywyOC40NCAtOS45NiwzLjggViAxNi4xMiBsIDkuOTYsMy41NCB6Ii8+JiN4YTsmI3hhOzxwYXRoIGlkPSJwYXRoNTU5NDAiIGlua3NjYXBlOmNvbm5lY3Rvci1jdXJ2YXR1cmU9IjAiIHN0eWxlPSJmaWxsOiM4MDQ5OTgiIGQ9Im0gMCwxOC43NCB2IDEwLjYxIGwgNy40NywyLjg5IFYgMTYuMTIgWiBtIDAuNzksOS44MyAtMC40LC0wLjEzIHYgLTguNzggbCAwLjQsLTAuMTMgMC4zOSwtMC4xNCAwLjM5LC0wLjEzIHYgOS41NyBMIDEuMTgsMjguNyBaIE0gMi43NSwyOS4yMiAyLjIzLDI5LjA5IFYgMTkuMjYgTCAyLjc1LDE5LjEzIDMuMjgsMTkgMy44LDE4Ljg3IFYgMjkuNjIgTCAzLjI4LDI5LjQ4IFogTSA1LjExLDMwLjAxIDQuNDYsMjkuNzUgViAxOC42MSBMIDUuMTEsMTguNDggNS43NywxOC4yMSA2LjU1LDE3Ljk1IFYgMzAuNCBMIDUuNzcsMzAuMTQgWiIvPiYjeGE7JiN4YTs8cGF0aCBpZD0icGF0aDU1OTQ4IiBpbmtzY2FwZTpjb25uZWN0b3ItY3VydmF0dXJlPSIwIiBzdHlsZT0iZmlsbDojODA0OTk4IiBkPSJtIDY1LjUyLDI4LjQ0IC05Ljk2LDMuOCBWIDE2LjEyIGwgOS45NiwzLjU0IHoiLz4mI3hhOyYjeGE7JiN4YTsmI3hhOyYjeGE7JiN4YTsmI3hhOyYjeGE7JiN4YTsmI3hhOyYjeGE7JiN4YTsmI3hhOyYjeGE7JiN4YTsmI3hhOzxwYXRoIGlkPSJwYXRoNTYwMTIiIGlua3NjYXBlOmNvbm5lY3Rvci1jdXJ2YXR1cmU9IjAiIHN0eWxlPSJmaWxsOiM4MDQ5OTgiIGQ9Im0gNDYuMzksMTguNzQgdiAxMC42MSBsIDcuNDcsMi44OSBWIDE2LjEyIFogbSAwLjc5LDkuODMgLTAuNCwtMC4xMyB2IC04Ljc4IGwgMC40LC0wLjEzIDAuMzksLTAuMTQgMC4zOSwtMC4xMyB2IDkuNTcgTCA0Ny41NywyOC43IFogbSAxLjk2LDAuNjUgLTAuNTIsLTAuMTMgdiAtOS44MyBsIDAuNTIsLTAuMTMgMC41MywtMC4xMyAwLjUyLC0wLjEzIHYgMTAuNzUgbCAtMC41MiwtMC4xNCB6IG0gMi4zNiwwLjc5IC0wLjY1LC0wLjI2IFYgMTguNjEgbCAwLjY1LC0wLjEzIDAuNjYsLTAuMjcgMC43OCwtMC4yNiBWIDMwLjQgbCAtMC43OCwtMC4yNiB6Ii8+JiN4YTs8L3N2Zz4=;" vertex="1" parent="1">
          <mxGeometry x="913.67" y="2069.9700000000003" width="140" height="101.82" as="geometry" />
        </mxCell>
        <mxCell id="fedirBiWEbgYZT4gXUIa-25" style="edgeStyle=elbowEdgeStyle;rounded=0;orthogonalLoop=1;jettySize=auto;html=1;strokeColor=#808080;exitX=1;exitY=0.5;exitDx=0;exitDy=0;" edge="1" parent="1">
          <mxGeometry relative="1" as="geometry">
            <mxPoint x="693.5200000000001" y="2117.59" as="sourcePoint" />
            <mxPoint x="900" y="2118" as="targetPoint" />
            <Array as="points">
              <mxPoint x="856.85" y="1958.72" />
            </Array>
          </mxGeometry>
        </mxCell>
        <mxCell id="fedirBiWEbgYZT4gXUIa-26" value="" style="aspect=fixed;sketch=0;html=1;dashed=0;whitespace=wrap;fillColor=#2875E2;strokeColor=#ffffff;points=[[0.005,0.63,0],[0.1,0.2,0],[0.9,0.2,0],[0.5,0,0],[0.995,0.63,0],[0.72,0.99,0],[0.5,1,0],[0.28,0.99,0]];shape=mxgraph.kubernetes.icon2;prIcon=pod" vertex="1" parent="1">
          <mxGeometry x="930.5" y="2260" width="110" height="105.6" as="geometry" />
        </mxCell>
        <mxCell id="fedirBiWEbgYZT4gXUIa-27" style="edgeStyle=elbowEdgeStyle;rounded=0;orthogonalLoop=1;jettySize=auto;html=1;strokeColor=#808080;" edge="1" parent="1">
          <mxGeometry relative="1" as="geometry">
            <mxPoint x="1400" y="2320" as="sourcePoint" />
            <mxPoint x="1660" y="2320" as="targetPoint" />
            <Array as="points">
              <mxPoint x="1221.0900000000001" y="2161.13" />
            </Array>
          </mxGeometry>
        </mxCell>
      </root>
    </mxGraphModel>
  </diagram>
</mxfile>
